<svg viewBox="0 0 10 16" fill="none" xmlns="http://www.w3.org/2000/svg"><path d="M4.771.43c-.791.036-1.438.586-1.69 1.355a2.47 2.47 0 0 0 .108 1.758c.108.22.288.44.467.586.216.147.432.257.684.33a2.558 2.558 0 0 0 1.725-.183c.252-.147.468-.367.612-.623.36-.696.36-1.538.036-2.27A1.919 1.919 0 0 0 6.28.868C6.065.723 5.85.576 5.598.503A3.892 3.892 0 0 0 4.95.43c.036-.037-.072-.037-.18 0ZM4.484 5.521c-1.007.183-1.906.77-2.445 1.612a5.251 5.251 0 0 0-.827 2.197c-.216.953-.36 1.942-.467 2.894-.036.77-.072 1.538 0 2.308.108.659.323 1.135.683 1.318.216.11.431.147.647.147.324 0 .647-.11.899-.293.36-.293.647-.66.863-1.063.072-.146.18-.256.287-.366.216-.256.54-.403.9-.366.323-.037.682.11.898.366.108.11.216.257.288.367.215.44.503.805.863 1.062.251.183.575.293.898.293.468.036.9-.22 1.08-.623a3.26 3.26 0 0 0 .287-1.538c.036-1.209-.108-2.418-.324-3.59-.287-1.465-.395-1.978-.719-2.564-.18-.403-.431-.732-.719-1.062a3.459 3.459 0 0 0-1.87-1.062 4.602 4.602 0 0 0-1.222-.037Z" fill="#153564"/></svg>