<svg viewBox="0 0 20 20" fill="none" xmlns="http://www.w3.org/2000/svg">
  <path
    d="M8.39687 19.2C12.5942 19.2 15.9969 15.7974 15.9969 11.6C15.9969 7.40264 12.5942 4 8.39687 4C4.19951 4 0.796875 7.40264 0.796875 11.6C0.796875 15.7974 4.19951 19.2 8.39687 19.2Z"
    fill="white" />
  <path
    d="M8.39531 16.7999C11.2672 16.7999 13.5953 14.4718 13.5953 11.5999C13.5953 8.72802 11.2672 6.3999 8.39531 6.3999C5.52343 6.3999 3.19531 8.72802 3.19531 11.5999C3.19531 14.4718 5.52343 16.7999 8.39531 16.7999Z"
    stroke="#2E36F2" stroke-width="4.8" />
  <path
    d="M16.3977 6.3998C17.9441 6.3998 19.1977 5.1462 19.1977 3.5998C19.1977 2.05341 17.9441 0.799805 16.3977 0.799805C14.8513 0.799805 13.5977 2.05341 13.5977 3.5998C13.5977 5.1462 14.8513 6.3998 16.3977 6.3998Z"
    fill="#2E36F2" />
</svg>