<svg viewBox="0 0 20 20" fill="none" xmlns="http://www.w3.org/2000/svg"><path d="M10 19.636A9.636 9.636 0 0 0 19.636 10 9.636 9.636 0 1 0 10 19.636Z" stroke="#F88E0D" stroke-width=".727"/><path d="M10 18.182a8.182 8.182 0 1 0 0-16.364 8.182 8.182 0 0 0 0 16.364Z" fill="#F88E0D"/><path d="M10.181 15.09v-1.454h-.727v1.455h-.91v-1.455h-2v-1.09H8V7.09H6.545V6h2V4.363h.909V6h1.855c.327 0 .654.036.981.127.273.073.51.2.728.382.2.163.363.363.454.6.11.254.164.527.164.8 0 .2-.036.4-.11.582a1.531 1.531 0 0 1-.726.854 1.384 1.384 0 0 1-.546.182v.09a1.856 1.856 0 0 1 1.6 1.146c.09.219.127.455.127.691 0 .31-.054.618-.181.91-.11.272-.291.508-.528.69-.236.2-.527.346-.818.437-.345.109-.71.163-1.09.145h-.274v1.455h-.909Zm-.727-2.545h1.364c.363.018.709-.073 1.018-.273a1 1 0 0 0 .345-.818.912.912 0 0 0-.363-.8c-.31-.2-.673-.29-1.037-.272H9.454v2.163Zm0-3.454h1.2a1.75 1.75 0 0 0 1-.255.865.865 0 0 0 .345-.745c.019-.273-.109-.546-.309-.746a1.33 1.33 0 0 0-.89-.273H9.454v2.019ZM10.181 6V4.363h.91V6h-.91Z" fill="#fff"/></svg>