<svg viewBox="0 0 20 17" fill="none" xmlns="http://www.w3.org/2000/svg">
  <path
    d="M8.615 5.75135C5.46572 10.7476 1.74353 11.4459 1.90735e-05 11.3423V16.0015C2.87168 15.6909 8.15348 14.6037 11.3841 9.63396C14.2109 5.28543 17.8453 4.19829 19.6914 4.19829V0.00506526C17.1274 -0.0467031 11.8456 0.626088 8.615 5.75135Z"
    fill="url(#paint0_linear_3072_43925)" />
  <path
    d="M11.385 5.69456C14.5343 10.6435 18.2565 11.3352 20 11.2327V15.8478C17.1283 15.5401 11.8465 14.4632 8.6159 9.54047C5.78911 5.23304 2.15466 4.15618 0.308594 4.15618V0.00259905C2.87258 -0.0486799 8.15438 0.617751 11.385 5.69456Z"
    fill="#2A66FF" />
  <defs>
    <linearGradient id="paint0_linear_3072_43925" x1="20.1529" y1="1.84848" x2="0.307861" y2="14.4634"
      gradientUnits="userSpaceOnUse">
      <stop stop-color="#2A66FF" />
      <stop offset="0.505208" stop-color="#174EDB" />
      <stop offset="1" stop-color="#2A66FF" />
    </linearGradient>
  </defs>
</svg>