<svg viewBox="0 0 19 14" fill="none" xmlns="http://www.w3.org/2000/svg"><path d="M1.85 14s8.052-8.067 9.105-9.105c1.053-1.039 2.988-1.31 3.983-.285.996 1.025 1.238 2.775.427 3.7-.81.924-1.138 1.294-1.422 1.565-.285.27-.811.74-1.537.128-.256-.214-.427-.37-.427-.37l-2.305 1.664s1.252 1.238 1.836 1.878c.583.64 1.806 1.039 2.717.256.91-.782 1.508-1.38 2.846-2.845 1.337-1.466 2.945-5.293 0-7.825-2.946-2.533-6.275-1.708-8.11.142C7.128 4.753.825 11.027.569 11.297c-.256.27-.441 1.01 0 1.423.44.413 1.28 1.28 1.28 1.28Z" fill="#53B7EF"/><path d="M0 1.48S.726.74 1.138.342c.413-.399 1.11-.512 1.565 0 .456.512 9.533 9.532 9.533 9.532l-1.85 2.134L0 1.48Z" fill="url(#a)"/><defs><linearGradient id="a" x1="5.5" y1="4.5" x2="10" y2="9.5" gradientUnits="userSpaceOnUse"><stop stop-color="#4496F7"/><stop offset="1" stop-color="#53B7EF"/></linearGradient></defs></svg>