<svg width="200" height="200" fill="none" xmlns="http://www.w3.org/2000/svg"><path fill-rule="evenodd" clip-rule="evenodd" d="M70 0C31.34 0 0 31.34 0 70v60c0 38.66 31.34 70 70 70h60c38.66 0 70-31.34 70-70V70c0-38.66-31.34-70-70-70H70ZM57.341 68.352c-17.736 0-21.499-12.235-21.163-18.352H16.023c-.504 12.896 7.055 38.688 41.318 38.688V112c0 23.954 17.734 44.446 41.682 45 24.479.566 43.659-20.515 43.659-45V88.688c34.263 0 41.822-25.792 41.318-38.688h-20.155c.336 6.117-3.427 18.352-21.163 18.352V50h-20.659v18.352H78V50H57.341v18.352ZM78.023 87h44v27c0 12.15-9.85 22-22 22s-22-9.85-22-22V87Z" fill="#5AC096"/></svg>