<svg width="20" height="20" viewBox="0 0 20 20" fill="none" xmlns="http://www.w3.org/2000/svg">
<g clip-path="url(#clip0_118_366)">
<path d="M2.12568 8.06245C1.78863 8.83954 2.15377 9.74771 2.93086 10.0754C3.1462 10.169 3.38026 10.2065 3.62369 10.1971H4.16672L5.71154 4.79492H3.0713L2.12568 8.06245Z" fill="#D62817"/>
<path d="M16.7131 6.88366C16.0016 5.46055 14.7564 4.77709 12.9962 4.77709H9.71932L8.18386 10.2074H10.5151C10.8896 10.1512 11.2548 10.3478 11.4046 10.6942C11.5731 11.2185 11.5544 11.7896 11.3578 12.3139C11.208 12.9506 10.899 13.5404 10.459 14.0273C10.1313 14.3737 9.68187 14.5703 9.20438 14.5609C8.81115 14.6078 8.43665 14.3831 8.28685 14.0179C8.13705 13.4562 8.1745 12.857 8.38984 12.3139L11.2454 2.23984C11.4327 1.70617 11.3578 1.1257 11.0394 0.657568C10.7211 0.217528 10.1968 -0.0258979 9.65378 0.00218969H6.47988L2.71614 13.2689C0.656377 20.5249 7.9498 19.9912 7.9498 19.9912C7.9498 19.9912 14.5878 20.141 16.7787 12.445C17.4153 10.1793 17.3966 8.30677 16.7131 6.88366Z" fill="#EC7000"/>
<path d="M16.7779 12.4164C17.4239 10.1694 17.4052 8.30628 16.7124 6.89254C16.0008 5.47879 14.7556 4.80469 12.9955 4.80469H10.5237L8.98828 10.2069H10.505C10.8795 10.1507 11.2447 10.3473 11.3945 10.6844C11.563 11.2087 11.5443 11.7704 11.3476 12.2854" fill="url(#paint0_linear_118_366)"/>
</g>
<defs>
<linearGradient id="paint0_linear_118_366" x1="13.9232" y1="10.2577" x2="12.0966" y2="7.31317" gradientUnits="userSpaceOnUse">
<stop stop-color="#D62616" stop-opacity="0"/>
<stop offset="1" stop-color="#D62616"/>
</linearGradient>
<clipPath id="clip0_118_366">
<rect width="20" height="20" fill="white"/>
</clipPath>
</defs>
</svg>
