<svg width="200" height="200" fill="none" xmlns="http://www.w3.org/2000/svg"><path d="M6.463 137.656c-6.234-25.187 18.953-35.661 30.923-16.21 11.637 17.124 32.17 51.372 80.299 51.372 36.309 0 63.508-19.452 72.569-29.177C169.057 181.795 134.293 200 97.984 200c-45.386 0-83.54-35.91-91.521-62.344Zm186.971-75.312c6.234 25.187-18.953 35.661-30.923 16.21-11.637-17.124-32.169-51.372-80.299-51.372-36.31 0-63.508 19.451-72.569 29.177C30.84 18.205 65.603 0 101.913 0c45.386 0 83.541 35.91 91.521 62.344Z" fill="#0084FF"/><path d="M99.48 165.337c19.202-.416 64.988-12.818 94.514-59.103 6.733 49.876-70.075 66.393-94.513 59.103Zm.937-130.674c-19.203.416-64.988 12.818-94.514 59.103C-.83 43.89 75.978 27.373 100.417 34.663Z" fill="#FD8F1B"/><path fill-rule="evenodd" clip-rule="evenodd" d="M146.363 99.75c0 25.893-20.99 46.884-46.883 46.884-25.892 0-46.882-20.991-46.882-46.883 0-25.893 20.99-46.883 46.882-46.883 25.893 0 46.883 20.99 46.883 46.883ZM78.751 70.872H71.8v10.095h6.95l-.249 37.07h-6.95v10.096h6.95v4.038h9.185v-4.038h14.647v4.038h9.682v-4.038c4.716 0 14.398-5.805 14.398-16.91 0-7.481-4.738-11.72-4.738-11.72s4.987-3.99 4.987-11.721c0-11.105-9.681-16.91-14.398-16.91v-4.038h-9.682v4.038H87.936v-4.038H78.75v4.038Zm10.256 9.927h21.695a7.232 7.232 0 0 1 0 14.464H89.007V80.798Zm0 23.441h21.695a7.232 7.232 0 0 1 0 14.464H89.007V104.24Z" fill="#0084FF"/></svg>