<svg width="200" height="200" viewBox="0 0 200 200" fill="none" xmlns="http://www.w3.org/2000/svg">
<path d="M6.46304 137.656C0.228626 112.469 25.4156 101.995 37.3857 121.446C49.0233 138.57 69.5553 172.818 117.685 172.818C153.994 172.818 181.193 153.366 190.254 143.641C169.057 181.795 134.293 200 97.9842 200C52.5977 200 14.4431 164.09 6.46304 137.656Z" fill="#0084FF"/>
<path d="M193.434 62.3442C199.668 87.5313 174.481 98.0051 162.511 78.5537C150.874 61.4298 130.342 27.1821 82.212 27.1821C45.9028 27.1821 18.7041 46.6335 9.64344 56.3592C30.8404 18.2046 65.6035 8.02921e-05 101.913 8.34663e-05C147.299 8.74341e-05 185.454 35.9103 193.434 62.3442Z" fill="#0084FF"/>
<path d="M99.4805 165.337C118.682 164.921 164.468 152.519 193.994 106.234C200.727 156.11 123.919 172.627 99.4805 165.337Z" fill="#FD8F1B"/>
<path d="M100.417 34.6634C81.2145 35.079 35.429 47.4813 5.90279 93.7656C-0.830371 43.8903 75.9776 27.3733 100.417 34.6634Z" fill="#FD8F1B"/>
<path fill-rule="evenodd" clip-rule="evenodd" d="M146.363 99.7507C146.363 125.643 125.373 146.634 99.4804 146.634C73.5878 146.634 52.5977 125.643 52.5977 99.7507C52.5977 73.8581 73.5878 52.8679 99.4804 52.8679C125.373 52.8679 146.363 73.8581 146.363 99.7507ZM78.7506 70.8711H71.7997V80.9663H78.7506L78.5012 118.036H71.5503V128.132H78.5012V132.17H87.6864V128.132H102.333V132.17H112.015V128.132C116.731 128.132 126.413 122.327 126.413 111.222C126.413 103.741 121.675 99.5013 121.675 99.5013C121.675 99.5013 126.662 95.5113 126.662 87.7806C126.662 76.6759 116.981 70.8711 112.264 70.8711V66.833H102.582V70.8711H87.9358V66.833H78.7506V70.8711ZM89.0066 80.7981H110.702C114.696 80.7981 117.934 84.0359 117.934 88.03C117.934 92.0241 114.696 95.2619 110.702 95.2619H89.0066V80.7981ZM89.0066 104.239H110.702C114.696 104.239 117.934 107.477 117.934 111.471C117.934 115.465 114.696 118.703 110.702 118.703H89.0066V104.239Z" fill="#0084FF"/>
</svg>
