<svg viewBox="0 0 20 20" fill="none" xmlns="http://www.w3.org/2000/svg"><g clip-path="url(#a)" fill="#454FBC"><path d="M11.624 9.917h.125a.791.791 0 0 0 .792-.792v-.75a.791.791 0 0 0-.792-.792H11V6.375h-.708v1.208h-.917V6.375h-.708v1.208H7.583a.18.18 0 0 0-.167.167v4.417a.18.18 0 0 0 .167.166h1.083v1.084h.708v-1.084h.917v1.084h.708v-1.084h.625a.943.943 0 0 0 .959-.958v-.542c.041-.5-.417-.916-.959-.916ZM8.458 8.375h2.75c.208 0 .375.167.375.375v.417a.373.373 0 0 1-.375.375h-2.75V8.375Zm3.166 2.792c0 .25-.166.416-.416.416h-2.75v-1.25h2.75c.25 0 .416.167.416.417v.417Z"/><path d="M10 0v.708c5.125 0 9.292 4.167 9.292 9.292S15.125 19.292 10 19.292.708 15.125.708 10H0c0 5.542 4.458 10 10 10s10-4.458 10-10S15.542 0 10 0Z"/><path d="M17.042 10c0 3.875-3.166 7.041-7.041 7.041-3.875 0-7.042-3.166-7.042-7.041 0-3.875 3.125-7 7-7.042v-.75c-4.292.042-7.75 3.542-7.75 7.833.042 4.292 3.542 7.75 7.833 7.75 4.292-.041 7.75-3.5 7.75-7.791h-.75Z"/><path d="M10 4.167a5.87 5.87 0 0 0-4.125 1.708l.5.5c2.042-1.958 5.292-1.833 7.25.208 1.875 1.958 1.875 5.042 0 7.042l.5.5a5.81 5.81 0 0 0 0-8.25A5.87 5.87 0 0 0 10 4.167Zm3.625 9.458.5.5-.5-.5Zm-7.75-7.75.5.5-.5-.5Z"/></g><defs><clipPath id="a"><path fill="#fff" d="M0 0h20v20H0z"/></clipPath></defs></svg>