<svg width="200" height="200" fill="none" xmlns="http://www.w3.org/2000/svg"><path fill-rule="evenodd" clip-rule="evenodd" d="M20.842 189.417h11.585v7.347H20.842v-7.347Zm144.757-50.712c0 9.774-4.725 17.12-11.683 20.81-6.958 3.689-16.764 5.792-33.398 5.792H19.385v-4.822h100.647c15.34 0 25.664-2.459 30.745-5.242 5.566-3.042 9.353-10.421 9.353-16.57 0-9.612-6.473-14.692-11.392-17.605-2.492-1.489-10.777-5.21-32.621-5.21H77.735v-4.822h39.288c24.628 0 29.838 2.427 35.825 6.019 6.375 3.851 12.751 10.712 12.751 21.65Zm-44.531-76.019H86.117v4.078h34.951v-4.078ZM49.774 50.291h72.686v4.078H49.774V50.29Zm25.275 12.395H31.165v4.078H75.05v-4.078ZM44.499 34.92h19.158v3.495H44.5V34.92Zm34.173 140.29h-46.31v5.081H78.64v-5.081h.032Zm-46.31-32.297h49.19v4.239h-49.19v-4.239Zm26.31-15.146h-16.18v4.239h16.181v-4.239Zm31.877 15.437h31.813v3.624H90.55v-3.624Zm32.136-15.437H67.994v4.239h54.692v-4.239Zm39.094-64.434a47.377 47.377 0 0 1-8.123 26.376 62.88 62.88 0 0 0-2.039-1.133 36.77 36.77 0 0 0 10.162-25.243Zm-1.133 31.1-.259-.194c6.085-8.737 9.094-19.385 9.094-31.877 0-18.576-6.375-33.106-19.126-43.657-12.718-10.55-30.259-15.792-52.621-15.792h-55.63v7.767H96.73c18.997 0 35.923 4.24 46.667 12.977 10 8.155 13.657 15.178 16.57 25.663-2.978-9.579-9.968-15.728-14.304-19.352-7.606-6.376-17.055-10.874-42.816-10.874H59.935v7.573h41.942c21.974 0 30.065 2.718 37.444 8.187 9.482 7.023 15.339 15.405 15.339 27.476 0 10.906-3.818 16.731-10.259 22.783a46.91 46.91 0 0 0-2.265-.841l.712-.389c6.958-3.85 11.78-11.197 11.78-21.585 0-11.327-6.473-18.382-12.848-22.363-5.955-3.721-11.618-6.246-35.793-6.246H75.146v5.049h29.967c21.845 0 30.097 3.883 32.622 5.404 4.919 3.01 11.391 8.22 11.391 18.22 0 6.376-3.754 14.046-9.32 17.185a30.452 30.452 0 0 1-5.696 2.427 110.48 110.48 0 0 0-25.243-2.718H71.651v7.767h36.181c18.997 0 36.181 3.916 46.667 12.977a52.847 52.847 0 0 1 16.569 25.663c-2.945-9.579-9.029-15.372-14.304-19.352-7.961-6.02-17.087-10.874-42.848-10.874H55.599v7.573h57.378c21.975 0 30.033 2.718 37.444 8.187 9.482 7.023 15.243 15.405 15.243 27.476 0 11.651-5.858 20.162-15.373 27.185-9.741 7.184-24.595 7.378-30.647 7.378H87.767v7.67h23.819c19.935 0 33.269-1.715 44.79-10.259 10.809-8.026 16.569-18.446 16.569-31.877a47.49 47.49 0 0 1-4.531 20.874 47.28 47.28 0 0 1-13.236 16.731c-10.906 9.03-30.388 13.01-49.87 13.01H42.557v7.702h63.171c23.528 0 41.877-5.113 55.081-15.339 13.204-10.227 19.806-24.564 19.806-43.075-.032-18.608-6.44-33.139-19.191-43.657l-.777-.582Z" fill="#1F2020"/></svg>