<svg width="200" height="200" fill="none" xmlns="http://www.w3.org/2000/svg"><g clip-path="url(#a)"><path fill-rule="evenodd" clip-rule="evenodd" d="m125.096 187.448-18.84 10.88a12.51 12.51 0 0 1-12.504.008l-.008.016-37.88-21.872a13.679 13.679 0 0 1-.672-.416L17.96 154.568c-4-2.32-6.24-6.52-6.232-10.84h-.024V99.984c0-.256.008-.512.024-.76v-6.56l25.024-14.448v21.008c.016.264.024.528.024.792v36.512l88.32 50.92Z" fill="url(#b)"/><path fill-rule="evenodd" clip-rule="evenodd" d="M163.096 34.496 182.04 45.44c4 2.32 6.24 6.52 6.232 10.84h.024v43.744c0 .256-.008.504-.024.76v42.936a12.519 12.519 0 0 1-6.256 10.864L137.8 180.112l-25.032-14.456 50.48-29.144-.152-102.016Z" fill="url(#c)"/><path fill-rule="evenodd" clip-rule="evenodd" d="m106.256 1.656 37.88 21.864c.232.136.456.272.672.416l5.576 3.216v28.896l-18.088-10.44a13.738 13.738 0 0 1-.672-.36L99.976 26.976 11.728 77.984V56.288a12.519 12.519 0 0 1 6.256-10.864L93.744 1.68a12.51 12.51 0 0 1 12.504-.008l.008-.016Z" fill="url(#d)"/><path d="M99.856 151.544c-10.176 0-19.392-4.128-26.064-10.8-6.672-6.672-10.8-15.888-10.8-26.064 0-16.76.08-33.464.016-50.432L84.88 51.624l-.232 29.24-.008.232a36.755 36.755 0 0 1 15.216-3.28c10.176 0 19.392 4.128 26.064 10.8 6.672 6.672 10.8 15.888 10.8 26.064s-4.128 19.392-10.8 26.064c-6.672 6.672-15.888 10.8-26.064 10.8Zm-10.792-26.072a15.218 15.218 0 0 0 10.792 4.472c4.216 0 8.032-1.704 10.792-4.472a15.218 15.218 0 0 0 4.472-10.792c0-4.216-1.712-8.032-4.472-10.792a15.218 15.218 0 0 0-10.792-4.472 15.218 15.218 0 0 0-10.792 4.472 15.218 15.218 0 0 0-4.472 10.792c0 4.216 1.704 8.032 4.472 10.792Z" fill="url(#e)"/></g><defs><linearGradient id="b" x1="68.399" y1="200.006" x2="68.399" y2="78.219" gradientUnits="userSpaceOnUse"><stop stop-color="#E9AF21"/><stop offset="1" stop-color="#F8C42F"/></linearGradient><linearGradient id="c" x1="150.535" y1="180.126" x2="150.535" y2="34.514" gradientUnits="userSpaceOnUse"><stop stop-color="#E9AF21"/><stop offset="1" stop-color="#F8C42F"/></linearGradient><linearGradient id="d" x1="81.044" y1="77.981" x2="81.044" y2="-.006" gradientUnits="userSpaceOnUse"><stop stop-color="#E9AF21"/><stop offset="1" stop-color="#F8C42F"/></linearGradient><linearGradient id="e" x1="99.857" y1="151.546" x2="99.857" y2="51.628" gradientUnits="userSpaceOnUse"><stop stop-color="#E9AF21"/><stop offset="1" stop-color="#F8C42F"/></linearGradient><clipPath id="a"><path fill="#fff" d="M0 0h200v200H0z"/></clipPath></defs></svg>