<svg width="200" height="201" fill="none" xmlns="http://www.w3.org/2000/svg"><path d="m109.621 111.914 20.834-13.225c17.117 7.488 21.505 22.695 21.505 39.461v1.015c0 13.521 0 24.525-3.477 35.162-7.128 21.776-25.828 26.331-48.611 26.427H48v-49.722l29.36-18.636v44.52c2.366-.064 4.987-.056 7.728-.04 5.314.032 11.092.064 16.342-.519 17.925-1.966 17.549-20.075 17.318-31.406a191.378 191.378 0 0 1-.048-3.333v-.695c0-9.63.008-23.367-9.079-29.009ZM77.361 25.12c.958.056 2.509-.064 4.442-.224 7.433-.599 20.538-1.646 27.475 5.73 6.785 7.224 6.617 18.06 6.505 25.237a65.77 65.77 0 0 0 0 4.131c0 2.957-.248 5.546-.719 7.84l32.508-20.626c0-19.802-3.236-46.454-57.537-46.454H48v109.658l29.36-18.644V25.12Z" fill="#000"/><path d="M48 110.413v40.628l77.452-49.163c13.666-8.67 22.081-24.701 22.081-42.05V47.24L48 110.413Z" fill="#F80"/></svg>