<svg width="20" height="20" viewBox="0 0 20 20" fill="none" xmlns="http://www.w3.org/2000/svg">
<g clip-path="url(#clip0_117_352)">
<path fill-rule="evenodd" clip-rule="evenodd" d="M15.3786 0.958269C14.4599 0.450324 13.8694 0.244141 13.8694 0.244141C13.8694 0.244141 12.604 0.9213 11.9263 1.32735C11.163 1.78511 9.93126 2.68528 9.93126 2.68528C9.93126 2.68528 8.69984 1.78511 7.9362 1.32735C7.25884 0.9213 5.99376 0.244141 5.99376 0.244141C5.99376 0.244141 5.40329 0.450324 4.48454 0.958269C3.56579 1.46621 2.96094 2.07635 2.96094 2.07635C2.96094 2.07635 5.24818 3.87579 6.45146 4.92535C7.65443 5.9746 9.93157 8.05597 9.93157 8.05597C9.93157 8.05597 12.2087 5.9746 13.4117 4.92535C14.6147 3.87579 16.9019 2.07635 16.9019 2.07635C16.9019 2.07635 16.2974 1.46621 15.3786 0.958269Z" fill="#2E4A9D"/>
<path fill-rule="evenodd" clip-rule="evenodd" d="M4.48423 19.043C5.40298 19.551 5.99346 19.7568 5.99346 19.7568C5.99346 19.7568 7.25884 19.08 7.9362 18.6739C8.69953 18.2162 9.93126 17.316 9.93126 17.316C9.93126 17.316 11.1627 18.2162 11.9263 18.6739C12.6037 19.08 13.8691 19.7568 13.8691 19.7568C13.8691 19.7568 14.4598 19.5507 15.3783 19.043C16.297 18.5351 16.9016 17.9249 16.9016 17.9249C16.9016 17.9249 14.6147 16.1255 13.4114 15.0759C12.2084 14.0267 9.93126 11.9453 9.93126 11.9453C9.93126 11.9453 7.65412 14.0267 6.45115 15.0759C5.24787 16.1255 2.96094 17.9249 2.96094 17.9249C2.96094 17.9249 3.56548 18.5351 4.48423 19.043Z" fill="#2E4A9D"/>
<path fill-rule="evenodd" clip-rule="evenodd" d="M19.135 15.3573C19.6521 14.4547 19.862 13.8746 19.862 13.8746C19.862 13.8746 19.1727 12.6315 18.7593 11.9661C18.2934 11.2159 17.3771 10.0061 17.3771 10.0061C17.3771 10.0061 18.2934 8.79639 18.7593 8.04619C19.1727 7.38076 19.862 6.13764 19.862 6.13764C19.862 6.13764 19.6518 5.55756 19.135 4.65499C18.618 3.75241 17.9969 3.1582 17.9969 3.1582C17.9969 3.1582 16.1652 5.40518 15.0969 6.58728C14.0288 7.76908 11.9102 10.0061 11.9102 10.0061C11.9102 10.0061 14.0288 12.2432 15.0969 13.425C16.1652 14.6071 17.9969 16.8538 17.9969 16.8538C17.9969 16.8538 18.618 16.2599 19.135 15.3573Z" fill="#2E4A9D"/>
<path fill-rule="evenodd" clip-rule="evenodd" d="M0.726618 4.65499C0.209878 5.55757 0 6.13764 0 6.13764C0 6.13764 0.688986 7.38076 1.10232 8.04619C1.56827 8.79639 2.48457 10.0061 2.48457 10.0061C2.48457 10.0061 1.56827 11.2159 1.10232 11.9661C0.688986 12.6315 0 13.8746 0 13.8746C0 13.8746 0.209878 14.4547 0.726618 15.3573C1.24366 16.2599 1.86473 16.8538 1.86473 16.8538C1.86473 16.8538 3.69642 14.6068 4.76478 13.425C5.83283 12.2432 7.95149 10.0058 7.95149 10.0058C7.95149 10.0058 5.83283 7.76908 4.76478 6.58728C3.69642 5.40518 1.86473 3.1582 1.86473 3.1582C1.86473 3.1582 1.24366 3.75241 0.726618 4.65499Z" fill="#2E4A9D"/>
</g>
<defs>
<clipPath id="clip0_117_352">
<rect width="20" height="20" fill="white"/>
</clipPath>
</defs>
</svg>
