<svg width="20" height="20" viewBox="0 0 20 20" fill="none" xmlns="http://www.w3.org/2000/svg">
<g clip-path="url(#clip0_117_374)">
<mask id="mask0_117_374" style="mask-type:luminance" maskUnits="userSpaceOnUse" x="0" y="0" width="70" height="20">
<path d="M70 0H0V20H70V0Z" fill="white"/>
</mask>
<g mask="url(#mask0_117_374)">
<path fill-rule="evenodd" clip-rule="evenodd" d="M18.0129 10.8814C17.0457 9.71021 15.6069 8.93407 13.9823 8.83407C13.9525 8.83228 13.9289 8.80793 13.9289 8.7785C13.9289 8.752 13.9477 8.72964 13.9737 8.72407C15.987 8.29557 17.4958 6.52741 17.4958 4.4116C17.4958 3.08812 16.9057 1.90111 15.9709 1.09261C15.5852 0.7585 15.1402 0.489099 14.654 0.301459C14.15 0.106761 13.6013 0 13.0276 0L2.85631 1.53576e-07C2.06733 1.65489e-07 1.42773 0.639594 1.42773 1.42857L1.42773 12.9821C2.39019 11.5299 3.44261 10.1408 4.57754 8.82293C5.43663 7.825 6.34279 6.86798 7.29244 5.95507V5.95389L6.07112 4.73806L7.78305 4.46336L8.57688 2.94077L9.37045 4.46336L11.0824 4.73806L9.86109 5.95389L10.1253 7.6465L8.57688 6.87504L8.56321 6.8818C8.13008 7.49857 7.73986 8.14707 7.397 8.82293C6.30556 10.9729 5.69132 13.3998 5.69132 15.9685C5.69132 17.3052 5.85754 18.6031 6.17091 19.844L6.19117 19.9201C6.21708 20.0178 6.35322 20.0289 6.39492 19.9366L6.42798 19.8636C6.96834 18.7093 7.64453 17.6296 8.43571 16.6444C9.15481 15.7485 9.96952 14.9304 10.8647 14.2054L10.8673 14.1889L9.64573 12.9731L11.3577 12.6984L12.1515 11.1758L12.945 12.6984L13.0469 12.7149L14.6569 12.9731L13.4357 14.1889L13.6999 15.8815L12.1783 15.1233C11.4359 15.5939 10.9442 16.4161 10.9442 17.352C10.9442 18.8137 12.1444 19.9989 13.6251 19.9989C13.6495 19.9989 13.6737 19.9986 13.6978 19.9981C13.7094 19.9981 13.7213 19.9981 13.7329 19.9981H13.7422C13.7535 19.9978 13.7645 19.9975 13.7759 19.9972C13.7997 19.9966 13.8232 19.996 13.8464 19.9951C16.8697 19.8801 19.2849 17.4241 19.2849 14.4112C19.2849 13.0724 18.8079 11.8436 18.0129 10.8814Z" fill="#FF6201"/>
</g>
</g>
<defs>
<clipPath id="clip0_117_374">
<rect width="20" height="20" fill="white"/>
</clipPath>
</defs>
</svg>
