<svg viewBox="0 0 20 14" fill="none" xmlns="http://www.w3.org/2000/svg"><path d="m13.87 6.696.303-.474c.243.28.547.388.948.388.425 0 .887-.194.887-.814V5.19c-.231.304-.583.486-.96.498-.766 0-1.325-.547-1.325-1.531 0-.96.56-1.531 1.325-1.531.377 0 .741.182.96.486v-.413h.644v3.074c0 1.081-.802 1.373-1.531 1.373-.51-.012-.887-.121-1.252-.45Zm.522-2.54c0 .571.328.96.838.96a.967.967 0 0 0 .765-.401V3.597a.967.967 0 0 0-.765-.4c-.51 0-.838.376-.838.959Zm2.916.024c0-.862.632-1.567 1.519-1.567.899 0 1.47.692 1.47 1.628V4.4h-2.309a.91.91 0 0 0 .948.826c.316 0 .62-.121.85-.328l.292.425c-.34.292-.765.45-1.215.438-.887 0-1.555-.632-1.555-1.58Zm.68-.243h1.69a.79.79 0 0 0-.803-.79h-.036a.818.818 0 0 0-.85.79Zm-11.093.827c0-.693.546-.972 1.045-.972.4 0 .753.133.96.388v-.45c0-.352-.28-.558-.705-.558-.34 0-.656.133-.887.377l-.268-.45c.34-.316.79-.498 1.252-.486.668 0 1.24.28 1.24 1.081v1.98h-.645V5.36a1.277 1.277 0 0 1-.96.4c-.473 0-1.032-.327-1.032-.995Zm.656.012c0 .316.267.534.632.534a.905.905 0 0 0 .717-.303v-.45a.84.84 0 0 0-.717-.304c-.353-.012-.632.195-.632.523ZM.297 4.18c0-.899.632-1.567 1.543-1.567.583 0 .936.243 1.142.535l-.425.4a.792.792 0 0 0-.693-.352c-.546 0-.899.413-.899.996 0 .584.365.997.9.997a.82.82 0 0 0 .692-.353l.425.401c-.206.28-.559.535-1.142.535C.94 5.76.297 5.092.297 4.18ZM12.41 5.687V3.816c0-.462-.23-.62-.595-.62a1.003 1.003 0 0 0-.766.401v2.09h-.644V2.698h.644v.413a1.446 1.446 0 0 1 1.057-.486c.644 0 .96.352.96.96v2.102h-.656Zm-6.829 0V3.804c0-.462-.243-.608-.607-.608a1.003 1.003 0 0 0-.766.401v2.09h-.644V.948h.644v2.15a1.467 1.467 0 0 1 1.058-.485c.643 0 .96.34.96.948v2.114l-.645.012Z" fill="#7E8A9C"/><path d="M6.422 10.693c0-1.701 1.215-2.953 2.928-2.953 1.713 0 2.928 1.252 2.928 2.953 0 1.7-1.215 2.953-2.928 2.953-1.713 0-2.928-1.252-2.928-2.953Zm1.033 0c0 1.178.74 2.066 1.895 2.066 1.154 0 1.896-.888 1.896-2.066 0-1.179-.742-2.066-1.896-2.066s-1.895.875-1.895 2.066Zm9.987 2.855-1.117-4.216-1.106 4.216h-1.07l-1.64-5.723h1.118l1.118 4.411 1.179-4.41h.802l1.178 4.41 1.106-4.41h1.118L18.5 13.547h-1.058Zm-12.952 0L1.5 9.466v4.082H.493V7.825h1.033L4.453 11.8V7.825h1.009v5.723H4.49Z" fill="#60CD80"/></svg>