<svg viewBox="0 0 20 20" fill="none" xmlns="http://www.w3.org/2000/svg"><path fill-rule="evenodd" clip-rule="evenodd" d="M9.464 16.27c-.14.14-.326.28-.466.42-.327.233-.7.466-1.026.652-.373.187-.746.327-1.119.467s-.792.233-1.165.326a2.73 2.73 0 0 1-.606.093l-.28.047h-.28l-.28.046H3.31c-.606 0-1.212-.046-1.772-.093.047-.093.14-.186.187-.28.186-.28.373-.606.513-.932.28-.653.513-1.305.7-1.958.186-.653.372-1.259.605-1.911.233-.606.513-1.26.84-1.819-.234.234-.42.513-.607.793-.186.28-.373.56-.513.886a13.403 13.403 0 0 0-.839 1.865c-.233.606-.466 1.258-.792 1.818-.28.56-.653 1.072-1.073 1.585L0 18.88l.7.093c.838.14 1.678.187 2.563.187.234 0 .42 0 .653-.047l.28-.047.326-.046c.233-.047.42-.094.653-.094.233-.046.42-.093.653-.14.186-.046.42-.14.606-.186.186-.093.42-.14.606-.233.373-.186.792-.373 1.119-.653.372-.233.699-.512.979-.839.28-.326.559-.652.745-1.025l-.42.42Zm4.708-11.375c.234-.233.56-.373.886-.373.327 0 .653.14.886.373.513.513.513 1.305 0 1.772-.513.512-1.305.512-1.772 0a1.274 1.274 0 0 1-.373-.886c0-.327.14-.653.373-.886Zm.886 2.937c.513 0 1.026-.186 1.445-.606a2.054 2.054 0 0 0 0-2.89 2.054 2.054 0 0 0-2.89 0 2.045 2.045 0 0 0-.606 1.445c0 .56.233 1.072.606 1.445.42.42.933.606 1.445.606Zm.606 2.937c-2.937 2.564-4.149 2.797-5.314 2.238l1.305-1.678c.187-.234.326-.513.42-.84l.512-2.237-2.237.512c-.28.094-.606.234-.84.42l-1.678 1.305c-.56-1.212-.326-2.424 2.238-5.36 2.424-2.751 7.552-3.404 9.044-3.544-.046 1.585-.7 6.76-3.45 9.184Zm-1.958 3.963c-.046.14-.093.233-.186.28-.326.233-.793.512-1.212.745v-.093c.186-.792.186-1.399 0-1.865a6.741 6.741 0 0 0 1.818-.932c-.14.7-.326 1.445-.42 1.865Zm-4.568-1.445c-.187.233-.467.326-.746.326h-.653l2.284-2.75-2.75 2.284v-.653c0-.28.093-.56.326-.746l2.424-1.911c.14-.14.327-.233.513-.28l.98-.233-.234.979c-.047.186-.14.373-.28.513l-1.864 2.47ZM5.175 8.53h-.093c.233-.42.559-.885.746-1.212.093-.093.186-.186.28-.186.419-.093 1.165-.28 1.817-.42-.466.7-.792 1.259-.932 1.818-.42-.233-1.026-.233-1.818 0ZM19.58.886c-.28 0-6.993.326-10.023 3.823-.326.373-.606.699-.84 1.025-.465.14-2.004.56-2.703.7a1.144 1.144 0 0 0-.793.512c-.466.7-1.305 2.098-1.305 2.145l-.653.979 1.073-.466c.699-.327 1.911-.606 2.33-.373.047.046.14.093.14.326 0 .513.14.979.42 1.492l-.14.14c-.42.326-.652.839-.606 1.352v1.911h1.865a1.553 1.553 0 0 0 1.352-.606l.093-.14c.513.233.98.373 1.492.42.187 0 .28.093.326.14.28.42-.046 1.631-.373 2.33l-.466 1.073 1.026-.606c.046-.047 1.445-.84 2.144-1.306.28-.186.467-.466.513-.792.14-.7.56-2.238.7-2.704.326-.233.652-.56 1.025-.84 3.497-3.076 3.776-9.79 3.823-10.07V.933l-.42-.046Z" fill="#60CD80"/></svg>