<svg viewBox="0 0 19 21" fill="none" xmlns="http://www.w3.org/2000/svg"><path d="M12.724 7.89a3.833 3.833 0 0 0-5.45 0c-1.508 1.533-1.492 4.03.015 5.563a3.823 3.823 0 0 0 5.467.016c.025-.026.131-.145.318-.355l-1.818-1.852c-.187.221-.285.337-.296.347a1.3 1.3 0 0 1-1.86 0c-.512-.522-.512-1.37-.015-1.876a1.295 1.295 0 0 1 1.843.017l4.86 4.94c-1.33 1.958-3.561 3.2-5.966 3.2-3.976 0-7.214-3.312-7.214-7.39 0-4.078 3.238-7.39 7.214-7.39 2.325 0 4.457 1.142 5.788 2.985-.215.254-.763.89-1.644 1.907l1.793 1.82 2.977-3.417C17.196 2.85 13.718.5 9.822.5 4.42.5.043 4.986.043 10.5s4.377 10 9.78 10c2.452 0 4.488-.783 6.476-2.512 1.811-1.566 2.663-3.738 2.663-3.738l-6.238-6.36Z" fill="url(#keep_coinex_icon)"/><defs><linearGradient id="keep_coinex_icon" x1="18.962" y1="10.5" x2=".043" y2="10.5" gradientUnits="userSpaceOnUse"><stop stop-color="#22E6B8"/><stop offset="1" stop-color="#00C1CE"/></linearGradient></defs></svg>