<svg viewBox="0 0 20 14" fill="none" xmlns="http://www.w3.org/2000/svg"><path d="M4.629 10.852c.362-.977 1.085-1.772 2.025-2.279l1.592.904c.65.362.506 1.375-.073 1.7l-3.255 1.845c-.18.108-.434.036-.506-.145-.036-.036-.036-.072-.036-.145-.073-.614.036-1.265.253-1.88Z" fill="#E82424"/><path d="M9.729 6.62c0-.542-.29-1.049-.76-1.374L0 .146A8.519 8.519 0 0 0 4.231 7.2l4.015 2.278c.65.362.506 1.375-.072 1.7l1.012-.578a.974.974 0 0 0 .507-.868V8.573l.036-1.953Z" fill="#F3A100"/><path opacity=".2" d="m8.246 9.514-1.592-.905s1.013.868 1.41 1.302c.362.434.145 1.302.145 1.302.543-.325.688-1.338.037-1.7Z" fill="#000"/><path d="M15.371 3.112c-.361.977-1.085 1.772-2.025 2.279l-1.591-.905c-.651-.361-.507-1.374.072-1.7L15.082.943c.18-.108.434-.036.506.145.037.036.037.108.037.144a4.105 4.105 0 0 1-.254 1.881Z" fill="#E82424"/><path d="M10.271 7.38c0 .542.29 1.049.76 1.374l8.97 5.1c-.11-2.93-1.7-5.57-4.232-7.09l-4.015-2.278c-.65-.361-.506-1.374.073-1.7l-1.013.58a.974.974 0 0 0-.506.867v1.158L10.27 7.38Z" fill="#F3A100"/><path opacity=".2" d="m11.755 4.486 1.591.905s-1.013-.868-1.41-1.302c-.362-.434-.109-1.302-.109-1.302-.579.325-.723 1.338-.072 1.7Z" fill="#000"/></svg>