<svg width="20" height="20" viewBox="0 0 20 20" fill="none" xmlns="http://www.w3.org/2000/svg">
<g clip-path="url(#clip0_11007_14018)">
<ellipse cx="10" cy="10.0094" rx="10" ry="9.90291" fill="#F39C11"/>
<path d="M17.7896 14.4554C16.8143 16.2022 15.2801 17.5705 13.4337 18.3405C11.5872 19.1104 9.53546 19.2375 7.60809 18.7011C5.68073 18.1648 3.98957 16.9962 2.80626 15.383C1.62296 13.7699 1.01618 11.8058 1.08341 9.80636C1.15063 7.80689 1.88795 5.88804 3.17692 4.35802C4.4659 2.828 6.23173 1.77563 8.19077 1.36993C10.1498 0.964239 12.1883 1.22877 13.979 2.12104C15.7696 3.01331 17.2083 4.48153 18.0641 6.28986L15.6448 7.43474C15.0458 6.16891 14.0387 5.14116 12.7852 4.51657C11.5318 3.89198 10.1048 3.70681 8.73352 3.9908C7.36219 4.27478 6.12611 5.01144 5.22383 6.08246C4.32154 7.15347 3.80542 8.49667 3.75837 9.8963C3.71131 11.2959 4.13605 12.6708 4.96437 13.8C5.79268 14.9291 6.97649 15.7472 8.32565 16.1226C9.6748 16.4981 11.111 16.4092 12.4035 15.8702C13.6961 15.3312 14.77 14.3734 15.4527 13.1506L17.7896 14.4554Z" fill="black"/>
<circle cx="9.99994" cy="10.113" r="3.92157" fill="white"/>
<circle cx="9.99994" cy="10.113" r="3.92157" fill="white"/>
<path d="M7.88262 6.80888C8.46216 6.43728 9.10977 6.23064 9.81565 6.19262C10.0892 6.17676 10.3959 6.17354 10.6485 6.29318C10.6442 6.29318 10.681 6.30974 10.73 6.32936C11.0361 6.45261 11.3034 6.64454 11.5077 6.88798C11.7567 7.18477 11.902 7.51038 11.9603 7.90282C11.9738 7.99603 11.9756 8.31121 11.9633 8.40258C11.9014 8.85083 11.7217 9.22426 11.4194 9.53638C11.1066 9.85892 10.6988 10.0631 10.2498 10.1226C10.2118 10.1281 10.11 10.1349 10.0242 10.1379C9.9383 10.1416 9.83589 10.1471 9.79725 10.1508C9.14166 10.2127 8.55783 10.6132 8.26162 11.2037C8.12363 11.4796 8.05924 11.7549 8.05985 12.0695C8.06046 12.2829 8.08806 12.4595 8.15123 12.6551C8.37262 13.3357 8.95094 13.8343 9.66233 13.9575C9.79935 13.9806 10.12 14.0268 10.3063 14.0268C10.1977 14.0366 9.78867 14.0366 9.68686 14.0268C9.1478 13.9741 8.76757 13.8711 8.29412 13.6497C8.06292 13.5418 7.77468 13.3597 7.55268 13.1824C6.79222 12.5735 6.27768 11.6979 6.12743 10.7573C6.08757 10.5058 6.07837 10.385 6.07837 10.1134C6.07837 9.89878 6.08144 9.83255 6.09983 9.66883C6.18017 8.94465 6.4727 8.24069 6.92898 7.66981C7.19882 7.33316 7.52446 7.03883 7.88262 6.80888Z" fill="black"/>
<path d="M9.90409 11.457C9.48032 11.5459 9.2528 12.0162 9.44659 12.4037C9.47848 12.4681 9.51221 12.5147 9.56618 12.5705C9.78941 12.8011 10.1402 12.8385 10.4107 12.6607C10.4726 12.6202 10.5542 12.538 10.5971 12.473C10.7253 12.2786 10.7418 12.0211 10.6388 11.8151C10.5431 11.6219 10.3647 11.4888 10.1506 11.4508C10.0924 11.4404 9.96787 11.4435 9.90409 11.457Z" fill="black"/>
<path d="M9.90409 7.37981C9.48032 7.46872 9.2528 7.93904 9.44659 8.32658C9.47848 8.39097 9.51221 8.43757 9.56618 8.49337C9.78941 8.72393 10.1402 8.76134 10.4107 8.58351C10.4726 8.54304 10.5542 8.46087 10.5971 8.39587C10.7253 8.20149 10.7418 7.94395 10.6388 7.73791C10.5431 7.54476 10.3647 7.41169 10.1506 7.37367C10.0924 7.36325 9.96787 7.36632 9.90409 7.37981Z" fill="white"/>
</g>
<defs>
<clipPath id="clip0_11007_14018">
<rect width="20" height="20" fill="white"/>
</clipPath>
</defs>
</svg>
