<svg viewBox="0 0 21 21" fill="none" xmlns="http://www.w3.org/2000/svg">
  <g clip-path="url(#clip0_3072_39028)">
    <path
      d="M20.0045 9.87725V10.1572C19.9935 10.2002 20.0025 10.2432 19.9995 10.2862V10.4212C20.0005 10.8162 19.9615 11.2082 19.8985 11.5982C19.8105 12.1472 19.6785 12.6852 19.5005 13.2112C19.3705 13.5952 19.2195 13.9702 19.0425 14.3352C18.8365 14.7622 18.6035 15.1732 18.3405 15.5672C18.1215 15.8942 17.8845 16.2072 17.6285 16.5072C17.4685 16.6952 17.3015 16.8762 17.1285 17.0522C16.9645 17.2202 16.7925 17.3802 16.6155 17.5342C16.3395 17.7752 16.0515 18.0022 15.7515 18.2132C15.4685 18.4112 15.1775 18.5942 14.8755 18.7632C14.2745 19.0992 13.6445 19.3692 12.9875 19.5742C12.5485 19.7112 12.1005 19.8172 11.6465 19.8922C11.3775 19.9372 11.1065 19.9742 10.8345 19.9892C10.6965 19.9972 10.5585 20.0022 10.4205 20.0012H10.3565C10.3365 20.0022 10.3185 20.0002 10.3045 19.9842C10.2675 19.9192 10.2465 19.8462 10.2195 19.7762C9.9375 19.0612 9.5755 18.3902 9.1385 17.7582C8.9175 17.4382 8.6775 17.1342 8.4205 16.8432C8.2395 16.6382 8.0525 16.4392 7.8555 16.2502C7.4585 15.8712 7.0345 15.5242 6.5825 15.2132C6.1655 14.9262 5.7295 14.6732 5.2745 14.4522C4.9265 14.2832 4.5685 14.1372 4.2035 14.0102C3.7525 13.8542 3.2935 13.7302 2.8245 13.6412C2.5315 13.5852 2.2375 13.5412 1.9405 13.5132C1.7485 13.4952 1.5555 13.4832 1.3635 13.4732C1.1255 13.4612 0.887501 13.4682 0.649502 13.4672C0.635502 13.4672 0.622501 13.4672 0.610501 13.4602C0.588502 13.4432 0.580501 13.4172 0.571501 13.3922C0.385502 12.8692 0.241502 12.3342 0.144502 11.7872C0.0975016 11.5212 0.0605016 11.2552 0.0345016 10.9862C0.0145016 10.7852 0.0115016 10.5842 0.00650158 10.3832C0.000501579 10.1762 0.00150158 9.97025 0.00350158 9.76325C0.00550158 9.57325 0.00550158 9.38325 0.0195016 9.19425C0.0365016 8.95725 0.0655016 8.72025 0.101502 8.48525C0.169502 8.04925 0.262502 7.61825 0.386502 7.19425C0.512502 6.76525 0.664502 6.34625 0.847502 5.93825C1.0905 5.39725 1.3745 4.87925 1.7075 4.38925C1.9345 4.05525 2.1795 3.73625 2.4455 3.43225C2.6125 3.24125 2.7825 3.05425 2.9635 2.87725C3.2755 2.57125 3.6035 2.28525 3.9525 2.02125C4.4045 1.67825 4.8815 1.37525 5.3855 1.11325C5.7925 0.901249 6.2115 0.71725 6.6435 0.56325C7.1085 0.397249 7.5835 0.267249 8.0675 0.17225C8.3515 0.11625 8.6375 0.0742495 8.9255 0.0432495C9.1675 0.0172495 9.4095 0.0102495 9.6525 0.00424951C9.8645 -0.000750494 10.0755 -0.000750494 10.2875 0.00124951C10.4675 0.00324951 10.6475 0.00224951 10.8265 0.0172495C11.1485 0.0432495 11.4685 0.0852495 11.7865 0.14225C12.2915 0.231249 12.7845 0.36125 13.2695 0.526249C13.5045 0.60625 13.7365 0.695249 13.9635 0.794249C13.9835 0.803249 14.0045 0.809249 14.0195 0.826249C14.0405 0.867249 14.0085 0.884249 13.9835 0.901249C13.8735 0.976249 13.7655 1.05525 13.6615 1.13825C13.5075 1.26025 13.3585 1.38825 13.2145 1.52225C12.7165 1.98125 12.2975 2.50625 11.9295 3.07225C11.6105 3.56225 11.3135 4.06625 11.0335 4.57925C10.8465 4.92325 10.6645 5.27025 10.4935 5.62225C10.4165 5.78125 10.3385 5.93925 10.2675 6.10125C10.2525 6.13425 10.2415 6.17025 10.2105 6.19425C10.1945 6.20225 10.1775 6.20025 10.1615 6.19425C9.9625 6.11725 9.7595 6.13025 9.5565 6.17125C9.3375 6.21425 9.1305 6.29325 8.9285 6.38525C8.6845 6.49725 8.4525 6.63125 8.2295 6.78125C8.0825 6.87925 7.9605 7.00525 7.8475 7.13825C7.3825 7.68325 7.0115 8.29125 6.6665 8.91725C6.5255 9.17225 6.3925 9.43225 6.2885 9.70525C6.2665 9.76325 6.2485 9.82125 6.2495 9.88425C6.2505 9.95525 6.2825 10.0072 6.3415 10.0462C6.4075 10.0892 6.4825 10.1092 6.5585 10.1152C6.7545 10.1292 6.9475 10.1152 7.1345 10.0472C7.2125 10.0192 7.2705 9.96325 7.3255 9.90525C7.5095 9.71025 7.6705 9.49525 7.8265 9.27725C8.0195 9.00825 8.2085 8.73525 8.3865 8.45625C8.4285 8.39025 8.4865 8.35225 8.5605 8.33125C8.7395 8.28025 8.9235 8.26625 9.1065 8.24025C9.1855 8.22925 9.2645 8.21325 9.3435 8.20725C9.3655 8.20525 9.3865 8.20025 9.4045 8.21925C9.4125 8.23325 9.4125 8.24825 9.4085 8.26225C9.3915 8.32025 9.3835 8.38125 9.3615 8.43825C9.3425 8.46625 9.3165 8.46125 9.2905 8.45125C9.1475 8.39625 9.0045 8.43925 8.9115 8.58425C8.8045 8.75025 8.6945 8.91525 8.5885 9.08225C8.4995 9.22325 8.5375 9.39525 8.6755 9.49025C8.7425 9.53625 8.8135 9.57725 8.8805 9.62325C8.9005 9.63725 8.9225 9.65025 8.9285 9.67825C8.9305 9.70325 8.9165 9.72325 8.9045 9.74225C8.6445 10.1442 8.4135 10.5632 8.2045 10.9932C7.9475 11.5202 7.7135 12.0582 7.5155 12.6112C7.3645 13.0322 7.2315 13.4572 7.1495 13.8972C7.1105 14.1062 7.0955 14.3162 7.1055 14.5282C7.1105 14.6272 7.1335 14.7222 7.1835 14.8102C7.2425 14.9132 7.3315 14.9632 7.4495 14.9672C7.5955 14.9722 7.7275 14.9232 7.8575 14.8632C8.0735 14.7642 8.2685 14.6302 8.4585 14.4892C8.6795 14.3252 8.8865 14.1452 9.0905 13.9602C9.2955 13.7742 9.4935 13.5812 9.6855 13.3822C9.9935 13.0612 10.2905 12.7302 10.5715 12.3862C10.8475 12.0482 11.1145 11.7022 11.3545 11.3382C11.3675 11.3192 11.3795 11.2992 11.4025 11.2892C11.4295 11.2812 11.4505 11.2962 11.4725 11.3082C11.5085 11.3282 11.5425 11.3542 11.5795 11.3722C11.7105 11.4362 11.8565 11.4022 11.9455 11.2862C11.9975 11.2182 12.0395 11.1452 12.0865 11.0742C12.1535 10.9712 12.2225 10.8682 12.2875 10.7642C12.3735 10.6252 12.3645 10.5052 12.2555 10.3802C12.2405 10.3622 12.2235 10.3462 12.2265 10.3192C12.2795 10.2562 12.3355 10.1962 12.4195 10.1742C12.4375 10.1842 12.4435 10.2013 12.4485 10.2192C12.5135 10.4622 12.6005 10.6992 12.6475 10.9462C12.6665 11.0472 12.6525 11.1392 12.5925 11.2312C12.3005 11.6832 12.0145 12.1392 11.7785 12.6242C11.7365 12.7112 11.6985 12.8002 11.6745 12.8942C11.6465 13.0042 11.6765 13.1092 11.7045 13.2142C11.7465 13.3672 11.8005 13.5162 11.9045 13.6412C11.9645 13.7132 12.0365 13.7662 12.1375 13.7462C12.2055 13.7332 12.2565 13.6882 12.3055 13.6422C12.4515 13.5022 12.5805 13.3472 12.7065 13.1902C13.0815 12.7232 13.4255 12.2352 13.7315 11.7202C13.8895 11.4532 14.0375 11.1812 14.1425 10.8882C14.1925 10.7492 14.2135 10.6042 14.2335 10.4592C14.2565 10.2872 14.2685 10.1152 14.2755 9.94225C14.2865 9.66425 14.2685 9.39025 14.1975 9.12125C14.1515 8.94625 14.0785 8.78525 13.9475 8.65625C13.9375 8.64725 13.9295 8.63625 13.9265 8.62325C13.9235 8.59125 13.9435 8.57025 13.9625 8.54925C14.3915 8.06325 14.8015 7.56125 15.1915 7.04425C15.5685 6.54625 15.9315 6.03725 16.2555 5.50325C16.5345 5.04325 16.7685 4.56225 16.9495 4.05525C17.0525 3.76625 17.1365 3.47225 17.2005 3.17125C17.2065 3.14325 17.2055 3.10825 17.2465 3.10325C17.2745 3.11025 17.2915 3.13125 17.3095 3.15025C17.4985 3.35225 17.6795 3.56125 17.8515 3.77725C18.1805 4.19125 18.4765 4.62825 18.7355 5.08925C18.9945 5.55225 19.2195 6.03125 19.4045 6.52825C19.6045 7.06825 19.7555 7.62125 19.8595 8.18725C19.9105 8.46525 19.9505 8.74525 19.9755 9.02725C19.9925 9.21425 19.9945 9.40225 19.9985 9.59025V9.78425C20.0025 9.81525 19.9935 9.84725 20.0045 9.87725Z"
      fill="#02033F" />
    <path
      d="M9.40825 19.9963C9.39225 19.9983 9.37825 19.9933 9.36525 19.9863C9.32925 19.9793 9.29425 19.9793 9.25825 19.9863C9.24325 19.9833 9.22925 19.9793 9.21425 19.9763C9.18825 19.9703 9.16325 19.9693 9.13725 19.9763C9.12625 19.9733 9.11525 19.9693 9.10425 19.9663C9.07825 19.9603 9.05325 19.9603 9.02725 19.9663C9.01625 19.9633 9.00525 19.9593 8.99325 19.9563C8.97125 19.9503 8.94925 19.9503 8.92725 19.9563C8.91825 19.9563 8.91025 19.9533 8.90525 19.9453C8.88225 19.9403 8.86025 19.9393 8.83725 19.9463C8.82625 19.9433 8.81525 19.9393 8.80425 19.9363C8.78825 19.9293 8.77225 19.9293 8.75725 19.9363C8.74925 19.9333 8.74125 19.9293 8.73425 19.9263C8.71525 19.9203 8.69625 19.9203 8.67825 19.9263C8.67025 19.9233 8.66225 19.9193 8.65425 19.9163C8.63825 19.9103 8.62225 19.9093 8.60625 19.9173C8.59925 19.9133 8.59225 19.9103 8.58525 19.9063C8.56925 19.9003 8.55325 19.9003 8.53725 19.9063C8.52925 19.9033 8.52125 19.9003 8.51425 19.8963C8.49925 19.8893 8.48325 19.8903 8.46725 19.8963C8.31425 19.8653 8.16025 19.8423 8.00725 19.8113C7.77225 19.7633 7.54025 19.7073 7.31025 19.6433C6.87225 19.5223 6.44425 19.3703 6.02725 19.1883C5.60825 19.0063 5.20325 18.7973 4.81325 18.5603C4.43225 18.3283 4.06825 18.0703 3.72125 17.7903C3.39325 17.5253 3.08425 17.2403 2.79125 16.9373C2.55025 16.6883 2.32525 16.4263 2.11225 16.1533C1.86825 15.8403 1.64425 15.5143 1.43825 15.1763C1.24625 14.8603 1.07525 14.5333 0.919251 14.1973C0.815251 13.9743 0.719251 13.7473 0.634251 13.5163C0.627251 13.4963 0.616251 13.4773 0.617251 13.4543C0.920251 13.4383 1.22325 13.4453 1.52625 13.4623C1.97225 13.4873 2.41525 13.5423 2.85325 13.6293C4.55825 13.9653 6.07525 14.6923 7.39925 15.8153C8.72825 16.9423 9.69725 18.3263 10.3112 19.9573C10.3133 19.9633 10.3152 19.9703 10.3173 19.9763C10.3263 20.0043 10.3073 20.0023 10.2903 20.0023H10.1912C10.1532 20.0053 10.1143 19.9963 10.0763 20.0073H9.90625C9.80925 19.9993 9.71325 19.9993 9.61625 20.0073H9.57625C9.56525 19.9953 9.54925 19.9983 9.53525 19.9963C9.49225 19.9893 9.45025 19.9903 9.40825 19.9963Z"
      fill="#D1D1D5" />
    <path
      d="M9.61523 20.007C9.65323 19.987 9.69423 19.997 9.73323 19.998C9.79023 20 9.84923 19.986 9.90523 20.007H9.61523Z"
      fill="#C5C8CA" />
    <path
      d="M10.1855 19.9991C10.2165 19.9981 10.2475 19.9981 10.2785 19.9971C10.2945 19.9971 10.3125 20.0001 10.3155 19.9761C10.3245 19.9921 10.3375 19.9991 10.3555 19.9991C10.3595 20.0011 10.3605 20.0031 10.3585 20.0051C10.3575 20.0071 10.3555 20.0071 10.3545 20.0071H10.1845C10.1775 20.0041 10.1785 20.0011 10.1855 19.9991Z"
      fill="#9DA4A8" />
    <path
      d="M19.9964 10.2882C19.9964 10.2442 19.9874 10.2002 20.0054 10.1572V10.2872C20.0034 10.2922 20.0004 10.2922 19.9964 10.2882Z"
      fill="#5A676D" />
    <path
      d="M10.1872 19.9989C10.1872 20.0019 10.1862 20.0049 10.1862 20.0069H10.0762C10.1122 19.9889 10.1502 19.9989 10.1872 19.9989Z"
      fill="#B7BBBD" />
    <path d="M20.005 9.877C19.987 9.848 19.997 9.817 19.996 9.786C19.999 9.781 20.002 9.782 20.005 9.787V9.877Z"
      fill="#4A5960" />
    <path
      d="M20.0051 9.78678C20.0021 9.78678 19.9991 9.78578 19.9961 9.78578V9.70578C19.9991 9.70078 20.0021 9.70078 20.0051 9.70678V9.78678Z"
      fill="#6E797F" />
    <path
      d="M19.9961 10.2881C19.9991 10.2881 20.0021 10.2871 20.0051 10.2871V10.3671C20.0031 10.3721 20.0001 10.3731 19.9971 10.3681C19.9971 10.3411 19.9961 10.3151 19.9961 10.2881Z"
      fill="#9CA3A7" />
    <path
      d="M10.3555 20.007C10.3555 20.004 10.3555 20.002 10.3565 19.999H10.4265C10.4265 20.002 10.4255 20.005 10.4265 20.008C10.4025 20.007 10.3785 20.007 10.3555 20.007Z"
      fill="#CBCFD1" />
    <path
      d="M20.0051 9.70721C20.0021 9.70721 19.9991 9.70621 19.9961 9.70621V9.64621C19.9991 9.64121 20.0021 9.64121 20.0041 9.64721C20.0051 9.66721 20.0051 9.68721 20.0051 9.70721Z"
      fill="#9EA6A9" />
    <path d="M19.998 10.3682C20.001 10.3682 20.004 10.3682 20.006 10.3672V10.4272L20.002 10.4282H19.998V10.3682Z"
      fill="#CACED1" />
    <path d="M20.006 9.64711L20.002 9.64611H19.998V9.58611C20.001 9.58511 20.004 9.58511 20.006 9.58711V9.64711Z"
      fill="#CACED0" />
    <path
      d="M14.0119 0.839027C14.0389 0.847027 14.0569 0.829027 14.0749 0.816027C14.2619 0.690027 14.4589 0.583027 14.6579 0.478027C14.6779 0.491027 14.6919 0.508027 14.7049 0.528027C14.8239 0.713027 14.9589 0.886027 15.1079 1.04803C15.4339 1.40203 15.8159 1.67803 16.2479 1.88503C16.5729 2.04103 16.9139 2.14403 17.2699 2.19903C17.2959 2.20303 17.3239 2.20303 17.3439 2.22403C17.3319 2.41103 17.3189 2.59703 17.2909 2.78203C17.2759 2.87703 17.2599 2.97203 17.2429 3.06603C17.2409 3.08003 17.2399 3.09203 17.2459 3.10403C17.2199 3.12403 17.2259 3.15503 17.2209 3.18103C17.0609 3.92903 16.7779 4.62903 16.4019 5.29203C16.0739 5.86903 15.6889 6.40803 15.2939 6.93903C14.8749 7.50203 14.4309 8.04403 13.9689 8.57103C13.9569 8.58503 13.9459 8.60003 13.9349 8.61403C13.9329 8.63703 13.9189 8.65303 13.9049 8.67003C13.8039 8.78903 13.6979 8.90503 13.5919 9.02003C13.3349 9.29803 13.0779 9.57303 12.8079 9.83503C12.6979 9.94203 12.5869 10.046 12.4729 10.15C12.4569 10.165 12.4399 10.179 12.4159 10.177C12.3529 10.226 12.2909 10.274 12.2279 10.323C12.1999 10.343 12.1809 10.319 12.1619 10.307C12.0219 10.217 11.8819 10.127 11.7429 10.035C11.6819 9.99303 11.6159 9.95703 11.5559 9.91103C11.4829 9.86403 11.4089 9.81803 11.3359 9.76903C11.3179 9.75703 11.2989 9.74703 11.2889 9.72703C11.2809 9.69403 11.3019 9.66903 11.3159 9.64403C11.4279 9.44703 11.5369 9.24803 11.6349 9.04403C11.7629 8.77603 11.8829 8.50503 11.9589 8.21703C11.9849 8.11903 12.0069 8.02003 12.0059 7.91703C12.0059 7.90703 12.0059 7.89703 12.0049 7.88703C11.9929 7.74903 11.9139 7.69903 11.7849 7.75003C11.6449 7.80603 11.5289 7.89903 11.4179 7.99703C11.0579 8.31803 10.7599 8.69303 10.4729 9.07903C10.4529 9.10603 10.4379 9.14103 10.3979 9.14703C10.3649 9.14503 10.3409 9.12203 10.3149 9.10503C10.2489 9.06403 10.1839 9.02103 10.1199 8.97803C9.97895 8.89003 9.83994 8.79803 9.70094 8.70703C9.59594 8.63903 9.49094 8.57203 9.38694 8.50203C9.36594 8.48803 9.33795 8.47703 9.33995 8.44303C9.35795 8.36603 9.37594 8.29003 9.39394 8.21303C9.37794 8.17703 9.39594 8.14403 9.40694 8.11203C9.45494 7.96003 9.50995 7.81003 9.56495 7.66003C9.73695 7.19303 9.92995 6.73503 10.1349 6.28103C10.1509 6.24703 10.1609 6.20803 10.1969 6.18703C10.3319 5.90503 10.4639 5.62203 10.6049 5.34303C11.0449 4.47303 11.5209 3.62203 12.0719 2.81703C12.5949 2.05803 13.2229 1.39703 13.9889 0.873027C13.9999 0.866027 14.0239 0.864027 14.0119 0.839027Z"
      fill="#E2E8EE" />
    <path
      d="M12.4162 10.1772C12.5752 10.0282 12.7352 9.88019 12.8892 9.72619C13.2352 9.38119 13.5682 9.0252 13.8912 8.6592C13.9042 8.6442 13.9192 8.63119 13.9332 8.61619C14.0842 8.74019 14.1612 8.90919 14.2132 9.09119C14.2902 9.36319 14.3062 9.6412 14.2992 9.92219C14.2922 10.1722 14.2672 10.4212 14.2232 10.6672C14.1792 10.9162 14.0712 11.1422 13.9532 11.3632C13.5552 12.1122 13.0662 12.7992 12.5192 13.4462C12.4432 13.5362 12.3632 13.6242 12.2712 13.6992C12.1442 13.8032 12.0262 13.7982 11.9132 13.6792C11.8002 13.5602 11.7432 13.4102 11.6962 13.2562C11.6742 13.1842 11.6592 13.1112 11.6492 13.0372C11.6392 12.9682 11.6482 12.9012 11.6712 12.8352C11.7542 12.5982 11.8772 12.3802 12.0002 12.1632C12.1832 11.8382 12.3782 11.5202 12.5842 11.2082C12.6382 11.1262 12.6472 11.0462 12.6302 10.9572C12.5942 10.7562 12.5252 10.5652 12.4702 10.3692C12.4532 10.3052 12.4342 10.2412 12.4162 10.1772ZM10.1982 6.19119C10.0942 6.42919 9.98823 6.66519 9.88723 6.90519C9.70823 7.3322 9.53823 7.7622 9.40123 8.2042C9.40023 8.2092 9.39623 8.2132 9.39423 8.2172C9.12023 8.2632 8.84123 8.27819 8.57123 8.34619C8.49523 8.36519 8.43923 8.4042 8.39423 8.4722C8.11323 8.9032 7.82523 9.33019 7.50023 9.7302C7.44523 9.79719 7.38723 9.86119 7.32823 9.92519C7.24923 10.0122 7.15423 10.0722 7.03623 10.0972C6.84423 10.1382 6.65223 10.1592 6.45723 10.1172C6.41923 10.1092 6.38423 10.0952 6.35023 10.0772C6.24723 10.0222 6.20523 9.93219 6.22923 9.81819C6.25423 9.70219 6.30223 9.59319 6.35223 9.48619C6.72723 8.69719 7.17523 7.95219 7.71023 7.2602C7.98023 6.91119 8.32423 6.6642 8.71123 6.4672C8.99323 6.3242 9.28123 6.19919 9.59423 6.14319C9.80023 6.10619 10.0032 6.10119 10.1982 6.19119Z"
      fill="#CD413A" />
    <path
      d="M11.4071 11.2938C10.9091 12.0468 10.3321 12.7358 9.70714 13.3858C9.29014 13.8198 8.85314 14.2328 8.36114 14.5838C8.15114 14.7338 7.93314 14.8718 7.68414 14.9508C7.61214 14.9738 7.53914 14.9878 7.46314 14.9878C7.30914 14.9868 7.20414 14.9148 7.14314 14.7748C7.08914 14.6518 7.07914 14.5208 7.08014 14.3878C7.08114 14.1098 7.13414 13.8378 7.20014 13.5698C7.36414 12.9038 7.60814 12.2658 7.88314 11.6388C8.18114 10.9598 8.51614 10.2998 8.91714 9.6748C8.92914 9.6638 8.94314 9.6678 8.95414 9.6748C9.02914 9.7198 9.10414 9.7638 9.17314 9.8188C9.17814 9.8228 9.18114 9.8288 9.18414 9.8348C9.19414 9.8658 9.17514 9.8888 9.16014 9.9128C8.96214 10.2198 8.78214 10.5368 8.62214 10.8658C8.42414 11.2748 8.25514 11.6938 8.14914 12.1378C8.09214 12.3758 8.06214 12.6158 8.07614 12.8608C8.08414 13.0008 8.11714 13.1338 8.20314 13.2498C8.30114 13.3818 8.43914 13.4248 8.59514 13.4118C8.82014 13.3918 9.01714 13.2948 9.20514 13.1778C9.42814 13.0388 9.63014 12.8738 9.82314 12.6958C10.3081 12.2468 10.7141 11.7338 11.0791 11.1858C11.0981 11.1578 11.1121 11.1218 11.1521 11.1148C11.1731 11.1138 11.1901 11.1238 11.2071 11.1348C11.2611 11.1698 11.3151 11.2058 11.3701 11.2408C11.3891 11.2528 11.4111 11.2648 11.4071 11.2938Z"
      fill="#F0DF5C" />
    <path
      d="M9.1742 9.83882C9.0882 9.78482 9.0032 9.73082 8.9172 9.67582C8.8422 9.61482 8.7572 9.56782 8.6772 9.51482C8.5052 9.40182 8.4672 9.22182 8.5792 9.04882C8.6822 8.88982 8.7892 8.73282 8.8882 8.57082C8.9932 8.40082 9.1822 8.36782 9.3152 8.44082C9.3222 8.44482 9.3312 8.44382 9.3392 8.44582C9.3882 8.49182 9.4482 8.52182 9.5032 8.55882C9.6982 8.68682 9.8942 8.81282 10.0892 8.93982C10.1012 8.94782 10.1132 8.95782 10.1242 8.96682C10.1482 8.99982 10.1232 9.02382 10.1062 9.04682C10.0312 9.15482 9.9562 9.26282 9.8832 9.37182C9.7532 9.56582 9.6312 9.76382 9.5112 9.96282C9.4982 9.98382 9.4882 10.0078 9.4672 10.0218C9.4442 10.0318 9.4252 10.0218 9.4072 10.0098C9.3402 9.96782 9.2752 9.92182 9.2082 9.87982C9.1922 9.86982 9.1862 9.85282 9.1742 9.83882ZM11.4062 11.2938C11.3272 11.2298 11.2392 11.1808 11.1552 11.1258C11.1242 11.1208 11.0962 11.1088 11.0712 11.0898C11.0202 11.0528 10.9662 11.0228 10.9142 10.9878C10.8952 10.9748 10.8742 10.9638 10.8692 10.9378C10.8692 10.9128 10.8842 10.8938 10.8972 10.8748C11.1092 10.5758 11.3082 10.2688 11.4972 9.95482C11.5132 9.92882 11.5242 9.89482 11.5652 9.89782C11.7692 10.0298 11.9732 10.1608 12.1772 10.2928C12.1942 10.3038 12.2112 10.3118 12.2282 10.3218C12.2472 10.3408 12.2662 10.3588 12.2842 10.3788C12.3792 10.4828 12.3932 10.6338 12.3142 10.7578C12.2032 10.9318 12.0922 11.1058 11.9772 11.2768C11.8712 11.4348 11.6912 11.4688 11.5312 11.3668C11.4902 11.3418 11.4522 11.3108 11.4062 11.2938Z"
      fill="#B8322A" />
    <path
      d="M13.4137 16.576C13.3307 16.581 13.2487 16.593 13.1677 16.614C12.9657 16.669 12.8697 16.812 12.8347 17.008C12.8237 17.074 12.8157 17.14 12.8137 17.206C12.8127 17.208 12.8107 17.211 12.8097 17.213C12.8087 17.211 12.8067 17.208 12.8057 17.206C12.8017 17.113 12.7907 17.021 12.7657 16.93C12.7187 16.756 12.6057 16.651 12.4337 16.608C12.3497 16.587 12.2647 16.575 12.1777 16.575C12.1737 16.558 12.1867 16.563 12.1947 16.562C12.2117 16.56 12.2297 16.565 12.2467 16.559C12.3057 16.558 12.3627 16.547 12.4187 16.534C12.6347 16.485 12.7487 16.343 12.7837 16.13C12.7937 16.068 12.8007 16.006 12.8097 15.931C12.8187 16.015 12.8237 16.087 12.8397 16.156C12.8937 16.391 13.0167 16.507 13.2547 16.546C13.2877 16.551 13.3207 16.554 13.3537 16.559C13.3717 16.572 13.4007 16.546 13.4137 16.576ZM3.91466 11.408C3.98966 11.404 4.06366 11.395 4.13666 11.377C4.35066 11.326 4.46566 11.2 4.50366 10.971C4.51466 10.904 4.51966 10.836 4.52666 10.768C4.52766 10.765 4.52866 10.763 4.52966 10.76C4.53066 10.763 4.53166 10.765 4.53266 10.768C4.53566 10.85 4.54466 10.93 4.56166 11.011C4.60666 11.228 4.74366 11.347 4.95666 11.386C5.01666 11.397 5.07766 11.403 5.13866 11.414C4.97566 11.436 4.80766 11.445 4.68266 11.573C4.55966 11.699 4.54866 11.865 4.52666 12.028C4.52266 12.001 4.51966 11.973 4.51566 11.946C4.51166 11.916 4.50866 11.886 4.50366 11.857C4.47666 11.711 4.42266 11.582 4.28566 11.505C4.20266 11.459 4.11166 11.439 4.01866 11.428C3.98366 11.424 3.94966 11.42 3.91466 11.417C3.90766 11.414 3.90866 11.411 3.91466 11.408ZM2.95466 8.60598C2.86966 8.61198 2.78566 8.62198 2.70366 8.64398C2.49666 8.69898 2.39866 8.84498 2.36566 9.04498C2.35666 9.09898 2.35166 9.15298 2.33966 9.20798C2.33266 9.15598 2.32766 9.10398 2.31766 9.05198C2.26666 8.77398 2.12466 8.64398 1.84466 8.61698C1.80366 8.61298 1.76366 8.60798 1.72266 8.60098C1.88666 8.57998 2.05466 8.57098 2.18166 8.44698C2.30766 8.32298 2.32066 8.15798 2.34466 7.99398C2.34766 8.01698 2.35166 8.03898 2.35466 8.06198C2.35766 8.08498 2.35966 8.10798 2.36366 8.13098C2.41366 8.42598 2.55266 8.55498 2.85166 8.58598C2.88666 8.58998 2.92166 8.59298 2.95566 8.59698C2.96166 8.59998 2.96066 8.60298 2.95466 8.60598ZM7.49366 5.76698C7.48366 5.70298 7.48066 5.63898 7.46566 5.57498C7.41366 5.34298 7.28766 5.22298 7.05166 5.18698C6.99566 5.17798 6.93966 5.17298 6.88366 5.16598C6.87666 5.16298 6.87666 5.16098 6.88366 5.15798C6.98366 5.15098 7.08166 5.13898 7.17666 5.10598C7.36166 5.04098 7.44066 4.89698 7.47266 4.71598C7.47766 4.68698 7.48066 4.65698 7.48566 4.62698C7.49466 4.60698 7.48366 4.58498 7.49266 4.56598C7.49166 4.56298 7.49266 4.55998 7.49366 4.55698C7.49666 4.54998 7.49966 4.55098 7.50166 4.55798C7.50666 4.62598 7.51466 4.69298 7.52866 4.75998C7.57366 4.97898 7.71166 5.09898 7.92766 5.13598C7.98666 5.14598 8.04566 5.15298 8.10566 5.16498C8.05466 5.17198 8.00466 5.17798 7.95366 5.18498C7.68366 5.22598 7.54266 5.37298 7.51366 5.64598C7.50966 5.68598 7.50566 5.72498 7.50166 5.76498C7.50066 5.77298 7.49766 5.77398 7.49366 5.76698ZM10.1627 1.32698C10.1717 1.38098 10.1777 1.43598 10.1887 1.48898C10.2357 1.70598 10.3777 1.81998 10.5907 1.85598C10.6527 1.86598 10.7147 1.87298 10.7837 1.88198C10.7097 1.89198 10.6417 1.89698 10.5757 1.90998C10.3347 1.95898 10.2127 2.08998 10.1757 2.33698C10.1707 2.36998 10.1667 2.40298 10.1627 2.43598C10.1567 2.44198 10.1657 2.45998 10.1467 2.45498C10.1407 2.38998 10.1307 2.32698 10.1167 2.26298C10.0667 2.04998 9.92466 1.94098 9.71666 1.90598C9.64966 1.89498 9.58166 1.88898 9.50266 1.87898C9.59366 1.87198 9.67266 1.86398 9.75066 1.84798C9.96166 1.80398 10.0847 1.67398 10.1247 1.46398C10.1347 1.41198 10.1397 1.35898 10.1477 1.30598C10.1657 1.30298 10.1567 1.32198 10.1627 1.32698ZM4.36666 4.67598C4.36266 4.59298 4.35066 4.51098 4.32866 4.42998C4.28166 4.25398 4.16666 4.14898 3.99166 4.10698C3.91766 4.08898 3.84166 4.07898 3.76566 4.07498C3.75866 4.07298 3.75766 4.06998 3.76466 4.06598C3.78366 4.05498 3.80566 4.06698 3.82566 4.05798C3.87466 4.04998 3.92466 4.04498 3.97266 4.03498C4.18566 3.98998 4.30566 3.85598 4.34466 3.64498C4.35666 3.57998 4.36666 3.51398 4.36666 3.44798C4.36766 3.44498 4.36866 3.44298 4.36966 3.43998C4.37166 3.44198 4.37266 3.44398 4.37466 3.44598C4.38766 3.46798 4.37366 3.49398 4.38366 3.51698C4.38766 3.58198 4.39966 3.64498 4.41566 3.70798C4.47166 3.91498 4.61966 4.01198 4.82066 4.04498C4.85166 4.04998 4.88266 4.05298 4.91466 4.05698C4.93266 4.06998 4.96066 4.04498 4.97366 4.07398C4.88866 4.07998 4.80566 4.09098 4.72366 4.11398C4.51766 4.17298 4.42666 4.32298 4.39566 4.52198C4.38766 4.57298 4.38266 4.62398 4.37566 4.67498C4.37166 4.68398 4.36866 4.68298 4.36666 4.67598ZM18.4427 12.408C18.4497 12.473 18.4587 12.537 18.4737 12.6C18.5227 12.799 18.6547 12.907 18.8497 12.946C18.9067 12.957 18.9647 12.967 19.0227 12.969C19.0247 12.995 18.9997 12.974 18.9937 12.985C18.9127 12.992 18.8327 13.006 18.7547 13.032C18.5837 13.09 18.4997 13.219 18.4647 13.388C18.4537 13.44 18.4497 13.493 18.4417 13.546C18.4307 13.552 18.4287 13.543 18.4247 13.537C18.4177 13.466 18.4067 13.396 18.3867 13.327C18.3287 13.12 18.1757 13.031 17.9787 12.999C17.9377 12.992 17.8957 12.991 17.8547 12.987C17.8477 12.983 17.8377 12.981 17.8447 12.97C17.9247 12.966 18.0037 12.952 18.0807 12.931C18.2647 12.88 18.3627 12.752 18.4007 12.572C18.4117 12.522 18.4167 12.47 18.4237 12.419C18.4297 12.411 18.4317 12.402 18.4427 12.408ZM17.9737 6.88998C17.9747 6.97698 17.9877 7.06198 18.0097 7.14598C18.0607 7.33598 18.1897 7.43798 18.3767 7.47598C18.4287 7.48698 18.4817 7.49198 18.5347 7.49898C18.5417 7.50398 18.5417 7.50998 18.5347 7.51498C18.4517 7.52298 18.3707 7.53498 18.2917 7.56198C18.1167 7.62098 18.0307 7.75198 17.9967 7.92398C17.9857 7.97798 17.9817 8.03198 17.9737 8.08598C17.9487 8.08698 17.9677 8.06398 17.9577 8.05698C17.9497 7.98798 17.9387 7.91898 17.9187 7.85198C17.8697 7.68898 17.7597 7.59098 17.5977 7.54798C17.5347 7.53098 17.4707 7.52198 17.4057 7.51598C17.3997 7.50998 17.3997 7.50498 17.4057 7.49898C17.4817 7.49098 17.5567 7.47998 17.6297 7.45598C17.7747 7.40898 17.8707 7.31398 17.9157 7.16798C17.9387 7.09298 17.9537 7.01698 17.9557 6.93798C17.9677 6.92498 17.9467 6.89898 17.9737 6.88998Z"
      fill="white" />
    <path
      d="M17.9749 6.88997C17.9689 6.90597 17.9629 6.92297 17.9579 6.93897C17.9469 6.88197 17.9719 6.82797 17.9749 6.77197V6.88997Z"
      fill="#5B5D48" />
    <path
      d="M18.6248 7.49779C18.6608 7.49679 18.6968 7.49379 18.7408 7.51579H18.6248C18.6198 7.50979 18.6198 7.50379 18.6248 7.49779Z"
      fill="#3D4844" />
    <path
      d="M12.248 16.5589C12.225 16.5649 12.202 16.5699 12.179 16.5759H12.082C12.138 16.5729 12.191 16.5479 12.248 16.5589Z"
      fill="white" />
    <path
      d="M10.1465 1.24909V1.14209C10.1485 1.18809 10.1725 1.23209 10.1635 1.27909C10.1425 1.27809 10.1555 1.25709 10.1465 1.24909Z"
      fill="#525747" />
    <path
      d="M10.1635 2.47607C10.1715 2.52307 10.1515 2.56707 10.1465 2.61307V2.51507C10.1575 2.50407 10.1365 2.47907 10.1635 2.47607Z"
      fill="#5B5E49" />
    <path
      d="M18.445 13.6357V13.7117C18.416 13.6847 18.429 13.6587 18.427 13.6347C18.433 13.6307 18.439 13.6307 18.445 13.6357Z"
      fill="#444C45" />
    <path
      d="M17.9581 8.05713C17.9631 8.06713 17.9691 8.07713 17.9741 8.08613V8.16613C17.9581 8.12113 17.9551 8.08913 17.9581 8.05713Z"
      fill="#C7AB5B" />
    <path
      d="M17.8468 12.9678C17.8498 12.9738 17.8528 12.9788 17.8568 12.9848C17.8258 12.9908 17.7968 12.9798 17.7668 12.9758C17.7648 12.9748 17.7618 12.9728 17.7598 12.9718C17.7618 12.9708 17.7648 12.9698 17.7668 12.9678H17.8468Z"
      fill="#837A4F" />
    <path
      d="M18.4277 12.358C18.4257 12.338 18.4217 12.317 18.4387 12.292C18.4487 12.318 18.4467 12.338 18.4447 12.358C18.4387 12.363 18.4327 12.363 18.4277 12.358Z"
      fill="#716D4C" />
    <path
      d="M4.97502 4.07484C4.95502 4.06884 4.93502 4.06384 4.91602 4.05784C4.95602 4.05284 4.99502 4.06484 5.03502 4.06784C5.03702 4.06884 5.04002 4.06984 5.04202 4.07184C5.04002 4.07284 5.03702 4.07384 5.03502 4.07484H4.97502Z"
      fill="#B39D57" />
    <path
      d="M13.4145 16.5762C13.3945 16.5702 13.3745 16.5652 13.3555 16.5592C13.3965 16.5532 13.4355 16.5662 13.4755 16.5692C13.4775 16.5702 13.4805 16.5722 13.4825 16.5732C13.4805 16.5742 13.4775 16.5752 13.4755 16.5772C13.4545 16.5762 13.4345 16.5762 13.4145 16.5762Z"
      fill="#A59355" />
    <path
      d="M18.9941 12.9847C19.0041 12.9797 19.0141 12.9737 19.0231 12.9688H19.0931C19.1011 12.9708 19.1011 12.9727 19.0941 12.9767C19.0791 12.9887 19.0591 12.9757 19.0431 12.9857C19.0271 12.9857 19.0111 12.9847 18.9941 12.9847Z"
      fill="#9D8D54" />
    <path
      d="M10.1465 1.24902C10.1525 1.25902 10.1575 1.26902 10.1635 1.27902V1.32702C10.1585 1.32102 10.1525 1.31402 10.1475 1.30802C10.1475 1.28802 10.1465 1.26902 10.1465 1.24902Z"
      fill="white" />
    <path
      d="M18.4282 12.3579H18.4452V12.4079C18.4392 12.4109 18.4342 12.4139 18.4282 12.4169C18.4272 12.3979 18.4282 12.3779 18.4282 12.3579Z"
      fill="#B8A058" />
    <path d="M5.1875 11.4141C5.2095 11.4041 5.2335 11.4071 5.2575 11.4141H5.1875Z" fill="#606149" />
    <path
      d="M18.4258 13.5361C18.4318 13.5391 18.4368 13.5421 18.4428 13.5451V13.5951C18.4318 13.6021 18.4298 13.5921 18.4258 13.5861V13.5361Z"
      fill="#B39D57" />
    <path
      d="M10.1635 2.47601C10.1575 2.48901 10.1515 2.50201 10.1465 2.51501V2.45601C10.1515 2.45001 10.1575 2.44301 10.1625 2.43701C10.1625 2.45001 10.1625 2.46301 10.1635 2.47601Z"
      fill="#C9AD5B" />
    <path d="M8.2292 5.16016C8.2062 5.16816 8.1822 5.17016 8.1582 5.16016H8.2292Z" fill="#5F6049" />
    <path d="M18.5352 7.51502V7.49902H18.5852C18.5922 7.50402 18.5922 7.51002 18.5852 7.51502H18.5352Z"
      fill="#B29C57" />
    <path
      d="M2.33934 7.88281C2.34634 7.90281 2.34834 7.92381 2.34234 7.94981C2.32934 7.92481 2.34034 7.90381 2.33934 7.88281Z"
      fill="#6A684B" />
    <path d="M10.8784 1.87988C10.8604 1.88788 10.8394 1.88788 10.8184 1.87988H10.8784Z" fill="#64644A" />
    <path d="M4.37519 3.44702C4.37319 3.44802 4.37019 3.44802 4.36719 3.44802V3.37402H4.37519V3.44702Z"
      fill="#8E8251" />
    <path
      d="M2.34194 9.27002C2.34594 9.29202 2.34894 9.31302 2.33894 9.34002C2.33594 9.31102 2.33294 9.29002 2.34194 9.27002Z"
      fill="#5A5C48" />
    <path
      d="M1.61133 8.60203C1.63233 8.59703 1.65333 8.59303 1.67933 8.60203C1.65233 8.61103 1.63133 8.60603 1.61133 8.60203Z"
      fill="#606149" />
    <path d="M12.8066 15.891V15.833H12.8116V15.895C12.8096 15.894 12.8076 15.892 12.8066 15.891Z" fill="#555948" />
    <path
      d="M19.0947 12.9771C19.0947 12.9741 19.0938 12.9711 19.0938 12.9691C19.1197 12.9671 19.1457 12.9641 19.1707 12.9771H19.0947Z"
      fill="#4B5246" />
    <path
      d="M18.4258 13.5859C18.4318 13.5889 18.4368 13.5919 18.4428 13.5949C18.4428 13.6089 18.4438 13.6219 18.4438 13.6359H18.4258V13.5859Z"
      fill="#736E4D" />
    <path
      d="M7.50496 5.82527V5.90727C7.49296 5.87027 7.49596 5.84827 7.49796 5.82527C7.49996 5.82127 7.50196 5.82127 7.50496 5.82527Z"
      fill="#5C5E49" />
    <path
      d="M17.3357 7.5162C17.3237 7.5152 17.3047 7.5232 17.3047 7.5072C17.3047 7.4912 17.3247 7.4992 17.3357 7.4982C17.3407 7.5042 17.3407 7.5102 17.3357 7.5162Z"
      fill="#61624A" />
    <path d="M17.3359 7.51602V7.49902H17.3759C17.3809 7.50502 17.3809 7.51102 17.3759 7.51602H17.3359Z"
      fill="#948652" />
    <path
      d="M18.584 7.51505V7.49905C18.597 7.49905 18.611 7.49805 18.624 7.49805V7.51605C18.611 7.51605 18.597 7.51505 18.584 7.51505Z"
      fill="#726E4C" />
    <path
      d="M3.00391 8.59931C3.02691 8.59631 3.04991 8.59431 3.07491 8.60231C3.04891 8.61031 3.02591 8.60831 3.00391 8.60531V8.59931ZM3.86791 11.4153C3.84491 11.4183 3.82191 11.4203 3.79691 11.4123C3.82291 11.4043 3.84591 11.4063 3.86791 11.4093V11.4153Z"
      fill="#62634A" />
    <path d="M4.53244 12.142C4.52044 12.126 4.52744 12.108 4.52344 12.083C4.54344 12.108 4.53044 12.125 4.53244 12.142Z"
      fill="#5C5E49" />
    <path
      d="M13.4746 16.5758V16.5678C13.4976 16.5668 13.5196 16.5638 13.5446 16.5718C13.5196 16.5798 13.4966 16.5768 13.4746 16.5758Z"
      fill="#61624A" />
    <path
      d="M17.7673 12.9681C17.7673 12.9711 17.7663 12.9731 17.7673 12.9761C17.7453 12.9761 17.7223 12.9811 17.6973 12.9721C17.7223 12.9631 17.7453 12.9671 17.7673 12.9681Z"
      fill="#4C5346" />
    <path d="M9.4082 1.88381C9.4362 1.87581 9.4542 1.87481 9.4782 1.88081C9.4542 1.89081 9.4372 1.88581 9.4082 1.88381Z"
      fill="#5D5F49" />
    <path d="M12.8066 17.2061C12.8096 17.2071 12.8116 17.2071 12.8146 17.2061V17.2731H12.8066V17.2061Z"
      fill="#7E774E" />
    <path
      d="M3.70772 4.07504C3.68472 4.07704 3.66272 4.08004 3.63672 4.07204C3.66272 4.06404 3.68472 4.06604 3.70772 4.06904V4.07504Z"
      fill="#5E6049" />
    <path d="M5.03516 4.07536V4.06836H5.10216C5.08016 4.07936 5.05716 4.07736 5.03516 4.07536Z" fill="#69674B" />
    <path
      d="M7.49834 4.49873C7.49634 4.47573 7.49334 4.45273 7.50134 4.42773C7.50934 4.45373 7.50734 4.47673 7.50434 4.49873H7.49834Z"
      fill="#5A5D48" />
    <path d="M4.3741 4.73535V4.81735C4.3621 4.78135 4.3651 4.75835 4.3671 4.73535H4.3741Z" fill="#545847" />
    <path
      d="M6.83663 5.16488C6.81363 5.16688 6.79062 5.16988 6.76562 5.16188C6.79162 5.15388 6.81363 5.15588 6.83663 5.15888V5.16488Z"
      fill="#63634A" />
    <path
      d="M4.38371 3.51827C4.37171 3.49627 4.37171 3.47227 4.37471 3.44727C4.39071 3.46927 4.38571 3.49427 4.38371 3.51827Z"
      fill="#8E8251" />
    <path d="M4.53334 10.7692H4.52734V10.6982C4.53634 10.7302 4.53634 10.7492 4.53334 10.7692Z" fill="#81794F" />
    <path
      d="M3.70703 4.07538V4.06938C3.72603 4.06838 3.74603 4.06838 3.76503 4.06738C3.76603 4.07038 3.76603 4.07338 3.76603 4.07638C3.74603 4.07538 3.72603 4.07538 3.70703 4.07538Z"
      fill="#B09A57" />
    <path
      d="M3.82663 4.05913C3.80763 4.07113 3.78662 4.07013 3.76562 4.06713C3.78462 4.05513 3.80563 4.05713 3.82663 4.05913Z"
      fill="white" />
    <path d="M17.377 7.51602V7.49902H17.407V7.51602C17.397 7.51502 17.387 7.51602 17.377 7.51602Z" fill="#C2A85A" />
    <path
      d="M7.50414 5.82511H7.49614C7.49514 5.80611 7.49514 5.78611 7.49414 5.76711C7.49714 5.76611 7.50014 5.76611 7.50314 5.76611C7.50314 5.78611 7.50414 5.80611 7.50414 5.82511Z"
      fill="#B59E57" />
    <path
      d="M4.37319 4.73527H4.36719V4.67627C4.37019 4.67627 4.37319 4.67627 4.37519 4.67727C4.37519 4.69727 4.37419 4.71627 4.37319 4.73527Z"
      fill="#B29C57" />
    <path
      d="M7.49463 4.56602C7.49763 4.58702 7.49963 4.60802 7.48763 4.62702C7.48563 4.60602 7.48463 4.58502 7.49463 4.56602ZM7.49763 4.49902H7.50363V4.55802H7.49963L7.49563 4.55702C7.49663 4.53802 7.49663 4.51802 7.49763 4.49902Z"
      fill="#BFA659" />
    <path d="M3.00408 8.59868V8.60468H2.95508V8.59668C2.97208 8.59768 2.98808 8.59868 3.00408 8.59868Z"
      fill="#C9AD5B" />
    <path d="M19.0449 12.986C19.0609 12.976 19.0779 12.976 19.0959 12.977C19.0809 12.991 19.0629 12.987 19.0449 12.986Z"
      fill="#4B5246" />
    <path d="M6.83789 5.16518V5.15918H6.88689V5.16718C6.86989 5.16618 6.85389 5.16618 6.83789 5.16518Z"
      fill="#CBAE5B" />
    <path
      d="M3.86719 11.4152V11.4092C3.88319 11.4092 3.89919 11.4092 3.91519 11.4082V11.4162C3.89919 11.4162 3.88319 11.4152 3.86719 11.4152Z"
      fill="#C9AD5B" />
    <path
      d="M17.3435 2.22481C17.2185 2.21981 17.0965 2.19081 16.9755 2.16081C15.9945 1.91581 15.2275 1.36981 14.6765 0.521814C14.6675 0.507814 14.6545 0.495814 14.6565 0.477814C14.9455 0.337814 15.2425 0.215814 15.5535 0.132814C15.8505 0.0528141 16.1505 -0.00118585 16.4595 0.00781415C16.5375 0.00981415 16.6155 0.0208141 16.6925 0.0358141C16.7885 0.0558141 16.8635 0.104814 16.9215 0.183814C17.0345 0.338814 17.1065 0.514814 17.1645 0.695814C17.3025 1.12981 17.3515 1.57681 17.3475 2.02981C17.3455 2.09481 17.3445 2.15981 17.3435 2.22481Z"
      fill="#CD413A" />
    <path d="M9.4082 19.9961C9.4502 19.9811 9.4932 19.9811 9.5352 19.9961H9.4082Z" fill="#C5C8CA" />
    <path d="M9.25781 19.9859C9.29381 19.9709 9.32881 19.9709 9.36481 19.9859H9.25781Z" fill="#BBBFC2" />
    <path d="M9.02734 19.9661C9.05334 19.9521 9.07834 19.9521 9.10434 19.9661H9.02734Z" fill="#CACDCE" />
    <path d="M9.13672 19.9757C9.16272 19.9607 9.18772 19.9617 9.21372 19.9757H9.13672Z" fill="#BFC3C5" />
    <path
      d="M8.83789 19.9462C8.85989 19.9312 8.88289 19.9332 8.90589 19.9452C8.88289 19.9462 8.85989 19.9462 8.83789 19.9462Z"
      fill="#BCC0C2" />
    <path
      d="M8.92773 19.9561C8.94973 19.9421 8.97173 19.9421 8.99373 19.9561H8.92773ZM8.67773 19.9261C8.69673 19.9121 8.71473 19.9131 8.73373 19.9261H8.67773Z"
      fill="#BDC1C4" />
    <path d="M8.4668 19.896C8.4828 19.883 8.4978 19.883 8.5138 19.896H8.4668Z" fill="#B8BCBF" />
    <path d="M8.60547 19.917C8.62147 19.903 8.63747 19.904 8.65347 19.916C8.63647 19.916 8.62047 19.916 8.60547 19.917Z"
      fill="#C4C7C9" />
    <path d="M8.75586 19.936C8.77186 19.923 8.78786 19.923 8.80286 19.936H8.75586Z" fill="#C7CACC" />
    <path d="M8.53711 19.9059C8.55311 19.8929 8.56911 19.8939 8.58511 19.9059H8.53711Z" fill="#C1C5C7" />
    <path
      d="M3.55586 14.3569C3.68286 14.3619 3.80086 14.4039 3.91386 14.4569C4.10686 14.5479 4.27086 14.6769 4.38386 14.8609C4.49886 15.0469 4.54186 15.2449 4.44786 15.4539C4.36786 15.6319 4.22086 15.7299 4.03986 15.7859C3.99586 15.7999 3.94886 15.8069 3.90386 15.8169C3.81186 15.8119 3.72386 15.7939 3.63886 15.7579C3.39886 15.6589 3.20286 15.5079 3.07286 15.2809C2.98386 15.1259 2.94586 14.9589 2.99886 14.7819C3.06886 14.5479 3.23986 14.4239 3.46686 14.3639C3.49586 14.3559 3.52686 14.3679 3.55586 14.3569ZM5.66486 16.7679C6.04686 16.7879 6.36786 16.9259 6.58486 17.2529C6.74786 17.4969 6.72086 17.7989 6.51486 17.9919C6.41586 18.0849 6.29386 18.1389 6.16486 18.1759C5.97086 18.1849 5.79486 18.1269 5.62886 18.0339C5.44186 17.9289 5.28886 17.7889 5.20386 17.5859C5.03486 17.1859 5.30986 16.8359 5.63686 16.7749C5.64586 16.7739 5.65586 16.7729 5.66486 16.7679ZM6.24386 15.3079C6.41286 15.4149 6.54486 15.5539 6.60686 15.7489C6.64486 15.8699 6.64886 15.9879 6.59586 16.1089C6.52586 16.2689 6.33386 16.3389 6.17886 16.3129C6.13686 16.3059 6.09286 16.3019 6.05486 16.2789C6.01786 16.2459 5.97486 16.2219 5.93886 16.1869C5.80886 16.0569 5.73486 15.9019 5.71786 15.7199C5.69086 15.4439 5.94986 15.2279 6.21486 15.3049C6.22486 15.3069 6.23386 15.3089 6.24386 15.3079Z"
      fill="white" />
    <path
      d="M3.55512 14.3571C3.48712 14.3811 3.41512 14.3951 3.34712 14.4231C3.07212 14.5371 2.93412 14.8281 3.02312 15.1151C3.10212 15.3681 3.27812 15.5381 3.49912 15.6671C3.61112 15.7331 3.73312 15.7781 3.86312 15.7981C3.87712 15.8001 3.89012 15.8091 3.90412 15.8151C3.67812 15.8441 3.46312 15.8031 3.25912 15.7051C3.00412 15.5821 2.80212 15.4031 2.71312 15.1261C2.60312 14.7821 2.78912 14.4791 3.15012 14.3781C3.28312 14.3411 3.41812 14.3371 3.55512 14.3571ZM5.66412 16.7681C5.59712 16.8081 5.52012 16.8251 5.45212 16.8671C5.16312 17.0451 5.09912 17.3661 5.24812 17.6351C5.41212 17.9301 5.67912 18.0831 6.00212 18.1481C6.05512 18.1591 6.11112 18.1571 6.16312 18.1761C5.78912 18.2541 5.45212 18.1721 5.15512 17.9361C4.98312 17.7991 4.87112 17.6221 4.85712 17.3971C4.84912 17.2611 4.89412 17.1371 4.98412 17.0331C5.12312 16.8721 5.30612 16.7981 5.51412 16.7761C5.53612 16.7651 5.56212 16.7791 5.58512 16.7671C5.61112 16.7681 5.63812 16.7681 5.66412 16.7681ZM6.24312 15.3081C6.20412 15.3231 6.16512 15.3061 6.12712 15.3051C5.87512 15.2991 5.71012 15.5071 5.74312 15.7521C5.77112 15.9591 5.87612 16.1161 6.03612 16.2431C6.05512 16.2581 6.05712 16.2601 6.05512 16.2771C5.77512 16.1661 5.59412 15.9701 5.55612 15.6651C5.51912 15.3741 5.72712 15.1881 6.01912 15.2291C6.09812 15.2421 6.17212 15.2701 6.24312 15.3081Z"
      fill="#E2E8EE" />
    <path
      d="M5.58467 16.7681C5.56267 16.7831 5.53767 16.7761 5.51367 16.7771C5.53667 16.7611 5.56167 16.7681 5.58467 16.7681Z"
      fill="#CBCBCB" />
    <path
      d="M10.3957 9.13904C10.4227 9.13104 10.4307 9.10504 10.4457 9.08504C10.7097 8.72704 10.9877 8.37904 11.3097 8.07104C11.4277 7.95804 11.5517 7.85104 11.6947 7.77104C11.7417 7.74504 11.7897 7.72304 11.8437 7.71504C11.9367 7.70004 11.9937 7.73904 12.0157 7.83104C12.0347 7.91404 12.0257 7.99704 12.0097 8.07904C11.9567 8.36104 11.8487 8.62404 11.7307 8.88404C11.6087 9.15404 11.4697 9.41604 11.3227 9.67304C11.3127 9.69004 11.2987 9.70504 11.2977 9.72604C11.3027 9.75204 11.2887 9.77104 11.2767 9.79104C11.0917 10.103 10.8947 10.407 10.6857 10.703C10.6667 10.73 10.6487 10.758 10.6307 10.786C10.5447 10.892 10.4667 11.004 10.3827 11.112C10.1627 11.395 9.92673 11.664 9.66473 11.909C9.55073 12.016 9.42773 12.114 9.28573 12.183C9.25273 12.199 9.21873 12.211 9.18173 12.218C9.07773 12.237 9.00573 12.191 8.98173 12.087C8.96373 12.011 8.97073 11.934 8.98173 11.859C9.00773 11.685 9.06373 11.52 9.12673 11.356C9.27473 10.967 9.46573 10.6 9.67173 10.239C9.68373 10.219 9.69573 10.199 9.70973 10.18C9.77573 10.055 9.85273 9.93604 9.92673 9.81704C10.0627 9.60004 10.2037 9.38704 10.3537 9.17904C10.3657 9.16404 10.3757 9.14604 10.3957 9.13904Z"
      fill="#CD413A" />
    <path
      d="M15.8331 4.02209C15.8271 4.88809 15.1261 5.58409 14.2641 5.58009C13.4001 5.57509 12.7021 4.87109 12.7071 4.01109C12.7131 3.14409 13.4161 2.45009 14.2831 2.45609C15.1421 2.46209 15.8401 3.16709 15.8331 4.02209Z"
      fill="#3C4249" />
    <path
      d="M10.3962 9.1388C10.3832 9.1888 10.3452 9.2238 10.3172 9.2638C10.1272 9.5318 9.95323 9.8098 9.78123 10.0898C9.76123 10.1218 9.74323 10.1558 9.72523 10.1898C9.70823 10.1978 9.69323 10.1928 9.67823 10.1838C9.61623 10.1428 9.55223 10.1058 9.49223 10.0628C9.47723 10.0528 9.46223 10.0418 9.46523 10.0198C9.49023 9.9508 9.53523 9.8918 9.57223 9.8288C9.69223 9.6308 9.81623 9.4358 9.94723 9.2458C9.99823 9.1718 10.0502 9.0988 10.1012 9.0248C10.1132 9.0078 10.1282 8.9908 10.1262 8.9668C10.2202 9.0178 10.3072 9.0798 10.3962 9.1388ZM10.6262 10.7758C10.6192 10.7408 10.6492 10.7228 10.6652 10.7008C10.8842 10.3908 11.0882 10.0718 11.2822 9.7458C11.2862 9.7388 11.2922 9.7328 11.2972 9.7268C11.3892 9.7798 11.4782 9.8388 11.5652 9.8998C11.5362 9.9148 11.5262 9.9448 11.5112 9.9698C11.3572 10.2278 11.1942 10.4798 11.0252 10.7278C10.9762 10.7988 10.9252 10.8678 10.8752 10.9378C10.8582 10.9488 10.8432 10.9408 10.8292 10.9318C10.7712 10.8938 10.7122 10.8578 10.6542 10.8198C10.6402 10.8088 10.6252 10.7968 10.6262 10.7758Z"
      fill="#637282" />
    <path
      d="M10.6262 10.7759C10.7092 10.8299 10.7932 10.8839 10.8762 10.9369C10.9692 10.9999 11.0632 11.0629 11.1562 11.1259C11.1352 11.1299 11.1282 11.1479 11.1182 11.1629C10.9312 11.4529 10.7272 11.7289 10.5082 11.9959C10.4042 12.1229 10.2952 12.2469 10.1822 12.3669C10.1102 12.4429 10.0392 12.5199 9.9632 12.5929C9.7222 12.8249 9.4702 13.0439 9.1812 13.2159C9.0272 13.3079 8.8672 13.3829 8.6902 13.4199C8.5342 13.4519 8.3842 13.4409 8.2552 13.3359C8.1512 13.2509 8.0992 13.1339 8.0752 13.0049C8.0312 12.7609 8.0512 12.5179 8.0992 12.2769C8.1802 11.8669 8.3242 11.4769 8.4942 11.0959C8.6822 10.6739 8.9062 10.2719 9.1562 9.88387C9.1652 9.86987 9.1762 9.85687 9.1742 9.83887C9.2532 9.88987 9.3322 9.93987 9.4122 9.99087C9.4292 10.0019 9.4472 10.0099 9.4642 10.0189C9.5472 10.0819 9.6362 10.1339 9.7232 10.1889C9.4992 10.5739 9.2932 10.9669 9.1362 11.3849C9.0652 11.5749 8.9992 11.7679 8.9902 11.9739C8.9882 12.0249 8.9912 12.0769 9.0132 12.1249C9.0422 12.1879 9.0952 12.2159 9.1642 12.2029C9.3032 12.1759 9.4132 12.0939 9.5192 12.0079C9.7612 11.8099 9.9712 11.5809 10.1712 11.3409C10.3162 11.1669 10.4552 10.9889 10.5872 10.8049C10.5982 10.7909 10.6072 10.7769 10.6262 10.7759Z"
      fill="#EBBF4B" />
    <path
      d="M14.2383 3.08102C14.7273 3.06602 15.1633 3.42602 15.2033 3.94702C15.2433 4.47502 14.8493 4.92102 14.3213 4.95502C13.8243 4.98702 13.3683 4.59102 13.3363 4.09902C13.3003 3.54902 13.6823 3.11702 14.2383 3.08102Z"
      fill="white" />
  </g>
  <defs>
    <clipPath id="clip0_3072_39028">
      <rect width="20.008" height="20.008" fill="white" />
    </clipPath>
  </defs>
</svg>