<svg viewBox="0 0 20 20" fill="none" xmlns="http://www.w3.org/2000/svg">
  <g clip-path="url(#clip0_3072_38983)">
    <path
      d="M4.629 13.8517C4.99066 12.8752 5.71399 12.0796 6.65431 11.5732L8.24563 12.4774C8.89663 12.8391 8.75196 13.8517 8.1733 14.1772L4.91833 16.0217C4.7375 16.1302 4.48433 16.0579 4.412 15.8771C4.37583 15.8409 4.37583 15.8047 4.37583 15.7324C4.3035 15.1176 4.412 14.4666 4.629 13.8517Z"
      fill="#E82424" />
    <path
      d="M9.72875 9.62029C9.72875 9.0778 9.43942 8.57146 8.96926 8.24596L0 3.14648C0.108499 6.07597 1.69982 8.71613 4.23146 10.199L8.24593 12.4774C8.89692 12.8391 8.75226 13.8518 8.1736 14.1773L9.18626 13.5986C9.51175 13.4178 9.69258 13.0923 9.69258 12.7306V11.5733L9.72875 9.62029Z"
      fill="#F3A100" />
    <path opacity="0.2"
      d="M8.24562 12.5135L6.6543 11.6094C6.6543 11.6094 7.66695 12.4774 8.06479 12.9114C8.42645 13.3454 8.20945 14.2134 8.20945 14.2134C8.75195 13.8879 8.89661 12.8752 8.24562 12.5135Z"
      fill="black" />
    <path
      d="M15.3713 6.11208C15.0097 7.08858 14.2863 7.88424 13.346 8.39057L11.7547 7.48641C11.1037 7.12475 11.2484 6.11208 11.827 5.78658L15.082 3.94209C15.2628 3.83359 15.516 3.90593 15.5883 4.08676C15.6245 4.12292 15.6245 4.19526 15.6245 4.23142C15.6968 4.88242 15.5883 5.53342 15.3713 6.11208Z"
      fill="#E82424" />
    <path
      d="M10.2715 10.3798C10.2715 10.9223 10.5608 11.4286 11.031 11.7541L20.0002 16.8536C19.8917 13.9241 18.3004 11.2839 15.7688 9.76494L11.7543 7.48645C11.1033 7.12478 11.248 6.11212 11.8266 5.78662L10.814 6.36529C10.4885 6.54612 10.3077 6.87162 10.3077 7.23328V8.39061C10.3077 8.42678 10.2715 10.3798 10.2715 10.3798Z"
      fill="#F3A100" />
    <path opacity="0.2"
      d="M11.7547 7.48645L13.346 8.39061C13.346 8.39061 12.3333 7.52261 11.9355 7.08862C11.5739 6.65462 11.827 5.78662 11.827 5.78662C11.2484 6.11212 11.1037 7.12478 11.7547 7.48645Z"
      fill="black" />
  </g>
  <defs>
    <clipPath id="clip0_3072_38983">
      <rect width="20" height="20.0001" fill="white" />
    </clipPath>
  </defs>
</svg>