<svg viewBox="0 0 21 21" fill="none" xmlns="http://www.w3.org/2000/svg"><g clip-path="url(#a)"><path d="M20.005 9.877v.28c-.011.043-.002.086-.005.13v.134c0 .395-.038.787-.102 1.177a9.922 9.922 0 0 1-1.558 3.97 10.13 10.13 0 0 1-1.724 1.966c-.276.241-.564.468-.864.68a9.906 9.906 0 0 1-4.105 1.679 7.4 7.4 0 0 1-.812.096 6.358 6.358 0 0 1-.415.012h-.063c-.02.001-.038 0-.052-.017-.037-.065-.059-.138-.085-.208a9.969 9.969 0 0 0-1.8-2.933 9.89 9.89 0 0 0-.564-.593 10.037 10.037 0 0 0-2.581-1.798 9.884 9.884 0 0 0-3.912-.979c-.238-.012-.475-.005-.713-.006-.014 0-.027 0-.04-.007-.021-.017-.03-.043-.038-.068a9.992 9.992 0 0 1-.537-2.406c-.02-.2-.023-.402-.028-.603a16.016 16.016 0 0 1-.003-.62c.002-.19.002-.38.016-.569a10.184 10.184 0 0 1 .367-2c.126-.429.278-.848.46-1.256a9.903 9.903 0 0 1 1.598-2.506 9.713 9.713 0 0 1 1.507-1.41A9.985 9.985 0 0 1 8.925.042c.242-.026.484-.033.727-.039.213-.005.424-.005.636-.003.18.002.36.001.538.016a10 10 0 0 1 2.444.51c.235.08.466.168.694.267.02.01.04.015.056.032.02.041-.011.058-.037.075a5.33 5.33 0 0 0-.322.237c-.153.122-.303.25-.447.384a8.057 8.057 0 0 0-1.284 1.55c-.32.49-.617.994-.896 1.507a25.71 25.71 0 0 0-.54 1.043c-.078.16-.155.317-.226.48-.016.032-.027.068-.058.092-.016.008-.033.006-.049 0-.198-.077-.402-.064-.604-.023a2.839 2.839 0 0 0-.629.214 4.964 4.964 0 0 0-.699.396 1.877 1.877 0 0 0-.381.357c-.465.545-.837 1.153-1.181 1.78a6.196 6.196 0 0 0-.378.787.48.48 0 0 0-.04.18.187.187 0 0 0 .093.161.459.459 0 0 0 .217.07c.196.013.388 0 .575-.069a.507.507 0 0 0 .191-.142c.184-.195.345-.41.502-.628.193-.269.382-.542.56-.82a.287.287 0 0 1 .173-.126c.18-.05.364-.065.546-.09.08-.012.159-.028.238-.034.022-.002.043-.007.06.012a.054.054 0 0 1 .005.043c-.018.058-.026.12-.048.176-.019.028-.045.023-.07.013-.143-.055-.287-.012-.38.133-.106.166-.216.331-.322.498a.294.294 0 0 0 .086.408c.067.046.138.087.205.133.02.014.042.027.048.055.002.025-.012.045-.024.064-.26.402-.49.821-.7 1.251a16.002 16.002 0 0 0-.689 1.618 8.34 8.34 0 0 0-.365 1.286 2.726 2.726 0 0 0-.045.631.625.625 0 0 0 .079.282.298.298 0 0 0 .265.157.895.895 0 0 0 .409-.104 3.39 3.39 0 0 0 .6-.374c.222-.164.428-.344.633-.529.205-.186.402-.379.595-.578.307-.32.604-.652.886-.996.276-.338.543-.684.783-1.048.012-.019.024-.039.047-.049.028-.008.049.007.07.02.037.02.07.045.107.063a.29.29 0 0 0 .366-.086c.053-.068.095-.14.141-.212.067-.103.136-.206.201-.31.086-.139.077-.259-.032-.384-.014-.018-.032-.034-.029-.06.053-.064.11-.124.193-.146.018.01.024.027.03.045.065.243.152.48.199.727a.369.369 0 0 1-.056.285c-.292.452-.578.908-.814 1.393-.042.087-.08.176-.104.27-.027.11.003.215.03.32.042.153.096.302.2.427.06.072.133.125.233.105a.35.35 0 0 0 .168-.104c.146-.14.276-.295.402-.452.374-.467.718-.955 1.024-1.47.159-.267.306-.539.412-.832.05-.139.07-.284.09-.429.024-.172.035-.344.042-.517a2.764 2.764 0 0 0-.078-.82.98.98 0 0 0-.25-.466.065.065 0 0 1-.02-.033c-.003-.032.017-.053.036-.074.429-.486.839-.988 1.229-1.505.377-.498.74-1.007 1.064-1.54.279-.46.512-.942.694-1.449.102-.289.187-.583.25-.884.006-.028.006-.063.047-.068.027.007.044.028.063.047a9.91 9.91 0 0 1 1.426 1.939 9.937 9.937 0 0 1 1.24 3.938c.017.187.018.375.023.563v.194c.004.031-.005.063.006.093Z" fill="#02033F"/><path d="M9.408 19.996a.07.07 0 0 1-.043-.01.275.275 0 0 0-.107 0l-.044-.01a.154.154 0 0 0-.077 0l-.033-.01a.167.167 0 0 0-.077 0l-.034-.01a.123.123 0 0 0-.066 0c-.009 0-.017-.003-.022-.01a.13.13 0 0 0-.068 0l-.033-.01a.055.055 0 0 0-.047 0l-.023-.01a.09.09 0 0 0-.056 0l-.024-.01a.058.058 0 0 0-.048.001l-.02-.01a.066.066 0 0 0-.049 0 .16.16 0 0 1-.023-.01.06.06 0 0 0-.047 0c-.153-.032-.307-.055-.46-.086a10.247 10.247 0 0 1-.697-.168 10.027 10.027 0 0 1-2.497-1.083 10.128 10.128 0 0 1-3.375-3.384 9.947 9.947 0 0 1-.804-1.66c-.007-.02-.018-.039-.017-.062.303-.016.606-.009.91.008.445.025.888.08 1.326.167A9.864 9.864 0 0 1 7.4 15.815a9.932 9.932 0 0 1 2.912 4.142l.006.02c.01.027-.01.025-.027.025h-.099c-.038.003-.077-.006-.115.005h-.17a1.755 1.755 0 0 0-.29 0h-.04c-.01-.012-.027-.009-.04-.01a.416.416 0 0 0-.128 0Z" fill="#D1D1D5"/><path d="M9.615 20.007c.038-.02.08-.01.118-.009.057.002.116-.012.172.009h-.29Z" fill="#C5C8CA"/><path d="m10.185 20 .093-.003c.016 0 .034.003.037-.02a.042.042 0 0 0 .04.022c.005.002.005.004.003.006 0 .002-.003.002-.004.002h-.17c-.006-.003-.005-.006.002-.008Z" fill="#9DA4A8"/><path d="M19.996 10.288c0-.044-.009-.088.01-.13v.13c-.003.004-.006.004-.01 0Z" fill="#5A676D"/><path d="M10.187 19.999v.008h-.11c.035-.018.073-.008.11-.008Z" fill="#B7BBBD"/><path d="M20.005 9.877c-.018-.029-.008-.06-.009-.091.003-.005.006-.004.009.001v.09Z" fill="#4A5960"/><path d="m20.005 9.787-.009-.001v-.08c.003-.005.006-.005.01 0v.08Z" fill="#6E797F"/><path d="M19.996 10.288h.01v.08c-.003.004-.006.005-.009 0v-.08Z" fill="#9CA3A7"/><path d="M10.355 20.007c0-.003 0-.005.002-.008h.07c0 .003-.002.006 0 .009l-.072-.001Z" fill="#CBCFD1"/><path d="M20.005 9.707h-.009v-.06c.003-.006.006-.006.008 0l.001.06Z" fill="#9EA6A9"/><path d="M19.998 10.368h.008v.06h-.008v-.06Z" fill="#CACED1"/><path d="M20.006 9.647h-.008v-.06c.003-.002.006-.002.008 0v.06Z" fill="#CACED0"/><path d="M14.012.839c.027.008.045-.01.063-.023.187-.126.384-.233.583-.338a.16.16 0 0 1 .047.05 3.713 3.713 0 0 0 2.565 1.671c.026.004.054.004.074.025a6.5 6.5 0 0 1-.101.842c-.002.014-.003.026.003.038-.026.02-.02.051-.025.077a7.406 7.406 0 0 1-.82 2.111c-.327.577-.712 1.116-1.107 1.647a26.28 26.28 0 0 1-1.325 1.632l-.034.043c-.002.023-.016.039-.03.056a20.838 20.838 0 0 1-1.097 1.165c-.11.107-.221.211-.335.315-.016.015-.033.029-.057.027l-.188.146c-.028.02-.047-.004-.066-.016-.14-.09-.28-.18-.42-.272-.06-.042-.126-.078-.186-.124-.073-.047-.147-.093-.22-.142-.018-.012-.037-.022-.047-.042-.008-.033.013-.058.027-.083a9.84 9.84 0 0 0 .319-.6 4.73 4.73 0 0 0 .324-.827c.026-.098.048-.197.047-.3l-.001-.03c-.012-.138-.091-.188-.22-.137-.14.056-.256.149-.367.247-.36.321-.658.696-.945 1.082-.02.027-.035.062-.075.068-.033-.002-.057-.025-.083-.042a6.523 6.523 0 0 1-.195-.127c-.141-.088-.28-.18-.42-.271-.104-.068-.21-.135-.313-.205-.021-.014-.05-.025-.047-.059l.054-.23c-.016-.036.002-.069.013-.101.048-.152.103-.302.158-.452.172-.467.365-.925.57-1.379.016-.034.026-.073.062-.094.135-.282.267-.565.408-.844.44-.87.916-1.721 1.467-2.526A7.414 7.414 0 0 1 13.989.873c.01-.007.035-.009.023-.034Z" fill="#E2E8EE"/><path d="M12.416 10.177c.16-.149.32-.297.473-.45.346-.346.68-.702 1.002-1.068.013-.015.028-.028.042-.043.151.124.228.293.28.475.077.272.093.55.086.831a5.03 5.03 0 0 1-.076.745c-.044.25-.152.475-.27.696a11.84 11.84 0 0 1-1.434 2.083c-.076.09-.156.178-.248.253-.127.104-.245.1-.358-.02-.113-.119-.17-.269-.217-.423a1.378 1.378 0 0 1-.047-.219.422.422 0 0 1 .022-.202c.083-.237.206-.455.33-.672.182-.325.377-.643.583-.955a.319.319 0 0 0 .046-.25c-.036-.202-.105-.393-.16-.589l-.054-.192Zm-2.218-3.986c-.104.238-.21.474-.31.714-.18.427-.35.857-.487 1.3 0 .004-.005.008-.007.012-.274.046-.553.061-.823.13a.283.283 0 0 0-.177.125c-.28.431-.569.858-.894 1.258a4.528 4.528 0 0 1-.172.195.537.537 0 0 1-.292.172 1.363 1.363 0 0 1-.579.02.406.406 0 0 1-.107-.04.22.22 0 0 1-.12-.259c.024-.116.072-.225.122-.332.375-.789.823-1.534 1.358-2.226.27-.349.614-.596 1.001-.793.282-.143.57-.268.883-.324.206-.037.41-.042.604.048Z" fill="#CD413A"/><path d="M11.407 11.294a14.846 14.846 0 0 1-1.7 2.092c-.417.434-.854.847-1.346 1.198-.21.15-.428.288-.677.367a.721.721 0 0 1-.22.037.326.326 0 0 1-.32-.213.927.927 0 0 1-.064-.387c.001-.278.054-.55.12-.818.164-.666.408-1.304.683-1.931.298-.68.633-1.34 1.034-1.964.012-.011.026-.007.037 0 .075.045.15.089.22.144.004.004.007.01.01.016.01.03-.009.054-.024.078a9.1 9.1 0 0 0-.538.953 6.255 6.255 0 0 0-.473 1.272 2.48 2.48 0 0 0-.073.723.7.7 0 0 0 .127.389c.098.132.236.175.392.162.225-.02.422-.117.61-.234a4.17 4.17 0 0 0 .618-.482 8.296 8.296 0 0 0 1.256-1.51c.02-.028.033-.064.073-.071.021-.001.038.009.055.02l.163.106c.02.012.041.024.037.053Z" fill="#F0DF5C"/><path d="M9.174 9.839a36.559 36.559 0 0 1-.257-.163c-.075-.061-.16-.108-.24-.161-.172-.113-.21-.293-.098-.466.103-.16.21-.316.31-.478.104-.17.293-.203.426-.13.007.004.016.003.024.005.05.046.11.076.164.113.195.128.391.254.586.38l.035.028c.024.033 0 .057-.018.08-.075.108-.15.216-.223.325-.13.194-.252.392-.372.59-.013.022-.023.046-.044.06-.023.01-.042 0-.06-.012-.067-.042-.132-.088-.199-.13-.016-.01-.022-.027-.034-.041Zm2.232 1.455c-.079-.064-.167-.113-.25-.168a.186.186 0 0 1-.085-.036c-.05-.037-.105-.067-.157-.102-.019-.013-.04-.024-.045-.05 0-.025.015-.044.028-.063.212-.3.411-.606.6-.92.016-.026.027-.06.068-.057l.612.395.051.029c.02.019.038.037.056.057a.308.308 0 0 1 .03.379c-.11.174-.222.348-.337.519-.106.158-.286.192-.446.09-.04-.025-.079-.056-.125-.073Z" fill="#B8322A"/><path d="M13.414 16.576a1.284 1.284 0 0 0-.246.038c-.202.055-.298.198-.333.394a1.478 1.478 0 0 0-.021.198l-.004.007-.004-.007a1.234 1.234 0 0 0-.04-.276.428.428 0 0 0-.332-.322 1.051 1.051 0 0 0-.256-.033c-.004-.017.009-.012.017-.013.017-.002.035.003.052-.003a.82.82 0 0 0 .172-.025c.216-.049.33-.191.365-.404.01-.062.017-.124.026-.199.009.084.014.156.03.225.054.235.177.351.415.39l.099.013c.018.013.047-.013.06.017Zm-9.5-5.168c.076-.004.15-.013.223-.031.214-.051.329-.177.367-.406.01-.067.016-.135.023-.203 0-.003.002-.005.003-.008 0 .003.002.005.003.008.003.082.012.162.029.243.045.217.182.336.395.375.06.011.12.017.182.028-.163.022-.331.031-.456.159-.123.126-.134.292-.156.455l-.011-.082c-.004-.03-.007-.06-.012-.089-.027-.146-.081-.275-.218-.352a.714.714 0 0 0-.267-.077l-.104-.011c-.007-.003-.006-.006 0-.009Zm-.96-2.802a1.323 1.323 0 0 0-.25.038c-.207.055-.305.201-.338.401-.01.054-.014.108-.026.163-.007-.052-.012-.104-.022-.156-.051-.278-.193-.408-.473-.435a1.697 1.697 0 0 1-.122-.016c.164-.021.332-.03.459-.154.126-.124.139-.289.163-.453l.01.068.009.069c.05.295.189.424.488.455l.104.011c.006.003.005.006-.001.009Zm4.54-2.839c-.01-.064-.013-.128-.028-.192-.052-.232-.178-.352-.414-.388-.056-.009-.112-.014-.168-.021-.007-.003-.007-.005 0-.008.1-.007.198-.019.293-.052.185-.065.264-.209.296-.39l.013-.089c.009-.02-.002-.042.007-.061v-.009c.004-.007.007-.006.009.001.005.068.013.135.027.202.045.219.183.339.399.376.059.01.118.017.178.029l-.152.02c-.27.041-.411.188-.44.461l-.012.119c-.001.008-.004.009-.008.002Zm2.669-4.44c.009.054.015.109.026.162.047.217.189.331.402.367.062.01.124.017.193.026-.074.01-.142.015-.208.028-.241.049-.363.18-.4.427-.005.033-.01.066-.013.099-.006.006.003.024-.016.019a1.564 1.564 0 0 0-.03-.192c-.05-.213-.192-.322-.4-.357-.067-.011-.135-.017-.214-.027.09-.007.17-.015.248-.031a.447.447 0 0 0 .374-.384c.01-.052.015-.105.023-.158.018-.003.009.016.015.021ZM4.367 4.676a1.145 1.145 0 0 0-.038-.246.427.427 0 0 0-.337-.323 1.23 1.23 0 0 0-.226-.032c-.007-.002-.008-.005-.001-.009.019-.011.04.001.06-.008.05-.008.1-.013.148-.023.213-.045.333-.179.372-.39a1.09 1.09 0 0 0 .022-.197c0-.003.002-.005.003-.008l.005.006c.013.022-.001.048.009.071.004.065.016.128.032.191.056.207.204.304.405.337.03.005.062.008.094.012.018.013.046-.012.059.017a1.241 1.241 0 0 0-.25.04c-.206.059-.297.209-.328.408-.008.051-.013.102-.02.153-.004.009-.007.008-.01.001Zm14.076 7.732c.007.065.016.129.03.192.05.199.182.307.377.346.057.011.115.021.173.023.002.026-.023.005-.03.016a1.032 1.032 0 0 0-.238.047c-.171.058-.255.187-.29.356-.011.052-.015.105-.023.158-.011.006-.013-.003-.017-.009a1.157 1.157 0 0 0-.038-.21c-.058-.207-.211-.296-.408-.328-.041-.007-.083-.008-.124-.012-.007-.004-.017-.006-.01-.017.08-.004.159-.018.236-.039.184-.051.282-.179.32-.359.01-.05.016-.102.023-.153.006-.008.008-.017.019-.011Zm-.47-5.518c.002.087.015.172.037.256.05.19.18.292.367.33.052.011.105.016.158.023.007.005.007.011 0 .016-.083.008-.164.02-.243.047-.175.059-.261.19-.295.362-.011.054-.015.108-.023.162-.025.001-.006-.022-.016-.029a1.196 1.196 0 0 0-.04-.205.426.426 0 0 0-.32-.304 1.132 1.132 0 0 0-.192-.032c-.006-.006-.006-.011 0-.017.076-.008.15-.019.224-.043a.417.417 0 0 0 .286-.288.854.854 0 0 0 .04-.23c.012-.013-.01-.039.018-.048Z" fill="#fff"/><path d="M17.975 6.89a.95.95 0 0 0-.017.049c-.011-.057.014-.111.017-.167v.118Z" fill="#5B5D48"/><path d="M18.625 7.498c.036-.001.072-.004.116.018h-.116c-.005-.006-.005-.012 0-.018Z" fill="#3D4844"/><path d="M12.248 16.559c-.023.006-.046.01-.069.017h-.097c.056-.003.109-.028.166-.017Z" fill="#fff"/><path d="M10.146 1.25v-.108c.002.046.026.09.018.137-.021 0-.008-.022-.018-.03Z" fill="#525747"/><path d="M10.164 2.476c.008.047-.012.091-.018.137v-.098c.011-.01-.01-.036.018-.039Z" fill="#5B5E49"/><path d="M18.445 13.636v.076c-.029-.027-.016-.053-.018-.077.006-.004.012-.004.018 0Z" fill="#444C45"/><path d="m17.958 8.057.016.03v.08c-.016-.046-.019-.078-.016-.11Z" fill="#C7AB5B"/><path d="M17.847 12.968a.15.15 0 0 0 .01.017c-.031.006-.06-.005-.09-.01l-.007-.003.007-.004h.08Z" fill="#837A4F"/><path d="M18.428 12.358c-.002-.02-.006-.041.01-.066.01.026.009.046.007.066-.006.005-.012.005-.017 0Z" fill="#716D4C"/><path d="m4.975 4.075-.059-.017c.04-.005.079.007.119.01l.007.004-.007.003h-.06Z" fill="#B39D57"/><path d="M13.415 16.576c-.02-.006-.04-.01-.06-.017.041-.006.08.007.12.01l.008.004-.008.004h-.06Z" fill="#A59355"/><path d="m18.994 12.985.03-.016h.07c.007.002.007.004 0 .008-.015.012-.035-.001-.05.009l-.05-.001Z" fill="#9D8D54"/><path d="m10.146 1.249.018.03v.048l-.016-.019-.002-.059Z" fill="#fff"/><path d="M18.428 12.358h.017v.05l-.017.009v-.06Z" fill="#B8A058"/><path d="M5.188 11.414c.022-.01.046-.007.07 0h-.07Z" fill="#606149"/><path d="m18.426 13.536.017.01v.05c-.011.006-.013-.004-.017-.01v-.05Z" fill="#B39D57"/><path d="M10.164 2.476a.658.658 0 0 0-.018.039v-.059l.016-.019c0 .013 0 .026.002.039Z" fill="#C9AD5B"/><path d="M8.23 5.16a.097.097 0 0 1-.072 0h.071Z" fill="#5F6049"/><path d="M18.535 7.515v-.016h.05c.007.005.007.011 0 .016h-.05Z" fill="#B29C57"/><path d="M2.34 7.883c.006.02.008.04.002.067-.013-.025-.002-.046-.003-.067Z" fill="#6A684B"/><path d="M10.878 1.88a.078.078 0 0 1-.06 0h.06Z" fill="#64644A"/><path d="m4.375 3.447-.008.001v-.074h.008v.073Z" fill="#8E8251"/><path d="M2.342 9.27a.121.121 0 0 1-.003.07c-.003-.029-.006-.05.003-.07Z" fill="#5A5C48"/><path d="M1.611 8.602a.112.112 0 0 1 .068 0c-.027.009-.048.004-.068 0Z" fill="#606149"/><path d="M12.807 15.891v-.058h.005v.062l-.005-.004Z" fill="#555948"/><path d="m19.095 12.977-.001-.008c.026-.002.052-.005.077.008h-.076Z" fill="#4B5246"/><path d="m18.426 13.586.017.009v.04h-.017v-.05Z" fill="#736E4D"/><path d="M7.505 5.825v.082c-.012-.037-.009-.059-.007-.082.002-.004.004-.004.007 0Z" fill="#5C5E49"/><path d="M17.336 7.516c-.012 0-.031.007-.031-.009s.02-.008.03-.009c.006.006.006.012 0 .018Z" fill="#61624A"/><path d="M17.336 7.516v-.017h.04c.005.006.005.012 0 .017h-.04Z" fill="#948652"/><path d="M18.584 7.515v-.016h.04v.017l-.04-.001Z" fill="#726E4C"/><path d="M3.004 8.6a.156.156 0 0 1 .07.002.157.157 0 0 1-.07.003V8.6Zm.864 2.815a.156.156 0 0 1-.071-.003.157.157 0 0 1 .07-.003v.006Z" fill="#62634A"/><path d="M4.532 12.142c-.012-.016-.005-.034-.009-.059.02.025.007.042.01.059Z" fill="#5C5E49"/><path d="M13.475 16.576v-.008c.023-.001.045-.004.07.004-.025.008-.048.005-.07.004Z" fill="#61624A"/><path d="M17.767 12.968v.008c-.022 0-.045.005-.07-.004.025-.009.048-.005.07-.004Z" fill="#4C5346"/><path d="M9.408 1.884a.12.12 0 0 1 .07-.003c-.024.01-.04.005-.07.003Z" fill="#5D5F49"/><path d="M12.807 17.206a.011.011 0 0 0 .008 0v.067h-.008v-.067Z" fill="#7E774E"/><path d="M3.708 4.075c-.023.002-.045.005-.071-.003a.157.157 0 0 1 .07-.003v.006Z" fill="#5E6049"/><path d="M5.035 4.075v-.007h.067a.12.12 0 0 1-.067.007Z" fill="#69674B"/><path d="M7.498 4.499c-.002-.023-.005-.046.003-.071a.157.157 0 0 1 .003.07h-.006Z" fill="#5A5D48"/><path d="M4.374 4.735v.082c-.012-.036-.009-.059-.007-.082h.007Z" fill="#545847"/><path d="M6.837 5.165c-.023.002-.046.005-.071-.003a.157.157 0 0 1 .07-.003v.006Z" fill="#63634A"/><path d="M4.384 3.518a.115.115 0 0 1-.01-.07c.017.021.012.046.01.07Z" fill="#8E8251"/><path d="M4.533 10.77h-.006v-.072a.154.154 0 0 1 .006.071Z" fill="#81794F"/><path d="M3.707 4.075V4.07c.019 0 .039 0 .058-.002l.001.01c-.02-.002-.04-.002-.059-.002Z" fill="#B09A57"/><path d="M3.827 4.06c-.02.011-.04.01-.061.007.019-.012.04-.01.06-.008Z" fill="#fff"/><path d="M17.377 7.516v-.017h.03v.017h-.03Z" fill="#C2A85A"/><path d="M7.504 5.825h-.008c0-.019 0-.039-.002-.058h.01v.058Z" fill="#B59E57"/><path d="M4.373 4.735h-.006v-.059l.008.001c0 .02 0 .04-.002.058Z" fill="#B29C57"/><path d="M7.495 4.566c.003.021.005.042-.007.061a.106.106 0 0 1 .007-.061Zm.003-.067h.006v.059H7.5l-.004-.001c0-.019 0-.039.002-.058Z" fill="#BFA659"/><path d="M3.004 8.599v.006h-.049v-.008l.05.002Z" fill="#C9AD5B"/><path d="M19.045 12.986c.016-.01.033-.01.05-.009-.014.014-.032.01-.05.009Z" fill="#4B5246"/><path d="M6.838 5.165V5.16h.049v.008c-.017 0-.033 0-.05-.002Z" fill="#CBAE5B"/><path d="M3.867 11.415v-.006h.048v.007h-.048Z" fill="#C9AD5B"/><path d="M17.343 2.225a1.842 1.842 0 0 1-.367-.064 3.727 3.727 0 0 1-2.3-1.64c-.008-.013-.021-.025-.02-.043a5.05 5.05 0 0 1 .897-.345c.297-.08.598-.134.906-.125.079.002.157.013.233.028.096.02.171.069.23.148.113.155.184.33.242.512.138.434.188.88.183 1.334l-.004.195Z" fill="#CD413A"/><path d="M9.408 19.996a.185.185 0 0 1 .127 0h-.127Z" fill="#C5C8CA"/><path d="M9.258 19.986a.133.133 0 0 1 .107 0h-.107Z" fill="#BBBFC2"/><path d="M9.027 19.966a.076.076 0 0 1 .077 0h-.077Z" fill="#CACDCE"/><path d="M9.137 19.976a.074.074 0 0 1 .077 0h-.077Z" fill="#BFC3C5"/><path d="M8.838 19.946c.022-.015.045-.013.068 0h-.068Z" fill="#BCC0C2"/><path d="M8.928 19.956a.057.057 0 0 1 .066 0h-.066Zm-.25-.03c.019-.014.037-.013.056 0h-.056Z" fill="#BDC1C4"/><path d="M8.467 19.896c.016-.013.03-.013.047 0h-.047Z" fill="#B8BCBF"/><path d="M8.605 19.917c.016-.014.032-.013.048-.001l-.048.001Z" fill="#C4C7C9"/><path d="M8.756 19.936c.016-.013.032-.013.047 0h-.047Z" fill="#C7CACC"/><path d="M8.537 19.906c.016-.013.032-.012.048 0h-.048Z" fill="#C1C5C7"/><path d="M3.556 14.357a.93.93 0 0 1 .358.1c.193.09.357.22.47.404.115.186.158.384.064.593-.08.178-.227.276-.408.332-.044.014-.091.02-.136.03a.779.779 0 0 1-.265-.058 1.114 1.114 0 0 1-.566-.477.617.617 0 0 1-.074-.5c.07-.233.24-.357.468-.417.029-.008.06.004.089-.007Zm2.109 2.41c.382.02.703.159.92.486a.563.563 0 0 1-.07.739.832.832 0 0 1-.35.184.989.989 0 0 1-.536-.142.925.925 0 0 1-.425-.448.583.583 0 0 1 .433-.811c.009-.001.019-.002.028-.007Zm.579-1.46a.811.811 0 0 1 .363.442.492.492 0 0 1-.011.36c-.07.16-.262.23-.417.204-.042-.007-.086-.011-.124-.034-.037-.033-.08-.057-.116-.092a.739.739 0 0 1-.221-.467.39.39 0 0 1 .497-.415c.01.002.019.004.029.003Z" fill="#fff"/><path d="M3.555 14.357c-.068.024-.14.038-.208.066a.558.558 0 0 0-.324.692c.08.253.255.423.476.552.112.066.234.111.364.131.014.002.027.011.041.017a1.131 1.131 0 0 1-.645-.11c-.255-.123-.457-.302-.546-.579-.11-.344.076-.647.437-.748a.97.97 0 0 1 .405-.02Zm2.11 2.411c-.068.04-.145.057-.213.1a.555.555 0 0 0-.204.767c.164.295.431.448.754.513.053.011.11.01.161.028a1.168 1.168 0 0 1-1.008-.24.733.733 0 0 1-.298-.539.5.5 0 0 1 .127-.364.774.774 0 0 1 .53-.257c.022-.01.048.003.071-.009l.08.001Zm.578-1.46c-.039.015-.078-.002-.116-.003-.252-.006-.417.202-.384.447a.735.735 0 0 0 .293.491c.02.015.021.017.02.034-.28-.11-.462-.307-.5-.612-.037-.29.171-.477.463-.436a.722.722 0 0 1 .224.08Z" fill="#E2E8EE"/><path d="M5.585 16.768c-.022.015-.047.008-.071.01.023-.017.048-.01.07-.01Z" fill="#CBCBCB"/><path d="M10.396 9.139c.027-.008.035-.034.05-.054a7.74 7.74 0 0 1 .864-1.014c.118-.113.242-.22.385-.3a.44.44 0 0 1 .149-.056c.093-.015.15.024.172.116a.592.592 0 0 1-.006.248 3.539 3.539 0 0 1-.28.805c-.121.27-.26.532-.407.789-.01.017-.024.032-.025.053.005.026-.01.045-.021.065-.185.312-.382.616-.591.912a2.385 2.385 0 0 0-.055.083c-.086.106-.164.218-.248.326-.22.283-.456.552-.718.797a1.553 1.553 0 0 1-.38.274.411.411 0 0 1-.103.035c-.104.019-.176-.027-.2-.131a.603.603 0 0 1 0-.228 2.39 2.39 0 0 1 .145-.503c.148-.389.339-.756.545-1.117.012-.02.024-.04.038-.059.066-.125.143-.244.217-.363.136-.217.277-.43.427-.638.012-.015.022-.033.042-.04Z" fill="#CD413A"/><path d="M15.833 4.022a1.564 1.564 0 0 1-3.126-.01 1.562 1.562 0 0 1 3.126.011Z" fill="#3C4249"/><path d="M10.396 9.139c-.013.05-.05.085-.079.125-.19.268-.364.546-.536.826-.02.032-.038.066-.056.1-.017.008-.032.003-.047-.006-.062-.041-.126-.078-.186-.121-.015-.01-.03-.021-.027-.043.025-.07.07-.128.107-.191.12-.198.244-.393.375-.583l.154-.221c.012-.017.027-.034.025-.058.094.05.181.113.27.172Zm.23 1.637c-.007-.035.023-.053.04-.075.218-.31.422-.63.616-.955l.015-.02c.092.054.181.113.268.174-.029.015-.039.045-.054.07-.154.258-.317.51-.486.758l-.15.21c-.017.01-.032.003-.046-.006l-.175-.112c-.014-.011-.029-.023-.028-.044Z" fill="#637282"/><path d="m10.626 10.776.25.16.28.19c-.02.004-.028.022-.038.037a9.024 9.024 0 0 1-.936 1.204c-.072.076-.143.153-.219.226a4.351 4.351 0 0 1-.782.623 1.592 1.592 0 0 1-.49.204c-.157.032-.307.02-.436-.084a.535.535 0 0 1-.18-.331 1.939 1.939 0 0 1 .024-.728c.081-.41.225-.8.395-1.181.188-.422.412-.824.662-1.212.01-.014.02-.027.018-.045l.238.152.052.028c.083.063.172.115.26.17-.225.385-.43.778-.588 1.196a1.93 1.93 0 0 0-.146.589.326.326 0 0 0 .023.15.128.128 0 0 0 .151.079c.14-.027.25-.11.355-.195.242-.198.452-.427.652-.667a9.36 9.36 0 0 0 .416-.536c.011-.014.02-.028.04-.03Z" fill="#EBBF4B"/><path d="M14.238 3.081a.933.933 0 0 1 .965.866.936.936 0 0 1-.882 1.008.942.942 0 0 1-.985-.856c-.036-.55.346-.982.902-1.018Z" fill="#fff"/></g><defs><clipPath id="a"><path fill="#fff" d="M0 0h20.008v20.008H0z"/></clipPath></defs></svg>