<svg width="20" height="20" viewBox="0 0 20 20" fill="none" xmlns="http://www.w3.org/2000/svg">
<path fill-rule="evenodd" clip-rule="evenodd" d="M20 10C20 12.7614 17.7614 15 15 15C12.8447 15 11.0079 13.6363 10.3054 11.7247L8.76674 13.2881C8.7132 13.3494 8.65828 13.4093 8.60205 13.4677C7.82326 14.2767 6.79269 14.8019 5.67535 14.9542C4.47733 15.1175 3.26072 14.8412 2.2508 14.1763C1.24088 13.5115 0.506071 12.5033 0.182441 11.3383C-0.141188 10.1733 -0.0317135 8.93055 0.490594 7.84009C1.0129 6.74963 1.91266 5.88537 3.02325 5.40735C4.13384 4.92933 5.38002 4.86994 6.53103 5.24018C7.68205 5.61041 8.65992 6.38519 9.28356 7.42103L6.88477 8.86525C6.61036 8.40948 6.1801 8.06858 5.67366 7.90568C5.16721 7.74277 4.61889 7.76891 4.13023 7.97923C3.64157 8.18956 3.24568 8.56983 3.01586 9.04964C2.78605 9.52944 2.73788 10.0763 2.88027 10.5889C3.02267 11.1014 3.34599 11.5451 3.79035 11.8376C4.23472 12.1301 4.77003 12.2517 5.29715 12.1798C5.764 12.1162 6.19642 11.9046 6.53225 11.5787L11.371 6.56049C12.2822 5.5994 13.5711 5 15 5C17.7614 5 20 7.23857 20 10ZM14.9988 12.2008C13.7838 12.2008 12.7988 11.2158 12.7988 10.0008C12.7988 8.78575 13.7838 7.80078 14.9988 7.80078C16.2139 7.80078 17.1988 8.78575 17.1988 10.0008C17.1988 11.2158 16.2139 12.2008 14.9988 12.2008Z" fill="#05AA99"/>
</svg>
