<svg width="20" height="20" viewBox="0 0 20 20" fill="none" xmlns="http://www.w3.org/2000/svg">
<g clip-path="url(#clip0_117_457)">
<path d="M13.0833 16.0938H11.8507L10.375 14.7396V14.0451L11.9028 12.5868V10.2778L13.8993 8.9757L16.1736 10.6944L13.0833 16.0938ZM7.97917 12.4479L8.20486 10.2778L7.45833 8.33333H11.8681L11.1389 10.2778L11.3472 12.4479H9.64583H7.97917ZM8.98611 14.7396L7.51042 16.1111H6.26042L3.15278 10.6944L5.44444 8.99306L7.45833 10.2778V12.5868L8.98611 14.0451V14.7396ZM6.24306 4.32292H13.066L13.8819 7.79514H5.44444L6.24306 4.32292ZM9.66319 0L1 5V15L9.66319 20L18.3264 15V5L9.66319 0Z" fill="#03316C"/>
</g>
<defs>
<clipPath id="clip0_117_457">
<rect width="20" height="20" fill="white"/>
</clipPath>
</defs>
</svg>
