<svg width="20" height="20" viewBox="0 0 20 20" fill="none" xmlns="http://www.w3.org/2000/svg">
<path fill-rule="evenodd" clip-rule="evenodd" d="M17.512 11.2391C17.512 15.6634 13.9254 19.25 9.5011 19.25C5.07682 19.25 1.49023 15.6634 1.49023 11.2391C1.49023 6.81485 5.07682 3.22826 9.5011 3.22826C10.985 3.22826 12.3746 3.63171 13.5663 4.3349V1.97283C13.5663 0.883264 14.4496 0 15.5391 0C16.6287 0 17.512 0.883264 17.512 1.97283V11.2391ZM9.50095 16.0205C6.86019 16.0205 4.71943 13.8797 4.71943 11.239C4.71943 8.59821 6.86019 6.45746 9.50095 6.45746C12.1417 6.45746 14.2825 8.59821 14.2825 11.239C14.2825 13.8797 12.1417 16.0205 9.50095 16.0205Z" fill="url(#paint0_linear_119_376)"/>
<path d="M8.65565 8.37806C9.12258 7.91113 9.87963 7.91113 10.3466 8.37806L12.2426 10.2741C12.7095 10.741 12.7095 11.4981 12.2426 11.965L10.3466 13.8611C9.87963 14.328 9.12258 14.328 8.65565 13.8611L6.7596 11.965C6.29267 11.4981 6.29267 10.741 6.7596 10.2741L8.65565 8.37806Z" fill="url(#paint1_linear_119_376)"/>
<defs>
<linearGradient id="paint0_linear_119_376" x1="15.8381" y1="-0.956522" x2="9.62067" y2="12.3152" gradientUnits="userSpaceOnUse">
<stop stop-color="#16B97C"/>
<stop offset="1" stop-color="#17B88A"/>
</linearGradient>
<linearGradient id="paint1_linear_119_376" x1="15.8381" y1="-0.956522" x2="9.62067" y2="12.3152" gradientUnits="userSpaceOnUse">
<stop stop-color="#16B97C"/>
<stop offset="1" stop-color="#17B88A"/>
</linearGradient>
</defs>
</svg>
