<svg viewBox="0 0 20 20" fill="none" xmlns="http://www.w3.org/2000/svg"><path d="m14 9.984 6 5.991h-2.125c-.375 0-.688-.125-.938-.374l-5.562-5.617 5.563-5.553c.25-.25.625-.375.937-.375H20l-6 5.928ZM3.062 4.431a1.38 1.38 0 0 0-.937-.375H0l6 5.928-6 5.991h2.125c.375 0 .688-.125.938-.374l5.562-5.554c0-.063-5.563-5.616-5.563-5.616ZM10 11.357l-5.563 5.554c-.25.25-.375.624-.375.936v2.122l6-5.99 6 5.99v-2.122c0-.374-.125-.686-.375-.936L10 11.357Zm0-2.745 5.563-5.554c.25-.25.374-.624.374-.936V0L10 5.99 4 0v2.122c0 .374.125.686.375.936L10 8.612Z" fill="url(#a)"/><defs><linearGradient id="a" x1="-.006" y1="9.984" x2="20.009" y2="9.984" gradientUnits="userSpaceOnUse"><stop stop-color="#00BFFF"/><stop offset="1" stop-color="#6619FF"/></linearGradient></defs></svg>