<svg width="20" height="20" viewBox="0 0 20 20" fill="none" xmlns="http://www.w3.org/2000/svg">
<g clip-path="url(#clip0_11007_13992)">
<path d="M3.36457 14.1846H0.401611V18.4647L3.36457 19.656V14.1846Z" fill="#F39C11" stroke="#F39C11" stroke-width="0.025206"/>
<path d="M3.36457 -0.175781L0.401611 1.01552V12.7031H9.70294C9.86608 12.7031 10.0247 12.757 10.1541 12.8564C10.2835 12.9557 10.3765 13.095 10.4186 13.2527C10.4607 13.4103 10.4496 13.5774 10.387 13.7281C10.3243 13.8788 10.2137 14.0045 10.0723 14.0859L4.84607 17.0923V19.656L14.9816 13.8254C15.3308 13.6383 15.6074 13.3399 15.7677 12.9776C15.9278 12.6152 15.9624 12.2098 15.866 11.8256C15.7695 11.4414 15.5474 11.1004 15.2351 10.8568C14.9227 10.6132 14.5379 10.4808 14.1417 10.4808H4.84607C4.45319 10.4808 4.07633 10.3248 3.79854 10.0469C3.52068 9.76907 3.36462 9.39226 3.36462 8.99938L3.36457 -0.175781Z" fill="#F39C11" stroke="#F39C11" stroke-width="0.025206"/>
<path d="M15.9572 2.38789V-0.175781L5.82164 5.65473C5.47246 5.84188 5.19583 6.14033 5.03567 6.50261C4.87545 6.86493 4.84085 7.27037 4.9373 7.65457C5.03381 8.03883 5.25587 8.37981 5.56827 8.62343C5.88061 8.86706 6.2654 8.99933 6.66158 8.99933H15.9572C16.1518 8.99933 16.3444 9.03766 16.5241 9.11212C16.7039 9.18659 16.8672 9.29571 17.0047 9.43325C17.1423 9.57084 17.2515 9.73415 17.3259 9.9139C17.4003 10.0937 17.4387 10.2863 17.4387 10.4808V19.656L20.4016 18.4647V6.7771H11.1003C10.9371 6.7771 10.7786 6.72324 10.6492 6.62386C10.5197 6.52448 10.4268 6.38518 10.3847 6.22752C10.3425 6.06991 10.3537 5.90278 10.4163 5.75209C10.4789 5.60145 10.5895 5.47567 10.7309 5.39429L15.9572 2.38789Z" fill="#F39C11" stroke="#F39C11" stroke-width="0.025206"/>
<path d="M20.4015 1.0155L17.4385 -0.175781V5.24839L20.4014 5.24833L20.4015 1.0155Z" fill="#F39C11" stroke="#F39C11" stroke-width="0.025206"/>
</g>
<defs>
<clipPath id="clip0_11007_13992">
<rect width="20" height="20" fill="white"/>
</clipPath>
</defs>
</svg>
