<svg viewBox="0 0 20 21" fill="none" xmlns="http://www.w3.org/2000/svg"><path d="M10 19.555a9.547 9.547 0 0 0 9.548-9.547 9.547 9.547 0 1 0-19.095 0 9.548 9.548 0 0 0 9.548 9.547Z" stroke="#637282" stroke-width=".905"/><path d="M7.29 15.872a.456.456 0 0 0 .457-.457.456.456 0 0 0-.457-.457.456.456 0 0 0-.457.457c0 .249.204.457.457.457Zm2.71-.027a3.852 3.852 0 0 0 3.847-3.846V7.972a3.849 3.849 0 0 0-3.846-3.846 3.849 3.849 0 0 0-3.846 3.846A3.849 3.849 0 0 0 10 11.818c.145 0 .29-.01.457-.032.127-.013.249-.031.37-.059.544-.117.567-.461.548-.606-.004-.063-.054-.371-.37-.371a.887.887 0 0 0-.3.063c-.167.068-.37.095-.705.095a2.947 2.947 0 0 1-2.941-2.94A2.947 2.947 0 0 1 10 5.025a2.947 2.947 0 0 1 2.942 2.941v4.027a2.947 2.947 0 0 1-2.941 2.941c-.475 0-.643.25-.643.466 0 .277.245.444.643.444Zm-2.71.706a1.137 1.137 0 1 1 .002-2.273 1.137 1.137 0 0 1-.002 2.273Zm2.71-.027c-1.782 0-1.737-2.263 0-2.263A2.263 2.263 0 0 0 12.264 12V7.972a2.263 2.263 0 1 0-2.262 2.262c.158 0 .357-.004.457-.045.199-.077.38-.113.547-.113 1.254 0 1.566 1.963-.027 2.316-.145.032-.29.05-.434.068a4.233 4.233 0 0 1-.539.037A4.527 4.527 0 0 1 5.48 7.972a4.527 4.527 0 0 1 4.525-4.525 4.526 4.526 0 0 1 4.525 4.525v4.027A4.536 4.536 0 0 1 10 16.524Z" fill="#637282"/></svg>