<svg width="20" height="20" viewBox="0 0 20 20" fill="none" xmlns="http://www.w3.org/2000/svg">
<g clip-path="url(#clip0_119_446)">
<path d="M9.18415 14.096L5.58116 16.1409C5.32148 16.2883 5.22883 16.6139 5.39953 16.8589C5.77627 17.3995 6.41863 18.1637 7.11997 18.6175C7.85253 19.0915 8.94044 19.3165 9.65769 19.3709C9.9427 19.3926 10.1642 19.1592 10.1676 18.8734L10.2166 14.7053C10.2229 14.1718 9.64813 13.8326 9.18415 14.096Z" fill="url(#paint0_linear_119_446)"/>
<path d="M19.2869 3.27082V17.6175C19.2869 18.9346 18.2192 20 16.902 20C15.5848 20 14.5171 18.9337 14.5171 17.6165V8.80124C14.5171 7.41866 13.0654 6.72737 11.7519 7.48779C10.9579 7.9475 7.17939 10.1994 4.45571 11.8093C3.26932 12.5106 1.74328 12.0765 1.09576 10.8599C0.483331 9.70931 0.887116 8.28043 2.01119 7.62052L13.8949 0.643924C16.3144 -0.738653 19.2869 0.0908935 19.2869 3.27082Z" fill="url(#paint1_linear_119_446)"/>
<path d="M19.2866 3.27082V17.6175C19.2866 18.9346 18.2189 20 16.9017 20C15.5845 20 14.5168 18.9337 14.5168 17.6165V8.80124C14.5168 5.04063 6.72824 6.12503 2.83398 7.13731L13.8946 0.643924C16.3141 -0.738653 19.2866 0.0908935 19.2866 3.27082Z" fill="url(#paint2_linear_119_446)"/>
<path d="M19.2876 3.27082V17.6175C19.2876 18.9346 18.2198 20 16.9026 20C15.5855 20 14.5177 18.9337 14.5177 17.6165V8.80124C14.5177 3.04972 10.4161 3.13102 8.36523 3.89062L13.8955 0.643924C16.3151 -0.738653 19.2876 0.0908935 19.2876 3.27082Z" fill="url(#paint3_linear_119_446)"/>
</g>
<defs>
<linearGradient id="paint0_linear_119_446" x1="7.63844" y1="13.502" x2="7.63844" y2="19.3843" gradientUnits="userSpaceOnUse">
<stop stop-color="#66EC97"/>
<stop offset="1" stop-color="#1DC2F2"/>
</linearGradient>
<linearGradient id="paint1_linear_119_446" x1="7.88069" y1="3.82396" x2="5.61997" y2="11.7981" gradientUnits="userSpaceOnUse">
<stop stop-color="#1C6574"/>
<stop offset="1" stop-color="#60FAB4"/>
</linearGradient>
<linearGradient id="paint2_linear_119_446" x1="10.8529" y1="2.78703" x2="9.816" y2="7.14214" gradientUnits="userSpaceOnUse">
<stop stop-color="#1C6574"/>
<stop offset="1" stop-color="#60FAB4"/>
</linearGradient>
<linearGradient id="paint3_linear_119_446" x1="13.8264" y1="0" x2="13.8264" y2="20" gradientUnits="userSpaceOnUse">
<stop stop-color="#66EC97"/>
<stop offset="1" stop-color="#1DC2F2"/>
</linearGradient>
<clipPath id="clip0_119_446">
<rect width="20" height="20" fill="white"/>
</clipPath>
</defs>
</svg>
