<svg viewBox="0 0 17 17" fill="none" xmlns="http://www.w3.org/2000/svg"><path d="M4.332 6.6c.206 1.03.688 1.993 1.375 2.887h6.446c.007 0 .003.007 0 .01a9.408 9.408 0 0 1-3.97 3.703c1.032.55 2.2.962 3.37 1.168a12.956 12.956 0 0 0 3.714-4.743c.412-.963.687-1.994.825-3.025H4.332Z" fill="#2C52D1"/><path d="M8.596 16.294a20.71 20.71 0 0 0 2.889-1.857c-1.17-.206-2.338-.618-3.439-1.168-2.888-1.719-4.745-4.194-5.089-6.944-.069-.344-.069-.688-.069-1.031V2.879h10.394v2.686h2.88V0H0v5.225c0 4.537 2.82 8.594 7.565 11l.481.275.55-.206Z" fill="#1932AE"/></svg>