<svg viewBox="0 0 20 20" fill="none" xmlns="http://www.w3.org/2000/svg">
  <path d="M7.52417 4.44727L6.58349 8.12413L0.289062 8.96257L7.52417 4.44727Z" fill="#57BAE5" />
  <path d="M10.8005 12.5983L8.76367 11.7354L9.22993 19.2731L10.8005 12.5983Z" fill="#005472" />
  <path d="M6.58349 8.12402L4.92706 11.6046L0.289062 8.96246L6.58349 8.12402Z" fill="#34AFE4" />
  <path d="M8.7641 11.7354L4.92773 11.6045L9.23035 19.2731L8.7641 11.7354Z" fill="#0076A7" />
  <path d="M6.58416 8.12402L8.7641 11.7354L4.92773 11.6046L6.58416 8.12402Z" fill="#009DE2" />
  <path d="M7.52467 4.44727L12.7475 5.11802L6.58398 8.12413L7.52467 4.44727Z" fill="#7ACDF2" />
  <path d="M18.4641 2.77832L15.1758 6.68831L15.4089 3.06871L18.4641 2.77832Z" fill="#7ACDF2" />
  <path d="M18.4648 2.7784L20.289 0.537109L19.8881 2.95427L18.4648 2.7784Z" fill="#7ACDF2" />
  <path d="M16.6934 4.81102L19.8876 2.95419L18.4643 2.77832L16.6934 4.81102Z" fill="#00ABE7" />
  <path d="M10.8005 12.5985L10.9559 8.11182L8.76367 11.7355L10.8005 12.5985Z" fill="#0076A7" />
  <path d="M10.9561 8.11182L8.76392 11.7355L6.58398 8.12409L10.9561 8.11182Z" fill="#008DBE" />
  <path d="M12.7475 5.11768L10.9561 8.11152L6.58398 8.12379L12.7475 5.11768Z" fill="#57BAE5" />
  <path d="M10.9562 8.11182L10.8008 12.5985L14.8089 16.7989L10.9562 8.11182Z" fill="#00698D" />
  <path d="M16.9057 14.4512L14.7871 9.06885L14.8076 16.7988L16.9057 14.4512Z" fill="#09A1CB" />
  <path d="M15.1759 6.68848L14.7874 9.06883L10.9551 8.11178L15.1759 6.68848Z" fill="#09A1CB" />
  <path d="M17.1184 9.92362L14.7871 9.06883L15.1757 6.68848L17.1184 9.92362Z" fill="#8BDAFF" />
  <path d="M17.9539 14.2998L15.4141 10.1362H16.8619L17.9539 14.2998Z" fill="#7ACDF2" />
  <path d="M13.2246 4.23448L15.1755 6.68845L15.4086 3.06885L13.2246 4.23448Z" fill="#57BAE5" />
  <path d="M14.7874 9.06886L10.9551 8.11182L14.8078 16.7989L14.7874 9.06886Z" fill="#008DBE" />
  <path d="M16.9062 14.4512L17.7528 14.9338L14.8203 16.7988L16.9062 14.4512Z" fill="#0076A7" />
  <path d="M17.9527 14.2549L14.7871 9.06885L16.9057 14.4512L17.9527 14.2549Z" fill="#57BAE5" />
  <path d="M13.225 4.23438L10.9551 8.11164L15.1759 6.68834L13.225 4.23438Z" fill="#7ACDF2" />
</svg>