<svg viewBox="0 0 20 20" fill="none" xmlns="http://www.w3.org/2000/svg"><path d="m7.524 4.447-.94 3.677-6.295.839 7.235-4.516Z" fill="#57BAE5"/><path d="m10.8 12.598-2.036-.863.466 7.538 1.57-6.675Z" fill="#005472"/><path d="m6.583 8.124-1.656 3.48L.29 8.963l6.294-.838Z" fill="#34AFE4"/><path d="m8.764 11.735-3.836-.13 4.302 7.668-.466-7.538Z" fill="#0076A7"/><path d="m6.584 8.124 2.18 3.611-3.836-.13 1.656-3.481Z" fill="#009DE2"/><path d="m7.525 4.447 5.223.671-6.164 3.006.94-3.677ZM18.464 2.778l-3.288 3.91.233-3.62 3.055-.29ZM18.465 2.778l1.824-2.24-.4 2.416-1.424-.176Z" fill="#7ACDF2"/><path d="m16.693 4.811 3.195-1.857-1.424-.176-1.77 2.033Z" fill="#00ABE7"/><path d="m10.8 12.598.156-4.486-2.192 3.623 2.037.864Z" fill="#0076A7"/><path d="m10.956 8.112-2.192 3.623-2.18-3.61 4.372-.013Z" fill="#008DBE"/><path d="m12.748 5.118-1.792 2.994-4.372.012 6.164-3.006Z" fill="#57BAE5"/><path d="m10.956 8.112-.155 4.486 4.008 4.2-3.853-8.686Z" fill="#00698D"/><path d="M16.906 14.451 14.787 9.07l.02 7.73 2.099-2.348ZM15.176 6.688l-.389 2.38-3.832-.956 4.22-1.424Z" fill="#09A1CB"/><path d="m17.118 9.924-2.33-.855.388-2.38 1.942 3.235Z" fill="#8BDAFF"/><path d="m17.954 14.3-2.54-4.164h1.448l1.092 4.164Z" fill="#7ACDF2"/><path d="m13.225 4.234 1.95 2.454.234-3.62-2.184 1.166Z" fill="#57BAE5"/><path d="m14.787 9.069-3.832-.957 3.853 8.687-.02-7.73Z" fill="#008DBE"/><path d="m16.906 14.451.847.483-2.933 1.865 2.086-2.348Z" fill="#0076A7"/><path d="m17.953 14.255-3.166-5.186 2.119 5.382 1.047-.196Z" fill="#57BAE5"/><path d="m13.225 4.234-2.27 3.878 4.22-1.424-1.95-2.454Z" fill="#7ACDF2"/></svg>