<svg width="200" height="202" fill="none" xmlns="http://www.w3.org/2000/svg"><path d="M120.873 62.016C121.469 32.5 104.756 6.782 96.051.6c-.04-.04-.815-.457-.755.696 0 .02-.02.02-.02.04-.894 55.75-29.552 70.776-45.112 91.208-34.58 45.434-5.724 97.27 31.657 107.088.637.159 2.366.676 5.645 1.351 1.709.359 2.206-1.093.954-3.259-4.472-7.771-12.421-20.889-13.99-37.744-3.578-39.134 45.747-63.62 46.443-97.965Z" fill="#3E5C6C"/><path d="M139.713 80.918c-.298-.219-.715-.199-.755.178-.795 7.096-8.129 21.804-17.787 35.558-32.513 46.369-16.137 67.397-3.418 81.986 2.345 2.703 3.517 2.107 4.75.179 1.152-1.829 2.901-4.154 10.414-7.712 1.172-.556 29.551-15.622 32.631-49.927 2.962-33.192-18.324-54.18-25.835-60.262Z" fill="#008CD6"/></svg>