<svg width="202" height="200" fill="none" xmlns="http://www.w3.org/2000/svg"><path d="M201.141 99.281c.183 16.456-3.261 32.18-10.025 47.203-9.66 21.392-32.82 38.885-53.969 20.265-17.248-15.176-20.448-45.984-46.289-50.494-34.191-4.145-35.014 35.501-57.351 39.981C8.61 161.294.352 119.424.717 100.408c.366-19.015 5.425-45.74 27.061-45.74 24.897 0 26.573 37.695 58.174 35.654 31.296-2.133 31.844-41.353 52.292-58.144 17.644-14.505 38.397-3.87 48.788 13.592 9.63 16.15 13.866 35.105 14.079 53.511h.03Z" fill="#072723"/></svg>