<svg viewBox="0 0 20 12" fill="none" xmlns="http://www.w3.org/2000/svg"><path d="M8.72 1.97 6.303 3.42l-1.624.467c-.894.255-1.864.535-2.158.62l-.535.155-.621-.008-.624-.01-.136.117a.874.874 0 0 0-.136.13c0 .008.156.21.345.452.188.242.344.444.348.452.002.008-.04.133-.095.28l-.1.265-.33.004-.332.002-.035-.097c-.02-.055-.076-.22-.126-.37-.051-.15-.1-.28-.111-.29a1.235 1.235 0 0 0-.267-.068l-.255-.05c-.006 0-.01.02-.01.048 0 .04.014.06.185.249l.187.204.331.627.323-.002c.177-.001.388-.005.468-.01l.144-.007.206-.42a5.5 5.5 0 0 0 .205-.447.366.366 0 0 0-.076-.124 16.81 16.81 0 0 0-.253-.327l-.176-.23L1.15 5a.826.826 0 0 1 .12-.034c.009 0 .249.074.53.166l.513.166.277.035c.152.02.276.035.278.037a8.9 8.9 0 0 1-.193.333l-.194.329-.446 1.229-.094 1.143-.617 1.297-.133.097a.7.7 0 0 0-.132.113c0 .02.216.789.298 1.053.039.131.076.242.086.25a7.4 7.4 0 0 0 .45.173c.332.125.45.162.492.162.041 0 .055-.004.055-.016 0-.01-.104-.202-.232-.428l-.234-.413.063-.46c.05-.377.066-.465.085-.494.049-.07.707-.875.725-.888.029-.02 2.202-.707 2.483-.785.157-.043.235-.06.24-.05.034.093.169.511.169.527 0 .012-.06.222-.137.471l-.136.45.035.22c.021.144.055.286.1.423l.064.204-.041.195c-.033.16-.041.222-.026.23.022.007 1.41.23 1.426.226a.03.03 0 0 0 .015-.012.033.033 0 0 0 .006-.02c0-.035-.198-.409-.23-.432a15.397 15.397 0 0 1-.27-.274l-.246-.256.018-.327.014-.325.338-.645c.185-.354.34-.648.343-.65.002-.004.138.027.302.066l.298.074 1.17.544 1.424.003 1.42-.734.463.096c.255.052.468.099.473.105.006.006-.12.091-.276.195l-.287.187-.5.116-.5.12-.164-.028a.974.974 0 0 0-.175-.018.079.079 0 0 0-.012.051c0 .055.117 1.324.125 1.344.011.035.074.01.272-.11.117-.067.213-.13.214-.134.004-.01.415-.617.425-.627.01-.008.84-.165.847-.16.002.003.041.176.088.382.047.216.09.384.1.394.019.02.026.017.165-.074l.091-.06.105-.23a3.29 3.29 0 0 1 .115-.242c.006-.008.286-.154.621-.325l.61-.314.11-.259.106-.259.002-.413.6-.465 1.096-.569.084-.243c.18-.522.197-.569.203-.569.003 0 .105.111.226.246l.22.243.806.42.615.125c.544.111.616.123.631.107.04-.039.008-.058-.374-.249l-.378-.189-.642-.483-.214-.249c-.209-.241-.215-.25-.172-.24.024.004.187.04.362.076l.32.069.602.015c.33.01.658.016.728.018h.127v-.076l-.653-.21c-.633-.205-.662-.217-1.038-.384l-.387-.172-.117-.14a.913.913 0 0 0-.144-.148 5.683 5.683 0 0 0-.296-.052c-.148-.026-.271-.045-.273-.047-.002-.002-.088-.218-.195-.483a7.539 7.539 0 0 0-.206-.487c-.008-.002-.407-.259-.888-.567-.799-.512-.886-.574-1.03-.699l-.978-.864-.82-.727-.627-.13c-.594-.125-.633-.133-.76-.13h-.134L8.72 1.97ZM11.33.927c.17.214.304.39.3.393a100.7 100.7 0 0 1-1.704.384c0-.004.729-.799.943-1.029.074-.08.14-.142.146-.142.006.002.148.18.316.394Zm.746-.035.08.03-.21.176a4.44 4.44 0 0 1-.214.175c-.006 0-.516-.642-.563-.707-.012-.017.28.088.907.326Zm-.091-.195c.189.039.345.074.345.074a.277.277 0 0 1-.05.047l-.052.042-.315-.118c-.304-.115-.364-.139-.3-.125l.372.08Zm-1.422.161-.428.446c-.168.176-.333.349-.372.388l-.066.068-.364.082c-.201.045-.369.08-.372.08A110.525 110.525 0 0 1 10.684.734l-.12.124Zm1.926.07.024.04-.08-.032A.777.777 0 0 1 12.34.9c-.004-.004.01-.023.035-.044l.045-.037.022.037c.013.019.033.054.046.074Zm.004.12c.076.029.088.036.12.089.015.02.024.04.034.062-.006.006-.765.088-.77.082a2.832 2.832 0 0 1 .188-.164l.193-.16.076.03c.042.017.114.045.16.06Zm.407.175a1.92 1.92 0 0 1-.265-.228c-.011-.018.043.025.121.095s.144.129.144.133Zm.041.027c.012.013.02.023.016.023a.102.102 0 0 1-.028-.023c-.011-.014-.02-.024-.015-.024.01.006.02.014.027.024Zm.623.62c.401.32.725.59.723.593a6.22 6.22 0 0 1-.343.086l-.337.078-.313-.526c-.583-.978-.524-.876-.487-.843l.757.611Zm-.516-.003c.187.316.353.592.364.614l.024.037-.053-.04-.796-.572-.746-.533.376-.043c.204-.024.399-.041.432-.041l.058.002.341.576Zm-1.663.174a27.94 27.94 0 0 1-.257.61 15.74 15.74 0 0 1-.843-.542c-.01-.01.148-.092.66-.34.372-.178.678-.326.682-.326.005-.004-.106.266-.242.598Zm1.266.023c.448.321.812.588.806.59-.012.01-1.571.349-1.577.34a37.461 37.461 0 0 1-.053-.724l-.054-.777-.008-.058.035.023c.02.012.401.285.85.606Zm-1.379-.547-.582.282c-.442.214-.506.242-.53.23a5.824 5.824 0 0 1-.313-.209 47.526 47.526 0 0 1 1.488-.342c.01-.002-.02.015-.063.039Zm.473.74c.028.387.047.709.041.712a9.62 9.62 0 0 1-.572-.262c-.002-.002.103-.265.235-.583.133-.32.242-.576.244-.574 0 0 .025.32.052.707Zm-2.45-.03a4.861 4.861 0 0 1-.31.35 6.739 6.739 0 0 1-.196-.525c.008-.008.799-.189.804-.183.004.004-.13.166-.297.358Zm.641-.247.164.107-.162.076-.407.197-.313.15-.065.03.059-.065.306-.331c.136-.148.249-.267.249-.267.004-.002.08.047.17.103Zm-1.125.384c.056.15.103.276.103.28 0 .004-.012.01-.025.014a372.895 372.895 0 0 0-2.173.631c-.014.004.428-.265.979-.596.55-.331 1.005-.604 1.009-.604l.107.275Zm1.832.08c.343.226.452.301.446.315A494.77 494.77 0 0 1 10.036 5.3c-.004.004-.232-.578-.507-1.295a69.508 69.508 0 0 1-.494-1.308 38.195 38.195 0 0 1 1.14-.547c.009-.002.219.13.468.294Zm3.648.13a3.777 3.777 0 0 1-.088.14l-.074.115-.074-.029a15.54 15.54 0 0 0-.2-.074l-.127-.045.286-.066.288-.068a.19.19 0 0 1-.011.027Zm.79.405c.37.238.672.434.668.436-.004.004-1.447-.52-1.515-.549-.025-.01-.023-.015.07-.163.053-.086.1-.154.1-.154.004 0 .307.195.677.43Zm-1.377.144c.082.22.148.4.146.401-.001.002-.41-.103-.909-.231-.498-.13-.905-.236-.902-.238.016-.006 1.494-.329 1.504-.329.006-.002.078.18.162.397Zm-4.243.935c.267.697.487 1.27.483 1.272-.002.004-2.765-1.465-2.765-1.473 0-.003.399-.257.888-.562.833-.524.886-.555.896-.532.005.016.227.598.498 1.295ZM8.66 2.823l-1.56.98a2.781 2.781 0 0 1-.335-.164 2.286 2.286 0 0 1-.304-.177c.033-.012 2.199-.652 2.21-.654.006 0 .002.006-.011.015Zm3.018.199a.46.46 0 0 1 .127.074l.076 1.098.074 1.087a269.66 269.66 0 0 1-.729-2.463.99.99 0 0 1 .164.068c.088.043.216.103.288.136Zm3.432.493.989.512-.115.117a2.193 2.193 0 0 1-.304.247c-.103.074-.19.13-.195.129-.01-.004-.235-.187-.638-.518l-.364-.298-.34-.415a29.03 29.03 0 0 0-.364-.444c-.025-.033-.136-.09 1.33.67Zm-3.554.72.406 1.375c.002.008-.01.01-.033.008l-.932-.113c-.725-.088-.896-.113-.894-.127.004-.02 1.012-2.457 1.03-2.49.006-.012.014-.02.016-.018l.407 1.365Zm2.463-.956c.164.199.292.36.288.362a1.845 1.845 0 0 1-.179-.043l-.171-.044-.098-.26c-.052-.142-.109-.288-.12-.323a.218.218 0 0 1-.02-.058l.3.366Zm1.184.037.917.335v.29l-.243-.126c-.974-.505-1.622-.844-1.609-.84l.935.341Zm-2.33.047.97.25-.042.048-.894.98-.849.93-.078-1.137-.086-1.229c-.004-.049-.004-.091.002-.091.004 0 .444.112.978.249Zm-6.239.31c.17.091.306.165.306.169-.006.004-4.163.69-4.165.685a2.972 2.972 0 0 1 .233-.072c.13-.037.93-.266 1.772-.51.844-.241 1.537-.44 1.539-.438l.315.165Zm7.545.027c.091.023.17.046.175.048.004.004-.204.31-.462.678-.414.592-.508.723-.48.672l.303-.684c.255-.58.296-.677.292-.716-.004-.024-.004-.043.002-.043.002.002.08.021.17.045Zm-.263.048c-.014.024-.016.016-.006-.013.004-.01.01-.016.014-.014s0 .016-.008.027Zm-.384.744c-.146.378-.265.69-.267.692-.01.007-1.075.381-1.079.377a192.068 192.068 0 0 1 1.607-1.762c.002.006-.115.316-.26.693Zm.966-.37c.037.152.07.285.07.294.002.016-.656.52-.726.557-.018.01-.092.037-.164.065l-.132.046.023-.033a69.96 69.96 0 0 1 .851-1.203c.004-.002.04.122.078.274Zm.32-.035c.15.121.274.226.28.23a1.6 1.6 0 0 1-.187.17c-.119.097-.197.155-.2.147a50.702 50.702 0 0 1-.195-.782c0-.012-.02-.028.301.235Zm1.526.103c.074.182.13.33.129.332a2.303 2.303 0 0 1-.253-.032c-.002-.002-.004-.146-.008-.319l-.002-.314.134.333Zm-7.902.443c.751.399 1.367.728 1.365.732-.004.004-5.97-.534-6.057-.546l-.05-.007.046-.055c.028-.031.113-.123.193-.206l.144-.152 1.486-.246 1.494-.247c.006 0 .627.327 1.379.727Zm7.69-.35v.145l-.074-.07a1.717 1.717 0 0 0-.08-.074.824.824 0 0 1 .142-.144c.008 0 .012.066.012.144Zm-.2.412c-.094.09-.172.161-.174.16a12.31 12.31 0 0 1 .164-.466c.011-.03.013-.03.097.057l.086.085-.174.164Zm-.651-.222.101.086-.247.044a2.836 2.836 0 0 1-.263.041c-.018-.002.277-.255.298-.255a.749.749 0 0 1 .11.084Zm.458.179-.086.247-.055-.142a1.715 1.715 0 0 1-.054-.152c0-.01.274-.208.28-.202 0 .004-.039.115-.085.249ZM3.878 4.49c-.033.037-.113.125-.175.191l-.115.123-.631-.059-.63-.056.791-.132c.437-.072.797-.133.807-.133.005 0-.014.03-.047.066Zm10.748.207c-.05.021-.1.04-.152.058l-.253.09a.567.567 0 0 1-.104.033c.004-.004.113-.086.242-.181l.233-.174.022.082c.012.043.015.086.012.092Zm1.822-.09c.084.01.055-.01.46.306.125.097.224.177.222.181a.397.397 0 0 1-.084-.016c-.074-.019-.107-.04-.393-.249-.355-.259-.333-.243-.302-.235.031.005.064.01.097.013Zm-.927.187c.022.05.04.103.053.156a39.07 39.07 0 0 1-.697-.21 6.91 6.91 0 0 1 .551-.1c.033.002.037.008.093.154Zm.756.1c.055.132.1.243.097.247a1.267 1.267 0 0 1-.144-.094l-.148-.103a.676.676 0 0 1 .041-.15c.027-.08.053-.142.053-.142l.101.241Zm.734-.197c.098.013.105.02.172.107.023.03.007.025-.145-.047-.175-.08-.2-.093-.151-.082l.124.022Zm-.98.105a.751.751 0 0 1-.038.1.318.318 0 0 1-.104.03l-.093.02.129-.125c.07-.068.13-.12.132-.119a.48.48 0 0 1-.025.094ZM1.03 4.87c-.014.002-.111-.002-.216-.006l-.191-.01.144-.12.142.066c.088.039.134.066.12.07Zm.617-.13c.05.007.047.01-.16.07l-.212.062-.146-.068a4.832 4.832 0 0 1-.152-.07c-.01-.008.616-.002.67.006Zm.471.056c.002.002-.007.004-.023.004a4.25 4.25 0 0 0-.199.018c-.093.01-.175.015-.183.015a1.29 1.29 0 0 1 .137-.045l.148-.046.058.023c.021.012.04.021.062.031Zm14.481.277a.594.594 0 0 1-.105.115 14.962 14.962 0 0 1-.18-.437c-.005-.01.061.055.147.142.127.135.15.166.138.18Zm-1.114-.059c.407.125.739.23.737.232-.008.006-1.823.097-1.874.093l-.043-.003.203-.28c.138-.194.208-.281.22-.277l.757.235Zm1.625-.132c.231.107.222.097.204.19l-.008.043-.189-.148c-.253-.196-.249-.194-.235-.19.008.005.11.05.228.105ZM3.18 4.849c.165.013.305.03.311.035.012.01-.198.235-.232.249-.013.006-.146-.04-.389-.136a4.666 4.666 0 0 1-.364-.15c.01-.01.267-.033.321-.03.027.004.187.018.353.032Zm11.375-.022-.376.526c-.002.002-.172.023-.378.049-.208.027-.4.052-.425.054-.043.006-.021-.013.22-.193.254-.188.275-.202.39-.243.088-.031.512-.183.572-.206.004 0 .002.005-.003.013Zm-12.067.111c.11.043.205.082.209.086.004.004-.076.049-.178.1l-.187.093-.393-.127-.422-.138c-.026-.01.04-.02.358-.05.214-.022.393-.04.401-.042.006 0 .103.035.212.078Zm14.244.084c-.02.004-.047-.016-.104-.074l-.077-.08.103.076c.084.06.1.076.078.078ZM4.275 5.08l-.843.065-.06.004.124-.13.123-.131.718.066.72.064-.782.062Zm-3.29-.126c.015.01.015.012-.005.01a.497.497 0 0 1-.053-.01c-.029-.01-.029-.01.006-.01a.12.12 0 0 1 .053.01Zm-.022.103.087.115c.045.058.11.14.14.183.033.04.053.07.043.064-.017-.01-.496-.397-.53-.426-.01-.008.038-.002.117.02a.801.801 0 0 1 .143.044Zm15.16.016c.035.023.07.048.103.076 0 .003-.023-.002-.259-.076l-.146-.045.07-.012c.121-.021.123-.02.232.057Zm1.636.103.337.152.004.091c.002.049-.002.092-.008.092s-.17-.076-.36-.17l-.349-.169.006-.047c.01-.074.016-.097.025-.097.006-.002.16.066.345.148ZM6.137 5.117c.197.018.36.035.364.037.008.01.302 1.3.298 1.313a64.98 64.98 0 0 1-1.145-1.383c-.008-.013.004-.013.06-.007.037.005.228.023.423.04Zm-3.3.06a.385.385 0 0 1 .034.1 3.322 3.322 0 0 1-.35-.037c-.026-.006-.006-.02.118-.082l.154-.076a.665.665 0 0 1 .045.096Zm2.476-.089c-.01.012-2.463 1.373-2.463 1.37 0-.014.45-1.204.46-1.212.003-.004.43-.043.946-.084.9-.072 1.07-.084 1.057-.074Zm-2.204.103c0 .004-.008.01-.014.014l-.076.03-.062.025-.024-.063a3.076 3.076 0 0 1-.03-.082c-.007-.015.013-.011.098.024.06.023.108.049.108.052Zm2.397.372c.006.252.008.46.006.462-.006.006-2.475.45-2.481.448a228.983 228.983 0 0 1 2.46-1.37c.003.003.009.21.015.46Zm11.383-.434a.473.473 0 0 1 .09.12c.036.063.071.12.075.127.022.034-.004.01-.125-.12-.118-.125-.124-.137-.093-.135.018 0 .035.002.053.008Zm.116.335c.178.183.39.401.472.483l.146.152-.033.014-.248.087-.214.074-.292-.489a11.13 11.13 0 0 1-.288-.498c.006-.016.12-.154.126-.154.004-.002.152.148.331.331Zm-10.847.393c.304.37.557.678.563.688a9.843 9.843 0 0 1-.555-.23l-.565-.243-.008-.142a15.72 15.72 0 0 1-.011-.46c-.004-.267-.004-.316.01-.3.01.008.264.316.566.687Zm2.088-.549c.863.078 1.575.142 1.585.146.01.002-.64.263-1.445.583-.802.319-1.462.578-1.464.576a48.35 48.35 0 0 1-.164-.705l-.165-.726c-.004-.024-.002-.026.038-.02.026.004.752.068 1.615.146Zm5.336-.138-.103.08c-.082.062-.096.068-.08.04.039-.064.052-.075.109-.099.054-.021.087-.03.074-.021Zm3.558.018.081.021-.058.023c-.031.014-.062.026-.064.028-.004.002-.022-.02-.04-.045-.036-.055-.034-.057.08-.027Zm-15.99.284.31.251-.15.19-.164.21a.638.638 0 0 1 .05-.16c.055-.148.063-.18.05-.199a14.93 14.93 0 0 0-.363-.465c-.049-.063-.078-.104-.065-.094.012.006.162.129.331.267Zm16.484-.084c.16.076.289.138.287.14 0 0-.135-.007-.298-.02l-.349-.022c-.053 0-.054-.002-.097-.074l-.045-.075.027-.011.098-.043c.025-.014.052-.023.08-.033.005 0 .14.062.297.138Zm-14.572.05c-.06.092-.113.164-.113.164.002-.044.008-.087.015-.132l.02-.129.088-.037a.385.385 0 0 1 .093-.035 1.51 1.51 0 0 1-.103.17Zm10.126-.058c-.033.084-.042.098-.072.107-.054.014-.629.082-.644.078-.008-.002.16-.066.37-.142l.383-.138s-.013.043-.037.095Zm3.132-.044c0 .007-.729.525-.75.533a18.61 18.61 0 0 1-1.143-.442 75.727 75.727 0 0 1 1.784-.093.982.982 0 0 1 .109.002Zm2.664.28c.027.008.049.016.045.02-.004.005-.764-.075-.818-.086-.025-.004-.027-.012-.027-.098v-.095l.375.123c.205.068.396.128.425.136Zm-2.495-.154c.004.014.002.022-.004.016-.003-.002-.005-.006-.007-.01s-.002-.008-.002-.014c-.002-.023.006-.02.013.008Zm-2.524.119c-.05.074-.113.162-.138.197l-.047.064-.044.39c-.026.214-.047.4-.047.414 0 .014-.101-.226-.224-.53a14.426 14.426 0 0 1-.22-.556c.002-.002.183-.028.403-.055.22-.03.403-.053.405-.055 0 0-.037.06-.088.13Zm-2.989.004c.464.054.859.105.876.109.032.008-.035.049-.677.432-.39.234-.715.427-.719.429a26.498 26.498 0 0 1-.364-1.073c0-.004.01-.004.021-.002.012.004.4.05.863.105Zm5.285-.064c-.023.033-.16.114-.17.103a1.109 1.109 0 0 1 .194-.142c.002.002-.01.02-.024.039Zm-1.6.356c.187.175.338.321.338.325-.001.008-1.09.896-1.094.892a4.338 4.338 0 0 1 .086-.255l.09-.253.077-.551.08-.551.043.037c.021.023.193.183.38.356Zm-4.474.158c.1.294.178.54.174.543a182.9 182.9 0 0 1-2.068.035c-.002-.002 1.704-1.11 1.715-1.114l.18.536Zm4.86-.267.404.163c.01.01-.338.209-.364.209-.011 0-.666-.604-.666-.614.04.012.078.026.115.041l.51.2Zm1.172.251c-.08.267-.148.493-.148.499a.84.84 0 0 1-.108-.129c-.06-.082-.099-.144-.093-.154.014-.023.493-.7.493-.7l-.144.484ZM2.984 5.842a8.04 8.04 0 0 1-.119.304c-.004.004-.004-.01.002-.03.004-.019.016-.095.025-.169l.02-.134L3 5.68c.048-.074.091-.134.091-.134.002-.002-.047.132-.107.296Zm11.092.195-.07.492-.068.063c-.107.097-.109.099-.103.011.004-.04.01-.216.014-.39l.007-.315.145-.177c.077-.097.144-.177.144-.177s-.03.222-.069.493Zm2.643-.285.103.181-.087-.093c-.076-.086-.088-.103-.107-.18-.024-.093-.026-.099-.018-.09 0 0 .05.085.11.182ZM-.17 5.62c.082.015.148.033.148.033.002.002.059.17.129.374s.132.378.138.385c.01.01.064.016.197.016l.183.002-.183.047c-.137.035-.183.04-.191.03C.244 6.5.174 6.367.09 6.21c-.16-.302-.144-.282-.432-.594-.037-.039-.037-.039-.008-.033.02.006.1.021.18.037Zm3.02.062-.013.092-.076.056a.315.315 0 0 1-.08.053 2.543 2.543 0 0 1 .18-.3.554.554 0 0 1-.01.1Zm10.217-.097c0 .004-.094.12-.21.259l-.21.251-.256-.197a2.852 2.852 0 0 1-.243-.198 49.8 49.8 0 0 1 .9-.12c.009 0 .019 0 .019.005Zm3.449.11.044.075-.163.263a8.444 8.444 0 0 1-.17.27c-.007.008.178-.627.209-.71.004-.02.01-.014.08.103Zm1.491-.081c.047 0 .051.002.035.018-.015.015-.029.015-.117-.006-.089-.022-.093-.024-.034-.018.034.004.087.006.116.006Zm.343.035c.07.01.064.01-.07.012-.129.002-.144-.002-.13-.016.011-.013.029-.015.07-.011l.13.015Zm-8.746 0c-.008.004-.344.226-.75.487l-.738.477-.494.01c-.273.004-.49.004-.483.002.013-.008 2.463-.984 2.471-.984.002-.002 0 .002-.006.008Zm3.609.46c.03.249.054.453.052.455-.003.004-.504-.377-.53-.403-.01-.01.046-.083.197-.267.115-.14.215-.249.219-.245.001.004.03.21.062.46Zm2.771-.191-.16.226-.02.025-.077-.105a.92.92 0 0 1-.078-.115c0-.01.462-.24.47-.232 0 0-.06.092-.135.2Zm-4.055-.125-.247.627c-.132.337-.243.616-.247.618-.006.005-.906-.411-.906-.421 0-.008 1.383-.835 1.396-.835.006-.002.008.005.004.011Zm.234.322c.068.167.125.31.12.315-.003.01-.72.543-.724.537-.002-.001.102-.264.23-.588.127-.321.236-.582.24-.576.006.004.064.144.134.312Zm1.322.278c.1.25.181.46.18.467-.004.014-.222-.146-.285-.204-.015-.018-.029-.096-.068-.393a21.285 21.285 0 0 1-.047-.388c.002-.023.008-.01.22.518ZM2.778 6.155c-.022.139-.041.25-.045.25a1.91 1.91 0 0 1-.158-.331 2.54 2.54 0 0 1 .236-.174c.002.004-.012.12-.033.255Zm9.752-.042.063.046-.037.045-.037.043-.06-.078a19.476 19.476 0 0 1-.135-.177l-.076-.1.11.086.172.135Zm-.21.03.115.16c.004.01-.012.032-.037.05l-.041.03-.01-.027-.082-.204a1.096 1.096 0 0 1-.062-.166c.004.008.056.078.117.158Zm3.46.147c.121.163.222.304.226.311.004.008-.015.026-.054.045-.047.024-.127.041-.325.074a4.495 4.495 0 0 1-.267.04 13.316 13.316 0 0 1-.228-.536c.014-.01.417-.23.423-.23.005 0 .107.132.225.296ZM1.26 6.142c-.01.025-.054.119-.099.206l-.082.164H.9c-.1 0-.2.002-.22.006-.024.002.046-.016.151-.043l.193-.049.126-.163c.07-.092.129-.164.129-.164a.198.198 0 0 1-.018.043Zm4.27.668c.007.415.009.685.001.691-.006.004-.198.058-.428.119l-.419.109-.907-.57c-.567-.355-.9-.571-.885-.573l1.315-.238a51.69 51.69 0 0 1 1.299-.226c.006.004.015.314.023.688Zm10.868-.55c-.053.154-.057.162-.121.197l-.058.031s.044-.08.105-.175a3.46 3.46 0 0 1 .11-.173.976.976 0 0 1-.036.12Zm-10.195.164c.327.14.596.26.6.261.004.004-.144.154-.33.333l-.334.327-.253.067a8.857 8.857 0 0 1-.256.064 88.036 88.036 0 0 1-.029-1.247c0-.033.002-.06.006-.06l.596.255Zm11.523-.235c.015.019.014.019-.004.003a.057.057 0 0 1-.021-.02c0-.007.01-.001.025.017Zm-15.114.19.088.178-.201.21c-.234.243-.304.311-.296.286.039-.12.312-.859.316-.855.003.002.046.084.093.181Zm15.164-.048c.1.07.182.126.18.13a6.672 6.672 0 0 1-.341-.07 3.817 3.817 0 0 1-.331-.08c.008-.008.274-.103.294-.105.008 0 .097.055.198.125Zm-4.794.128.316.244.03.083c.016.047.069.185.114.31l.081.224-.074-.08-.467-.493a12.39 12.39 0 0 1-.395-.426c0-.012.064-.101.074-.103.004-.002.146.109.321.241Zm2.282.302c.004.016-.003.021-.039.027-.04.006-.056.02-.132.113-.082.1-.097.113-.259.209l-.199.118c-.023.014-.003-.027.08-.198.06-.119.166-.331.232-.471l.123-.254.093.218c.053.12.098.226.101.238Zm-.55.08c-.155.313-.232.46-.244.46-.01 0-.14-.02-.288-.043-.222-.037-.267-.047-.254-.059.032-.03.996-.818 1.003-.818.004 0-.093.207-.218.46Zm-2.073-.234c.072.119.14.228.15.242.01.015.012.027.012.027-.004 0-.094-.094-.2-.21l-.195-.21.042-.032a.46.46 0 0 1 .051-.033c.004.002.068.1.14.216Zm5.16-.09c.194.042.353.079.355.082a.815.815 0 0 1-.124.047l-.13.043-.233-.119c-.204-.107-.245-.13-.226-.13.006 0 .166.035.359.078Zm-5.154.322c.166.181.325.349.349.376l.044.048.12.53c.063.292.118.536.118.544 0 .005-.195.112-.432.235-.812.417-.896.46-.857.423l.516-.468c.378-.342.479-.442.479-.463 0-.016-.17-.35-.378-.744a45.088 45.088 0 0 1-.378-.723.516.516 0 0 1 .11-.081c.001-.004.142.142.309.323Zm3.642-.26a.046.046 0 0 1-.012.022.046.046 0 0 1-.021.012c-.094.02-.094.02-.03-.023a.286.286 0 0 1 .069-.037.077.077 0 0 1-.006.027Zm-12.662.587.823.52c-.007.008-1.877-.36-1.877-.368.004-.037.21-.678.218-.674.004.002.382.236.836.522Zm8.872.127.337.64-.261-.165-.645-.415a5.357 5.357 0 0 1-.383-.255c.004-.012.59-.444.603-.444.008 0 .164.288.349.639Zm5.982-.538c.115.049.209.092.207.094a6.48 6.48 0 0 1-.31-.06c-.303-.061-.305-.061-.265-.08a.388.388 0 0 1 .137-.043c.011-.002.117.039.232.09Zm-8.642-.07c-.066.014-2.277.403-2.279.401-.002-.002.074-.05.166-.109l.302-.195.136-.087.471-.008c.573-.008 1.235-.01 1.204-.002Zm1.131.602c.298.327.538.596.536.6-.006.006-3.29-.014-3.295-.022a71.73 71.73 0 0 1 1.1-.596 41.355 41.355 0 0 1 1.112-.584c.004.006.251.277.547.602Zm2.154-.257c.133.138.257.27.277.292.035.037.03.037-.129-.039l-.165-.078-.137-.22-.163-.267-.03-.048.053.052c.031.031.162.17.294.308Zm-5.162-.32c-.016.014-.583.378-.6.386a1.462 1.462 0 0 1-.191-.187l-.175-.193.216-.006c.391-.01.761-.01.75 0Zm2.188.012c-.091.053-2.097 1.12-2.107 1.124-.013.004-.61-.64-.6-.65.006-.007 2.668-.482 2.707-.484.016 0 .016.002 0 .01Zm3.78.027c-.003.016-.029.082-.052.152l-.045.125v-.111l-.002-.11.045-.04c.05-.047.066-.053.054-.016Zm2.09-.004a5.9 5.9 0 0 1-.425.217c.02-.02.355-.213.378-.218.04-.01.059-.01.047.001Zm-8.94.203c.1.11.182.204.179.208-.004.004-.332.152-.729.33l-.722.32.14-.137c.35-.345.939-.922.942-.922l.19.201Zm3.95.004.39.181.063.317c.033.176.058.322.058.322-.002.002-.209-.222-.46-.499-.249-.276-.451-.5-.446-.5.002-.002.181.08.396.179Zm2.602.03c-.002.009-.007.09-.011.176l-.008.158-.076-.204c-.04-.113-.086-.232-.097-.263l-.024-.057.11.086c.075.056.11.091.106.103Zm1.852-.057a2.627 2.627 0 0 1-.22.126c-.003-.03-.007-.062-.007-.093l-.004-.092.035-.006a7.46 7.46 0 0 1 .383-.064c.018-.002-.052.049-.187.129ZM2.517 6.897l-.11.193-.107.187a.438.438 0 0 1-.07-.012l-.068-.015.175-.181c.156-.162.195-.199.18-.172Zm.027.228a.762.762 0 0 1-.07.181c-.008-.002-.028-.002-.043-.004-.018 0-.03-.007-.025-.015.003-.02.19-.349.194-.345 0 0-.023.084-.056.183Zm12.629-.02a.846.846 0 0 1-.127.088l-.152.094c-.015.01.016-.035.07-.1l.154-.18.053-.063.004.074a.443.443 0 0 1-.002.088Zm-1.453.009-.016.064-.002-.066c-.001-.069.008-.09.026-.072.006.005.004.037-.008.074Zm-1.651.434c.383.243.424.272.372.253-.06-.023-.867-.36-.873-.364a3.143 3.143 0 0 1-.048-.226c0-.008.038.01.085.04.047.03.255.162.464.297Zm-4.439 0 .3.327-.525.027c-.468.024-.587.026-1.072.016l-.545-.01 1.54-.69.302.33Zm7.114-.238c-.037.045-.085.1-.107.123l-.037.043-.037-.101.115-.07a.974.974 0 0 1 .125-.07.526.526 0 0 1-.059.075Zm-.55.033c.26.041.286.047.297.07.01.026.006.03-.08.063-.09.037-.093.037-.303.037h-.213l-.03-.033a.096.096 0 0 1-.026-.04c-.006-.015-.008-.03-.006-.046 0-.086.01-.11.047-.101.013.004.157.027.313.05Zm-11.968.004.034.008-.059.093-.025-.048c-.01-.018-.018-.037-.026-.055.004-.01.034-.008.076.002Zm12.738.006a.493.493 0 0 1-.06.05 5.695 5.695 0 0 0-.171.133.432.432 0 0 1-.104.07c.004-.011.32-.255.334-.257l.002.004ZM2.45 7.394c.006.006-.087.327-.099.339a.677.677 0 0 1-.053-.094l-.048-.097.097-.17.047.008a.17.17 0 0 1 .056.014Zm10.99.243c.136.127.224.217.22.224a4.46 4.46 0 0 1-.31.388 9.976 9.976 0 0 1-.1-.429 19.84 19.84 0 0 0-.097-.436c-.011-.021-.004-.017.287.253Zm.303-.187c-.015.016-.029-.01-.015-.033.014-.023.014-.023.017.002.004.012.004.022-.002.031Zm-10.222.146c.516.098.943.18.947.182.004.002-.407.103-.913.226l-.945.227c-.016.004-.04-.037-.115-.185l-.093-.19.064-.209c.037-.115.068-.216.07-.224a.02.02 0 0 1 .012-.01.02.02 0 0 1 .015 0c.012.002.444.086.958.183Zm10.1.012a.28.28 0 0 1 .017.08 4.927 4.927 0 0 1-.302-.275 1.6 1.6 0 0 1 .133.059l.13.062.022.074Zm-11.504.098c-.021.09-.04.16-.04.16-.003-.003.023-.345.03-.41.003-.004.012.016.026.041l.025.047-.04.162ZM5.83 7.65l-.189.183-.008-.068a3.279 3.279 0 0 1-.01-.133l-.001-.064.187-.048c.101-.028.19-.05.196-.05a2.857 2.857 0 0 1-.175.18Zm6.302.111c.288.119.516.218.506.22a25.11 25.11 0 0 1-.983-.095 1.862 1.862 0 0 1-.059-.347c.006.004.248.103.536.222Zm1.714-.097c.082.07.095.085.113.14l.017.062.086.031c.08.03.124.059.124.082 0 .004-.064.129-.144.275-.124.226-.148.263-.169.259l-.171-.02-.148-.013.109-.316.113-.315-.02-.121c-.02-.134-.02-.144-.012-.144.035.023.069.05.102.08Zm.282-.076a.234.234 0 0 1-.06.025c-.059.02-.063.02-.086-.004l-.025-.025h.085a.41.41 0 0 1 .086.004Zm-8.576.16V7.9l-.203-.039a15.85 15.85 0 0 0-.343-.066l-.138-.027.316-.086a5.16 5.16 0 0 1 .342-.086c.026 0 .026.002.026.152Zm8.929-.131c-.01.014-.063.076-.117.14-.094.11-.102.117-.13.105a.397.397 0 0 1-.092-.08l-.063-.068.176-.058c.095-.033.19-.06.208-.06.03 0 .031.001.018.02Zm-12.217.15.043.084-.113.169c-.06.094-.109.16-.107.146.004-.014.031-.12.06-.241.059-.236.065-.254.07-.248a.901.901 0 0 1 .047.09Zm12.294.26a.548.548 0 0 1-.16-.09c0-.005.036-.032.077-.06a.274.274 0 0 0 .08-.061c.005.03.007.064.005.095a.58.58 0 0 1-.002.117Zm-9.517-.14c.197.038.355.069.353.07a3.232 3.232 0 0 1-.185.055c-.136.04-1.702.532-1.938.61-.02.008-.03.008-.027.004.008-.008 1.424-.803 1.435-.807.004 0 .166.03.362.069Zm-.68.014c-.95.53-1.487.828-1.5.834-.016.004-.044-.041-.127-.207-.059-.118-.103-.214-.103-.214l1.737-.422c.005 0 .002.003-.006.01Zm-1.94.526c-.055.078-.157.23-.23.335-.073.107-.133.185-.137.177-.002-.01-.01-.124-.02-.255-.011-.202-.011-.243.003-.265.01-.013.081-.128.163-.253l.148-.228.084.176.084.173-.096.14Zm8.872-.456.132.008-.625.321a9.269 9.269 0 0 1-.645.318 518.63 518.63 0 0 1-1.865-.66c-.026-.008 2.835.004 3.003.013Zm-3.512.02c-.029.015-.077.043-.109.058l-.054.03-.18-.043-.178-.045.222-.014a7.23 7.23 0 0 1 .288-.013l.064-.002-.053.029Zm.754.483c.037.039.004.025-.376-.15a6.379 6.379 0 0 1-.417-.203c0-.006.059-.04.133-.081l.136-.074.242.233c.134.127.26.251.282.275Zm-2.236-.477c.271 0 .493.004.493.007 0 .008-.896.444-.968.474a1.863 1.863 0 0 1-.091-.248l-.082-.249.08.008c.039.004.296.008.568.008Zm8.14.068.08.047-.08.052c-.044.03-.085.049-.09.043a.313.313 0 0 1-.016-.107c-.01-.11-.018-.107.107-.035Zm-5.359.263.844.3c-.002.002-.254-.002-.557-.004l-.555-.006-.306-.3a4.822 4.822 0 0 1-.288-.294c.01.002.399.138.862.304Zm3.352-.277a.074.074 0 0 1-.03 0c-.007-.004-.001-.006.014-.006.018 0 .024.004.016.006Zm.28.027.041.008-.035.012c-.027.01-.062.006-.154-.016l-.119-.027.113.008c.051.002.104.008.154.015Zm1.539.127.008.084-.092.058-.109.068c-.01.006-.004-.01.014-.042.015-.03.058-.104.091-.17.041-.076.064-.11.07-.1.01.034.014.069.018.102Zm-.697.012c-.024.064-.05.138-.059.165l-.02.05-.04-.032c-.024-.018-.037-.037-.035-.047.006-.014.185-.251.19-.251 0 0-.013.052-.036.115Zm-6.75.006c-.025.046-.146.276-.267.51-.123.233-.23.434-.238.446-.011.02-.027-.004-.12-.187l-.11-.21.034-.026.387-.321c.195-.164.359-.296.359-.296a.69.69 0 0 1-.045.084Zm-.148-.04c-.008.005-.152.125-.323.267l-.31.257-.156-.155.242-.115c.132-.064.305-.148.387-.19.14-.07.183-.087.16-.063Zm6.068.018-.413.372c-.21.191-.405.364-.428.388l-.047.042.049-.091.107-.193.058-.101.263-.171c.302-.197.427-.275.436-.275 0 0-.01.014-.025.03Zm1.762.074-.042.103a.43.43 0 0 1-.032.069c-.005.003-.015-.024-.025-.065-.013-.06-.013-.074.002-.082.02-.011.039-.025.059-.038.054-.04.06-.037.038.013Zm-.165.189.02.088a2.37 2.37 0 0 1-.28-.03.87.87 0 0 1 .11-.081.53.53 0 0 1 .123-.07.429.429 0 0 1 .027.093Zm-11.56.35a24.7 24.7 0 0 1-.565.69 18.02 18.02 0 0 1 .187-.557l.191-.551.097.202c.053.111.094.209.09.217Zm10.61-.35c.019.016.037.035.037.041 0 .004-.094.064-.209.13l-.24.139c-.015.01.008-.016.053-.059.251-.23.308-.28.316-.282a.26.26 0 0 1 .043.031Zm.446.127c.003.004-.487.446-.51.46a.732.732 0 0 1 .064-.166c.044-.098.097-.21.114-.253l.036-.076.146.015c.081.008.147.018.15.02Zm-.799-.012c0 .012-.487.444-.5.444-.008.002-.135.023-.285.053-.148.029-.272.05-.274.048a85.533 85.533 0 0 1 1.055-.549c.004 0 .004.004.004.004Zm-10.75.438-.161.46c-.014.03-.016.013-.03-.172L2.063 9.1l.171-.255a6.09 6.09 0 0 1 .175-.253c.002.002-.062.194-.142.426Zm11.843-.401a.84.84 0 0 1 .105.014c.023.007-.02.03-.507.28l-.27.138.064-.058.247-.224c.18-.164.183-.168.23-.162l.13.012Zm-.73.043a726.573 726.573 0 0 0-.38.832l-.092.202-.066.04a.53.53 0 0 1-.072.042 8.69 8.69 0 0 1-.152-.696c.004-.01.755-.457.775-.461a.17.17 0 0 1-.014.04Zm-7.494.045c.048.048.066.074.058.085-.025.041-.304.423-.306.419a9.73 9.73 0 0 1 .172-.575.648.648 0 0 1 .076.07Zm6.035-.041s-.063.117-.139.253l-.138.247-.066-.039c-.208-.119-.47-.274-.465-.276.003-.004.778-.19.8-.191.004 0 .008.002.008.006Zm-9.95.253.008.158-.132.196c-.074.11-.137.197-.139.195a9.16 9.16 0 0 1 .12-.401c.135-.446.128-.438.143-.148Zm8.869-.068.09.015c.005.004-.145.429-.152.429a1.17 1.17 0 0 1-.024-.17 10.478 10.478 0 0 0-.021-.23c-.008-.066-.014-.064.107-.044Zm.292.117a.999.999 0 0 1 .113.072c.006.01-.053.742-.06.75a2.62 2.62 0 0 1-.191-.14l-.19-.147a7.518 7.518 0 0 1 .215-.596c.037.018.076.037.113.06Zm-9.478.375-.11.359-.058-.004a.228.228 0 0 1-.062-.008 7.484 7.484 0 0 1 .166-.358 7.35 7.35 0 0 1 .171-.353c.002.006-.047.168-.107.364Zm4.17.185c-.06.298-.11.555-.116.571-.013.053-.085-.197-.12-.417l-.033-.198.183-.254a5.75 5.75 0 0 1 .187-.249c.001.004-.043.25-.102.547Zm.387.433a8.65 8.65 0 0 1-.503.582l.154-.779.154-.779.097.477c.053.263.098.487.098.499Zm.029-.483-.008.154-.048-.242a22.25 22.25 0 0 1-.057-.282c-.004-.028.014.002.059.087l.066.13-.012.153Zm5.2.004c-.088.13-.164.235-.164.235a14.9 14.9 0 0 1 .05-.582l.006-.049.27.156-.162.24Zm-9.436-.024.014.238a2.922 2.922 0 0 1-.183.01c-.127.005-.181.003-.177-.004.008-.02.323-.483.327-.481 0 0 .012.109.02.237Zm8.972.292c.082.065.148.12.152.125.004.01-.28.183-.286.175a2.214 2.214 0 0 1-.018-.163c-.008-.088-.015-.187-.021-.218-.006-.05-.004-.057.01-.047l.163.128Zm-8.997.086c-.014.031-.086.209-.164.395l-.14.337-.113-.138.026-.315c.017-.213.029-.32.04-.326a1.3 1.3 0 0 1 .193-.01h.181l-.023.057Zm-.456.064-.021.261-.014.176-.321-.398.166-.06c.091-.033.173-.062.18-.062.014 0 .014.02.01.083Zm.413.47c-.023.16-.04.303-.04.32 0 .024.075.174.18.351.032.053.024.043-.11-.118-.207-.25-.226-.275-.22-.296.007-.031.225-.553.227-.55.002.003-.015.135-.037.293Zm4.756.144a.895.895 0 0 1-.162.015 2.11 2.11 0 0 0-.185.016l-.039.006v-.228l.002-.23.199.207c.119.124.193.208.185.214Zm-.236.208a5.3 5.3 0 0 1 .222.103 14.26 14.26 0 0 1-.483-.074l-.479-.08.101-.112c.055-.063.168-.19.25-.28l.148-.166.011.506.23.103Zm-5.112-.43.137.17-.016.215c-.01.121-.02.232-.02.248-.003.025-.052-.137-.222-.729a.313.313 0 0 1-.015-.074l.136.17Zm.29.364c0 .015-.097.247-.103.241a.88.88 0 0 1 .008-.153 4.08 4.08 0 0 0 .014-.17c0-.013.013-.004.04.027.016.016.03.035.041.055Zm5.214.053c.023.036.04.075.056.116a2.796 2.796 0 0 1-.232-.097 2.285 2.285 0 0 1-.22-.107 1.94 1.94 0 0 1 .275-.025l.06-.002.06.114Zm-4.855.391c.146.183.259.331.25.33a12.757 12.757 0 0 1-.716-.276c0-.007.037-.103.086-.216.068-.163.088-.2.1-.189l.28.351Z" fill="#42B263"/><path d="M15.498 6.1a6.145 6.145 0 0 0-.146.466c.002.012.01.022.018.03.013.011.039.007.136-.03a.6.6 0 0 0 .13-.06c.01-.014.004-.058-.029-.206a.832.832 0 0 0-.058-.201c-.02-.016-.037-.016-.05.002Zm.055.334c.002.017-.01.03-.041.04a.101.101 0 0 1-.047.01c-.004-.003.03-.114.05-.175.006-.015.036.078.038.125Z" fill="#42B263"/></svg>