<svg viewBox="0 0 20 12" fill="none" xmlns="http://www.w3.org/2000/svg">
  <path
    d="M8.71909 1.97041L6.30429 3.41929L4.68014 3.88667C3.78628 4.14178 2.81646 4.42221 2.5224 4.50789L1.98686 4.66174L1.36563 4.65395L0.74246 4.64421L0.60614 4.76106C0.530191 4.82532 0.469821 4.88375 0.469821 4.89154C0.469821 4.89932 0.625614 5.10186 0.814514 5.34334C1.00341 5.58482 1.15921 5.78735 1.1631 5.79514C1.16505 5.80293 1.12221 5.92756 1.06768 6.07557L0.96836 6.34042L0.637299 6.34431L0.306238 6.34626L0.271184 6.24889C0.25171 6.19436 0.195235 6.02883 0.144602 5.87888C0.0939687 5.72893 0.0452833 5.59845 0.0335987 5.58871C0.0219142 5.57703 -0.0754568 5.55171 -0.233198 5.52055C-0.369517 5.49524 -0.484415 5.47187 -0.48831 5.47187C-0.494152 5.47187 -0.498047 5.49134 -0.498047 5.5186C-0.498047 5.5595 -0.484415 5.57897 -0.313042 5.76787L-0.12609 5.97235L0.204972 6.59942L0.528243 6.59748C0.705459 6.59553 0.91578 6.59163 0.995624 6.58774L1.13973 6.57995L1.34616 6.15931C1.45911 5.92951 1.55064 5.72698 1.55064 5.71335C1.55064 5.69777 1.51948 5.64324 1.47469 5.58871C1.43379 5.53418 1.32084 5.38618 1.22152 5.26155L1.04626 5.03175L1.14947 5.00059C1.18842 4.98696 1.22737 4.97527 1.26826 4.96748C1.278 4.96748 1.51753 5.04149 1.79991 5.13302L2.31208 5.29855L2.58861 5.3336C2.74051 5.35307 2.86515 5.36865 2.86709 5.3706C2.86904 5.37255 2.78141 5.5225 2.6743 5.70361L2.47956 6.03272L2.0336 7.26155L1.94012 8.40468L1.32279 9.70166L1.19037 9.79903C1.11636 9.85356 1.05794 9.90419 1.05794 9.91198C1.05794 9.93146 1.27411 10.7007 1.3559 10.9655C1.39485 11.096 1.43185 11.207 1.44158 11.2148C1.44937 11.2226 1.6519 11.3005 1.89144 11.3881C2.22445 11.5128 2.34129 11.5498 2.38413 11.5498C2.42503 11.5498 2.43866 11.5459 2.43866 11.5342C2.43866 11.5244 2.33545 11.3317 2.20692 11.1058L1.97323 10.6929L2.03555 10.2333C2.08618 9.85551 2.10176 9.76787 2.12123 9.73866C2.16992 9.66856 2.82815 8.86427 2.84567 8.85064C2.87488 8.83117 5.0482 8.14373 5.32863 8.06583C5.48637 8.02299 5.56427 8.00546 5.56817 8.0152C5.60322 8.10867 5.73759 8.52737 5.73759 8.54295C5.73759 8.55463 5.67722 8.76495 5.60127 9.01422L5.46495 9.46408L5.50001 9.68414C5.52143 9.82824 5.55453 9.97041 5.59932 10.1067L5.66359 10.3112L5.62269 10.5059C5.58959 10.6656 5.5818 10.728 5.59738 10.7357C5.6188 10.7435 7.00731 10.9655 7.02289 10.9616C7.02873 10.9597 7.03457 10.9558 7.03847 10.95C7.04236 10.9441 7.04431 10.9383 7.04431 10.9305C7.04431 10.8954 6.84567 10.5215 6.81451 10.4982C6.80088 10.4865 6.68014 10.3638 6.54382 10.2236L6.29845 9.96846L6.31597 9.64129L6.32961 9.31607L6.66846 8.67148C6.85346 8.31705 7.00731 8.02299 7.0112 8.02104C7.01315 8.01714 7.14947 8.0483 7.31305 8.08725L7.61101 8.16125L8.78141 8.70458L10.205 8.70848L11.6246 7.9743L12.0881 8.06972C12.3432 8.1223 12.5555 8.16904 12.5614 8.17489C12.5672 8.18073 12.4406 8.26641 12.2848 8.36963L11.9985 8.55658L11.4981 8.67342L10.9976 8.79222L10.834 8.76495C10.7444 8.75132 10.6665 8.74353 10.6587 8.74743C10.649 8.76301 10.6451 8.78053 10.647 8.79806C10.647 8.85259 10.7639 10.1223 10.7717 10.1418C10.7834 10.1768 10.8457 10.1515 11.0443 10.0327C11.1612 9.96456 11.2566 9.90225 11.2585 9.89835C11.2624 9.88861 11.6733 9.28102 11.6831 9.27128C11.6928 9.26349 12.5224 9.10575 12.5302 9.11159C12.5321 9.11354 12.5711 9.28686 12.6178 9.49329C12.6646 9.70945 12.7074 9.87693 12.7171 9.88667C12.7366 9.90614 12.7444 9.90419 12.8827 9.81266L12.9742 9.7523L13.0794 9.5225C13.1358 9.39592 13.1884 9.28686 13.1943 9.28102C13.2001 9.27323 13.4805 9.12717 13.8155 8.9558L14.425 8.64227L14.5341 8.38326L14.6412 8.12425L14.6431 7.7114L15.2429 7.24597L16.3393 6.67732L16.4231 6.43389C16.6022 5.91198 16.6198 5.86525 16.6256 5.86525C16.6295 5.86525 16.7308 5.97625 16.8515 6.11062L17.0716 6.35405L17.8778 6.77469L18.4932 6.89933C19.0365 7.01033 19.1086 7.02201 19.1242 7.00643C19.1631 6.96748 19.1319 6.94801 18.7502 6.75716L18.3724 6.56826L17.7298 6.0853L17.5156 5.83603C17.3072 5.59455 17.3014 5.58676 17.3442 5.5965C17.3676 5.6004 17.5312 5.63545 17.7064 5.67245L18.0258 5.74061L18.6276 5.75619C18.9586 5.76593 19.2858 5.77177 19.3559 5.77372H19.4825V5.69777L18.8301 5.48745C18.1972 5.28297 18.168 5.27128 17.7921 5.1038L17.4046 4.93243L17.2877 4.79222C17.2235 4.71627 17.1573 4.64811 17.1436 4.64421C17.13 4.64032 16.9976 4.615 16.8476 4.59163C16.6996 4.56632 16.5769 4.54684 16.575 4.54489C16.573 4.54295 16.4873 4.32678 16.3802 4.06193C16.2731 3.79709 16.1816 3.57897 16.1738 3.57508C16.166 3.57313 15.7668 3.31607 15.2858 3.00838C14.4873 2.49621 14.3997 2.43389 14.2556 2.30926C14.1699 2.23331 13.7298 1.84382 13.278 1.4446L12.4581 0.718215L11.8311 0.587738C11.2371 0.463103 11.1982 0.455313 11.0716 0.45726H10.9372L8.71909 1.97041ZM11.3306 0.926589C11.5 1.1408 11.6344 1.31607 11.6305 1.31997C11.6246 1.32776 9.92649 1.7075 9.92649 1.70361C9.92649 1.69971 10.6548 0.905167 10.869 0.675372C10.943 0.595527 11.0093 0.53321 11.0151 0.53321C11.0209 0.535157 11.1631 0.712372 11.3306 0.926589ZM12.0764 0.891535L12.1563 0.922694L11.946 1.09796C11.8311 1.19533 11.7356 1.27323 11.7317 1.27323C11.7259 1.27323 11.2157 0.630581 11.1689 0.566316C11.1573 0.548789 11.4494 0.65395 12.0764 0.891535ZM11.9849 0.696793C12.1738 0.735741 12.3296 0.770795 12.3296 0.770795C12.316 0.788322 12.2984 0.803901 12.2809 0.817533L12.2283 0.860376L11.9129 0.741584C11.6091 0.626686 11.5487 0.603317 11.613 0.616949C11.6305 0.620844 11.798 0.657845 11.9849 0.696793ZM10.5633 0.858429C10.4951 0.928536 10.3023 1.12912 10.1349 1.30439C9.96739 1.47966 9.80186 1.65298 9.76291 1.69192L9.6967 1.76008L9.33253 1.84188C9.13194 1.88667 8.96447 1.92172 8.96057 1.92172C8.95278 1.91783 10.6685 0.737689 10.684 0.733794C10.684 0.733794 10.6315 0.788322 10.5633 0.858429ZM12.4893 0.928536L12.5127 0.967484L12.4328 0.936326C12.388 0.920746 12.3471 0.90322 12.3413 0.899325C12.3374 0.89543 12.351 0.875956 12.3763 0.854534L12.4211 0.817533L12.4426 0.854534C12.4562 0.874008 12.4757 0.909062 12.4893 0.928536ZM12.4932 1.04733C12.5691 1.07654 12.5808 1.08433 12.6139 1.13691C12.6276 1.15638 12.6373 1.17781 12.647 1.19923C12.6412 1.20507 11.8817 1.28686 11.8778 1.28102C11.8759 1.27907 11.9596 1.20507 12.0648 1.11744L12.2576 0.957747L12.3335 0.986959C12.3763 1.00449 12.4484 1.03175 12.4932 1.04733ZM12.9002 1.2226C12.9002 1.23623 12.6529 1.02396 12.6354 0.994748C12.6237 0.977221 12.6782 1.02006 12.7561 1.09017C12.834 1.16028 12.9002 1.2187 12.9002 1.2226ZM12.9411 1.24986C12.9528 1.26349 12.9606 1.27323 12.9567 1.27323C12.9469 1.26739 12.9372 1.2596 12.9294 1.24986C12.9177 1.23623 12.9099 1.22649 12.9138 1.22649C12.9236 1.23233 12.9333 1.24012 12.9411 1.24986ZM13.5643 1.86914C13.9654 2.19046 14.2887 2.45921 14.2868 2.4631C14.2829 2.467 14.1271 2.50595 13.944 2.54879L13.6071 2.62669L13.2936 2.10088C12.7113 1.12328 12.7697 1.22454 12.8067 1.25765C12.8223 1.27128 13.1631 1.54587 13.5643 1.86914ZM13.0482 1.86719C13.2352 2.18267 13.4007 2.45921 13.4124 2.48063L13.4357 2.51763L13.3832 2.47868C13.354 2.45726 12.9956 2.2002 12.5867 1.90614L11.8408 1.37255L12.2167 1.3297C12.4211 1.30634 12.6159 1.28881 12.649 1.28881L12.7074 1.29076L13.0482 1.86719ZM11.3851 2.04051C11.2488 2.37157 11.1319 2.64421 11.128 2.65006C11.1203 2.65784 10.3199 2.14373 10.2848 2.10867C10.2751 2.09894 10.4328 2.01714 10.945 1.76982C11.3169 1.59066 11.6227 1.44265 11.6266 1.44265C11.6324 1.43876 11.5214 1.70945 11.3851 2.04051ZM12.6509 2.06388C13.0988 2.38521 13.463 2.652 13.4572 2.65395C13.4455 2.66369 11.8856 3.00254 11.8798 2.99475C11.8778 2.9928 11.8544 2.66563 11.8272 2.27031C11.7999 1.87303 11.7746 1.52445 11.7726 1.49329L11.7649 1.43487L11.7999 1.45823C11.8194 1.46992 12.2011 1.74256 12.6509 2.06388ZM11.2722 1.51666C11.2293 1.53808 10.9684 1.66466 10.6899 1.79903C10.2478 2.01325 10.1836 2.04051 10.1602 2.02883C10.1154 2.00546 9.85054 1.8263 9.84665 1.82045C9.84275 1.81266 11.2994 1.47771 11.3345 1.47771C11.3442 1.47576 11.315 1.49329 11.2722 1.51666ZM11.7454 2.25668C11.7726 2.64421 11.7921 2.96554 11.7863 2.96943C11.7824 2.97527 11.2313 2.72211 11.2137 2.70653C11.2118 2.70458 11.3169 2.44168 11.4494 2.12425C11.5818 1.80487 11.6909 1.54782 11.6928 1.54976C11.6928 1.54976 11.7181 1.86914 11.7454 2.25668ZM9.29553 2.22747C9.13 2.42415 8.98978 2.57995 8.98589 2.57605C8.97226 2.56242 8.78336 2.05804 8.7892 2.0522C8.79699 2.04441 9.58764 1.8633 9.59348 1.86914C9.59738 1.87303 9.46301 2.03467 9.29553 2.22747ZM9.93623 1.98014L10.0998 2.08725L9.93818 2.1632C9.85054 2.20604 9.66748 2.29368 9.53117 2.35989C9.39485 2.4261 9.25463 2.49231 9.21763 2.50984L9.15337 2.53905L9.21179 2.47479C9.24489 2.43973 9.38121 2.29173 9.51753 2.14373C9.65385 1.99572 9.7668 1.87693 9.7668 1.87693C9.7707 1.87498 9.84665 1.92367 9.93623 1.98014ZM8.81062 2.36378C8.86709 2.51374 8.91383 2.64032 8.91383 2.64421C8.91383 2.64811 8.90215 2.65395 8.88852 2.65784C8.87294 2.66174 8.38413 2.80195 7.79991 2.97333C7.21568 3.14275 6.72688 3.28491 6.7152 3.28881C6.70156 3.2927 7.14363 3.02396 7.69475 2.6929C8.24587 2.36184 8.69962 2.0892 8.70351 2.0892C8.70351 2.0892 8.7522 2.21189 8.81062 2.36378ZM10.6431 2.44363C10.9859 2.66953 11.0949 2.74548 11.0891 2.75911C11.054 2.84869 10.0414 5.29465 10.0355 5.30049C10.0317 5.30439 9.8038 4.72211 9.52922 4.00546C9.25463 3.28881 9.03068 2.69874 9.03457 2.69679C9.04626 2.68316 10.1602 2.14957 10.1758 2.14957C10.1836 2.14762 10.3939 2.28005 10.6431 2.44363ZM14.2907 2.57411C14.2829 2.58774 14.2439 2.652 14.203 2.71432L14.129 2.82922L14.055 2.80001C14.0141 2.78443 13.9245 2.75132 13.8544 2.726L13.7279 2.68121L14.0141 2.615C14.1719 2.578 14.3023 2.54684 14.3023 2.54684C14.2984 2.55853 14.2946 2.56632 14.2907 2.57411ZM15.0813 2.97917C15.4513 3.21675 15.7532 3.41344 15.7493 3.41539C15.7454 3.41929 14.3023 2.89543 14.2342 2.86622C14.2089 2.85648 14.2108 2.85064 14.3043 2.70264C14.3569 2.61695 14.4036 2.54879 14.4036 2.54879C14.4075 2.54879 14.7113 2.74353 15.0813 2.97917ZM13.7045 3.12328C13.7863 3.34334 13.8525 3.5225 13.8505 3.52445C13.8486 3.52639 13.4396 3.42123 12.9411 3.2927C12.4426 3.16223 12.0355 3.05707 12.0394 3.05512C12.055 3.04928 13.5331 2.726 13.5428 2.726C13.5487 2.72406 13.6207 2.90517 13.7045 3.12328ZM9.46106 4.05804C9.72785 4.75522 9.94791 5.32776 9.94402 5.3297C9.94207 5.3336 7.17868 3.86524 7.17868 3.85746C7.17868 3.85356 7.5779 3.6004 8.0667 3.29465C8.9002 2.7708 8.95278 2.73964 8.96252 2.76301C8.96836 2.77858 9.19037 3.36086 9.46106 4.05804ZM8.65872 2.82338C8.63535 2.83701 7.12805 3.7854 7.09884 3.80293C7.09105 3.80682 6.94304 3.73477 6.76388 3.63934C6.58472 3.54392 6.45035 3.46408 6.46008 3.46213C6.49319 3.45044 8.65872 2.80974 8.67041 2.8078C8.67625 2.8078 8.67235 2.81364 8.65872 2.82338ZM11.6772 3.02201C11.7473 3.05512 11.8038 3.08822 11.8038 3.09601C11.8038 3.1038 11.8389 3.5965 11.8798 4.19436C11.9206 4.79027 11.9538 5.28102 11.9538 5.28102C11.9499 5.28491 11.2254 2.82922 11.2254 2.81753C11.2254 2.81364 11.2994 2.84285 11.389 2.88569C11.4766 2.92854 11.6052 2.98891 11.6772 3.02201ZM15.1086 3.51471L16.0979 4.02688L15.983 4.14373C15.8895 4.23525 15.7882 4.31705 15.6792 4.39105C15.576 4.46505 15.4883 4.52153 15.4844 4.51958C15.4747 4.51568 15.2488 4.33263 14.8457 4.00156L14.4815 3.70361L14.1427 3.28881C13.9557 3.05901 13.7921 2.86038 13.7785 2.8448C13.7532 2.81169 13.6422 2.75522 15.1086 3.51471ZM11.5545 4.23525C11.7765 4.98501 11.9596 5.60429 11.9615 5.61013C11.9635 5.61792 11.9518 5.61987 11.9284 5.61792C11.909 5.61598 11.4883 5.56534 10.9956 5.50497C10.2712 5.41734 10.0998 5.39202 10.1018 5.37839C10.1057 5.35892 11.1144 2.92075 11.1319 2.88764C11.1378 2.87596 11.1456 2.86817 11.1475 2.87011C11.1475 2.87011 11.3325 3.4855 11.5545 4.23525ZM14.018 3.27907C14.1816 3.47771 14.3101 3.63934 14.3062 3.64129C14.2459 3.62961 14.1855 3.61598 14.1271 3.59845L13.9557 3.55366L13.8583 3.29465C13.8058 3.15249 13.7493 3.00643 13.7376 2.97138C13.724 2.93633 13.7142 2.90906 13.7181 2.91296C13.7201 2.91685 13.8564 3.08044 14.018 3.27907ZM15.2021 3.31607L16.1193 3.65103V3.94119L15.8759 3.81461C14.9021 3.31023 14.2537 2.97138 14.2673 2.97527C14.277 2.97917 14.6977 3.13107 15.2021 3.31607ZM12.8729 3.36281L13.8428 3.61208L13.7999 3.66077C13.7765 3.68803 13.3734 4.12815 12.906 4.64032L12.057 5.57119L11.9791 4.43389C11.9362 3.80877 11.8973 3.2557 11.8934 3.20507C11.8895 3.15638 11.8895 3.11354 11.8953 3.11354C11.8992 3.11354 12.3393 3.22649 12.8729 3.36281ZM6.6334 3.67245C6.80283 3.76398 6.93915 3.83798 6.93915 3.84188C6.93331 3.84577 2.77557 4.53126 2.77362 4.52737C2.77167 4.52542 2.87683 4.49231 3.00731 4.45531C3.13779 4.41831 3.93623 4.18852 4.77946 3.94509C5.62269 3.70361 6.31597 3.50497 6.31792 3.50692C6.31987 3.50887 6.46398 3.58287 6.6334 3.67245ZM14.1777 3.69971C14.2692 3.72308 14.3471 3.74645 14.353 3.7484C14.3569 3.75229 14.1485 4.05804 13.8914 4.4261C13.4766 5.01812 13.3832 5.14859 13.4104 5.09796C13.4143 5.09017 13.5506 4.78248 13.7142 4.41442C13.9693 3.83409 14.0102 3.73672 14.0063 3.69777C14.0024 3.6744 14.0024 3.65492 14.0083 3.65492C14.0102 3.65687 14.0881 3.67635 14.1777 3.69971ZM13.9148 3.7484C13.9012 3.77177 13.8992 3.76398 13.909 3.73477C13.9129 3.72503 13.9187 3.71919 13.9226 3.72114C13.9265 3.72308 13.9226 3.73672 13.9148 3.7484ZM13.5312 4.49231C13.3851 4.87011 13.2663 5.1817 13.2644 5.18365C13.2546 5.19144 12.1894 5.56534 12.1855 5.56145C12.1836 5.5595 12.5438 5.16223 12.9859 4.67732C13.428 4.19241 13.7921 3.79903 13.7921 3.79903C13.7941 3.80487 13.6772 4.11451 13.5312 4.49231ZM14.4971 4.1223C14.5341 4.2742 14.5672 4.40663 14.5672 4.41636C14.5691 4.43194 13.9109 4.93633 13.8408 4.97333C13.8233 4.98306 13.7493 5.01033 13.6772 5.03759L13.5448 5.08433L13.5682 5.05122C13.6441 4.93438 14.4133 3.84772 14.4192 3.84772C14.4231 3.84577 14.4581 3.97041 14.4971 4.1223ZM14.8165 4.08725C14.9664 4.20799 15.091 4.31315 15.0969 4.31705C15.1008 4.32094 15.017 4.39689 14.9099 4.48647C14.7911 4.58384 14.7132 4.64227 14.7094 4.63448C14.7016 4.61111 14.5146 3.86135 14.5146 3.85161C14.5146 3.83993 14.4951 3.82435 14.8165 4.08725ZM16.3432 4.19046C16.4172 4.37157 16.4737 4.51958 16.4718 4.52153C16.4679 4.52542 16.2244 4.49621 16.2186 4.49037C16.2167 4.48842 16.2147 4.34431 16.2108 4.17099C16.2089 3.99962 16.2089 3.85746 16.2089 3.85746C16.2108 3.86135 16.2712 4.0113 16.3432 4.19046ZM8.44061 4.63253C9.19231 5.03175 9.8077 5.36086 9.80575 5.36476C9.80186 5.36865 3.83691 4.83116 3.74928 4.81948L3.69864 4.81169L3.74538 4.75716C3.77264 4.726 3.85833 4.63448 3.93818 4.55074L4.08228 4.39884L5.56817 4.15346C6.38608 4.01714 7.05794 3.90614 7.06184 3.90614C7.06768 3.90614 7.68891 4.23331 8.44061 4.63253ZM16.131 4.28394V4.42805L16.057 4.35794C16.0161 4.31899 15.981 4.28589 15.9771 4.28394C15.9693 4.28005 16.1076 4.13983 16.1193 4.13983C16.1271 4.13983 16.131 4.20604 16.131 4.28394ZM15.9304 4.69485C15.8369 4.78443 15.759 4.85648 15.7571 4.85453C15.7551 4.85259 15.9031 4.42805 15.9206 4.3891C15.9323 4.35989 15.9343 4.35989 16.018 4.44558L16.1037 4.53126L15.9304 4.69485ZM15.2799 4.47284L15.3812 4.55853L15.1339 4.60332C14.9976 4.62863 14.8788 4.64616 14.871 4.64421C14.8535 4.64227 15.1475 4.3891 15.1689 4.3891C15.2079 4.41247 15.2449 4.44168 15.2799 4.47284ZM15.7376 4.652L15.6519 4.89932L15.5974 4.75716C15.5682 4.68121 15.5429 4.61305 15.5429 4.60526C15.5429 4.59553 15.8174 4.39689 15.8233 4.40273C15.8233 4.40663 15.7843 4.51763 15.7376 4.652ZM3.87781 4.49037C3.8447 4.52737 3.76485 4.615 3.70254 4.68121L3.58764 4.8039L2.95668 4.74548L2.32766 4.689L3.11831 4.55658C3.55453 4.48452 3.91481 4.42415 3.92454 4.42415C3.93039 4.42415 3.91091 4.45337 3.87781 4.49037ZM14.6256 4.69679C14.5769 4.71821 14.5263 4.73769 14.4737 4.75522C14.3958 4.78248 14.2829 4.82338 14.2206 4.8448C14.1582 4.86817 14.1115 4.8818 14.1173 4.8779C14.1212 4.87401 14.2303 4.79222 14.3588 4.69679L14.5925 4.52347L14.6139 4.60526C14.6256 4.64811 14.6295 4.69095 14.6256 4.69679ZM16.4484 4.60721C16.5321 4.61695 16.5029 4.59747 16.908 4.91296C17.0326 5.01033 17.1319 5.09017 17.13 5.09407C17.1008 5.09212 17.0735 5.08628 17.0463 5.07849C16.9723 5.05901 16.9391 5.03759 16.6529 4.82922C16.2984 4.57021 16.3199 4.58579 16.351 4.59358C16.3822 4.59942 16.4153 4.60332 16.4484 4.60721ZM15.5214 4.79416C15.5429 4.8448 15.5604 4.89738 15.574 4.94996C15.5721 4.95191 14.9859 4.77469 14.8768 4.73964C14.8613 4.73379 15.391 4.64032 15.428 4.64032C15.4611 4.64227 15.465 4.64811 15.5214 4.79416ZM16.277 4.89348C16.3316 5.02591 16.3763 5.13691 16.3744 5.1408C16.3705 5.14275 16.3062 5.09991 16.2303 5.04733C16.1543 4.99475 16.0881 4.94801 16.0823 4.94412C16.0784 4.94022 16.0959 4.87401 16.1232 4.79416C16.1504 4.71432 16.1758 4.652 16.1758 4.652C16.1758 4.652 16.2225 4.76106 16.277 4.89348ZM17.0112 4.69679C17.1086 4.71043 17.1164 4.71627 17.1826 4.8039C17.2059 4.83311 17.1904 4.82922 17.0385 4.75716C16.8632 4.67732 16.8379 4.66369 16.8866 4.67537C16.9021 4.67732 16.9586 4.68706 17.0112 4.69679ZM16.0317 4.80195C16.02 4.83701 16.0083 4.87011 15.9927 4.90127C15.9888 4.90906 15.9421 4.92269 15.8895 4.93243L15.796 4.95191L15.9245 4.82727C15.9947 4.75911 16.055 4.70653 16.057 4.70848C16.0511 4.74158 16.0433 4.77274 16.0317 4.80195ZM1.02873 4.87011C1.0151 4.87206 0.917727 4.86817 0.812567 4.86427L0.621719 4.85453L0.765829 4.73379L0.90799 4.80001C0.995624 4.83895 1.04236 4.86622 1.02873 4.87011ZM1.64606 4.73964C1.6967 4.74743 1.6928 4.74937 1.48637 4.80974L1.27411 4.87206L1.12805 4.8039C1.04626 4.7669 0.978097 4.73574 0.97615 4.73379C0.966413 4.726 1.59153 4.73185 1.64606 4.73964ZM2.11734 4.79611C2.11928 4.79806 2.10955 4.80001 2.09397 4.80001C2.07839 4.80001 1.98881 4.8078 1.89533 4.81753C1.80186 4.82727 1.72006 4.83311 1.71227 4.83311C1.75707 4.81559 1.80186 4.80001 1.84859 4.78832L1.9966 4.74158L2.05502 4.76495C2.07644 4.77664 2.09592 4.78637 2.11734 4.79611ZM16.5984 5.07265C16.5691 5.11354 16.4971 5.19339 16.4932 5.18754C16.4893 5.1817 16.3179 4.77469 16.3121 4.75132C16.3082 4.74158 16.3744 4.80585 16.4601 4.89348C16.5867 5.02785 16.61 5.05901 16.5984 5.07265ZM15.4844 5.01422C15.8914 5.13886 16.2225 5.24402 16.2206 5.24597C16.2128 5.25181 14.3978 5.34334 14.3471 5.33944L14.3043 5.33555L14.5068 5.05512C14.6451 4.86232 14.7152 4.77469 14.7269 4.77858C14.7366 4.78248 15.0774 4.88764 15.4844 5.01422ZM17.1086 4.8818C17.3403 4.98891 17.3306 4.97917 17.3131 5.07265L17.3053 5.11549L17.1164 4.96748C16.8632 4.77079 16.8671 4.77274 16.8807 4.77664C16.8885 4.78248 16.9917 4.82727 17.1086 4.8818ZM3.18063 4.84869C3.34616 4.86232 3.48637 4.87985 3.49222 4.88375C3.5039 4.89348 3.29358 5.11938 3.26047 5.13302C3.24684 5.13886 3.11442 5.09212 2.87099 4.9967C2.66651 4.91685 2.50293 4.85064 2.50682 4.84674C2.51656 4.83701 2.77362 4.81364 2.82815 4.81753C2.85541 4.82143 3.0151 4.83506 3.18063 4.84869ZM14.5555 4.82727C14.5477 4.83701 14.2342 5.27712 14.1797 5.35307C14.1777 5.35502 14.0083 5.37644 13.8019 5.40176C13.5935 5.42902 13.4026 5.45434 13.3773 5.45629C13.3345 5.46213 13.3559 5.44265 13.5974 5.26349C13.8505 5.07459 13.872 5.06096 13.9869 5.02006C14.0745 4.98891 14.499 4.83701 14.5594 4.81364C14.5633 4.81364 14.5613 4.81948 14.5555 4.82727ZM2.48929 4.93827C2.59835 4.98112 2.69377 5.02006 2.69767 5.02396C2.70156 5.02785 2.62172 5.07265 2.52045 5.12328L2.3335 5.21675L1.94012 5.09017C1.72591 5.02006 1.53506 4.95775 1.51753 4.95191C1.49222 4.94217 1.55843 4.93243 1.87586 4.90127C2.09007 4.87985 2.26924 4.86232 2.27703 4.86038C2.28287 4.86038 2.38024 4.89543 2.48929 4.93827ZM16.7327 5.02201C16.7132 5.02591 16.686 5.00643 16.6295 4.94801L16.5516 4.86817L16.6548 4.94412C16.7386 5.00449 16.7541 5.02006 16.7327 5.02201ZM4.27508 5.08043C3.84665 5.11354 3.46495 5.14275 3.43185 5.1447L3.37148 5.14859L3.49611 5.01812L3.6188 4.88764L4.3374 4.95385L5.05794 5.01812L4.27508 5.08043ZM0.985887 4.95385C0.999519 4.96359 0.999519 4.96554 0.980045 4.96359C0.962518 4.96164 0.944991 4.95775 0.927464 4.95385C0.898253 4.94412 0.898253 4.94412 0.933307 4.94412C0.950833 4.94412 0.970308 4.94606 0.985887 4.95385ZM0.962518 5.05707C0.966413 5.06096 1.00731 5.11354 1.05015 5.17196C1.09494 5.23039 1.15921 5.31218 1.19037 5.35502C1.22347 5.39592 1.24295 5.42513 1.23321 5.41929C1.21568 5.40955 0.736617 5.02201 0.703511 4.9928C0.693774 4.98501 0.740512 4.99085 0.820356 5.01228C0.894358 5.03175 0.958623 5.05122 0.962518 5.05707ZM16.1232 5.07265C16.1582 5.09601 16.1933 5.12133 16.2264 5.14859C16.2264 5.15249 16.203 5.14665 15.9674 5.07265L15.8213 5.02785L15.8914 5.01617C16.0122 4.99475 16.0141 4.9967 16.1232 5.07265ZM17.759 5.17586L18.0959 5.32776L18.0998 5.41929C18.1018 5.46797 18.0979 5.51081 18.092 5.51081C18.0862 5.51081 17.9226 5.43487 17.7318 5.34139L17.3832 5.17196L17.389 5.12523C17.3987 5.05122 17.4046 5.02785 17.4143 5.02785C17.4202 5.02591 17.574 5.09407 17.759 5.17586ZM6.13681 5.11744C6.3335 5.13496 6.49708 5.15249 6.50098 5.15444C6.50877 5.16417 6.80283 6.45337 6.79893 6.467C6.79504 6.47674 5.68306 5.13107 5.65385 5.08433C5.64606 5.0707 5.65775 5.0707 5.71422 5.07654C5.75122 5.08238 5.94207 5.09991 6.13681 5.11744ZM2.83788 5.17781C2.8593 5.23039 2.87488 5.27518 2.87099 5.27712C2.86709 5.28297 2.57303 5.25181 2.52045 5.24012C2.49514 5.23428 2.51461 5.22065 2.63925 5.15833C2.72104 5.11744 2.79309 5.08238 2.79309 5.08238C2.79699 5.08433 2.81646 5.12717 2.83788 5.17781ZM5.31305 5.08822C5.30332 5.09991 2.84957 6.46116 2.84957 6.45726C2.84957 6.44363 3.29942 5.25376 3.30916 5.24597C3.31305 5.24207 3.73954 5.20312 4.2556 5.16223C5.15531 5.09017 5.32669 5.07849 5.31305 5.08822ZM3.10857 5.19144C3.10857 5.19533 3.10078 5.20117 3.09494 5.20507C3.08715 5.20896 3.0521 5.22065 3.01899 5.23428L2.95668 5.2596L2.93331 5.19728C2.91967 5.16223 2.90604 5.12717 2.90215 5.11549C2.89631 5.09991 2.91578 5.1038 3.00147 5.13886C3.06184 5.16223 3.10857 5.18754 3.10857 5.19144ZM5.50585 5.5634C5.51169 5.81461 5.51364 6.02299 5.51169 6.02493C5.50585 6.03078 3.03652 6.47479 3.03068 6.47284C3.02678 6.46895 5.48443 5.09991 5.49027 5.1038C5.49416 5.10575 5.50001 5.31218 5.50585 5.5634ZM16.8885 5.12912C16.9002 5.13302 16.9411 5.18754 16.9781 5.24986C17.0151 5.31218 17.0502 5.36865 17.054 5.37644C17.0755 5.40955 17.0502 5.38618 16.9294 5.2557C16.8106 5.13107 16.8048 5.11938 16.8359 5.12133C16.8535 5.12133 16.871 5.12328 16.8885 5.12912ZM17.0054 5.46408C17.1826 5.64713 17.3948 5.86525 17.4766 5.94704L17.6227 6.09894L17.5896 6.11257C17.5701 6.12036 17.4591 6.15931 17.3423 6.2002L17.128 6.2742L16.8359 5.7854C16.6762 5.51666 16.5458 5.2927 16.5477 5.28686C16.5536 5.27128 16.6685 5.13302 16.6743 5.13302C16.6782 5.13107 16.8262 5.28102 17.0054 5.46408ZM6.15823 5.85746C6.46203 6.22747 6.7152 6.53516 6.72104 6.54489C6.72688 6.55268 6.47761 6.44947 6.16602 6.3151L5.60127 6.07167L5.59348 5.92951C5.58959 5.85161 5.58374 5.64324 5.5818 5.46992C5.5779 5.20312 5.5779 5.15444 5.59153 5.17002C5.60127 5.17781 5.85638 5.4855 6.15823 5.85746ZM8.24587 5.30828C9.10857 5.38618 9.82133 5.45045 9.83107 5.45434C9.84081 5.45629 9.19037 5.71724 8.38608 6.03662C7.58375 6.356 6.92357 6.615 6.92162 6.61305C6.91967 6.61111 6.84567 6.29368 6.75804 5.90809C6.6704 5.5225 6.5964 5.19533 6.59251 5.1817C6.58861 5.15833 6.59056 5.15638 6.63146 5.16223C6.65677 5.16612 7.38316 5.23039 8.24587 5.30828ZM13.5818 5.17002C13.5799 5.17196 13.5331 5.20702 13.4786 5.24986C13.3968 5.31218 13.3832 5.31802 13.3987 5.29076C13.4377 5.22649 13.4513 5.21481 13.5078 5.19144C13.5623 5.17002 13.5954 5.16028 13.5818 5.17002ZM17.1397 5.18754L17.2215 5.20896L17.1631 5.23233C17.1319 5.24597 17.1008 5.25765 17.0988 5.2596C17.0949 5.26154 17.0774 5.24012 17.0599 5.21481C17.0229 5.16028 17.0248 5.15833 17.1397 5.18754ZM1.14947 5.47187L1.45911 5.72308L1.30916 5.91393C1.22737 6.01909 1.15337 6.11257 1.14558 6.1223C1.13779 6.13009 1.15921 6.05999 1.19621 5.96262C1.25074 5.81461 1.25853 5.78345 1.24684 5.76398C1.23321 5.74256 1.0891 5.55561 0.882674 5.29855C0.833988 5.23623 0.804777 5.19533 0.818409 5.20507C0.830093 5.21091 0.980045 5.3336 1.14947 5.47187ZM17.6344 5.38813C17.7941 5.46408 17.9226 5.52639 17.9207 5.52834C17.9207 5.52834 17.7863 5.52055 17.6227 5.50887C17.4611 5.49718 17.3033 5.48745 17.2741 5.4855C17.2215 5.4855 17.2196 5.48355 17.1767 5.4115L17.1319 5.33749L17.1592 5.32581C17.1728 5.31997 17.2176 5.30049 17.2566 5.28297C17.2819 5.26933 17.3092 5.2596 17.3364 5.24986C17.3423 5.24986 17.4766 5.31218 17.6344 5.38813ZM3.06184 5.43876C3.00147 5.53029 2.94889 5.60234 2.94889 5.60234C2.95083 5.55755 2.95668 5.51471 2.96447 5.46992L2.98394 5.34139L3.07157 5.30439C3.10078 5.28881 3.13194 5.27712 3.16505 5.26933C3.13584 5.32581 3.10078 5.38423 3.06184 5.43876ZM13.1884 5.38034C13.1553 5.46408 13.1456 5.47771 13.1164 5.48745C13.0618 5.50108 12.4873 5.56924 12.4718 5.56534C12.464 5.5634 12.6315 5.49913 12.8418 5.42318C13.0521 5.34723 13.2254 5.28491 13.2254 5.28491C13.2254 5.28491 13.2118 5.32776 13.1884 5.38034ZM16.3199 5.33555C16.3199 5.34334 15.5915 5.86135 15.5701 5.86914C15.5506 5.87693 14.4172 5.43681 14.427 5.42708C14.4328 5.41929 16.0492 5.33555 16.2108 5.3336C16.2478 5.33165 16.2848 5.3336 16.3199 5.33555ZM18.9839 5.61598C19.0112 5.62376 19.0326 5.63155 19.0287 5.63545C19.0248 5.64129 18.2653 5.56145 18.2108 5.54976C18.1855 5.54587 18.1836 5.53808 18.1836 5.45239V5.35697L18.5594 5.47966C18.7639 5.54782 18.9547 5.60819 18.9839 5.61598ZM16.4893 5.46213C16.4932 5.47576 16.4912 5.48355 16.4854 5.47771C16.4815 5.47576 16.4796 5.47187 16.4776 5.46797C16.4757 5.46408 16.4757 5.46018 16.4757 5.45434C16.4737 5.43097 16.4815 5.43487 16.4893 5.46213ZM13.9654 5.58092C13.9148 5.65492 13.8525 5.74256 13.8272 5.77761L13.7804 5.84188L13.7356 6.23136C13.7103 6.44558 13.6889 6.63253 13.6889 6.64616C13.6889 6.65979 13.5876 6.42026 13.465 6.11646C13.3403 5.81266 13.2429 5.56145 13.2449 5.5595C13.2468 5.55755 13.428 5.53224 13.648 5.50497C13.8681 5.47576 14.0511 5.45239 14.0531 5.45044C14.0531 5.45044 14.0161 5.51082 13.9654 5.58092ZM10.9762 5.58482C11.4396 5.63934 11.835 5.68998 11.8525 5.69387C11.8836 5.70166 11.8174 5.74256 11.1748 6.1262C10.7853 6.35989 10.4601 6.55268 10.4562 6.55463C10.4484 6.55658 10.092 5.50692 10.092 5.4816C10.092 5.47771 10.1018 5.47771 10.1134 5.47966C10.1251 5.48355 10.5127 5.53029 10.9762 5.58482ZM16.2614 5.52055C16.2381 5.55366 16.1018 5.63545 16.0901 5.62377C16.0842 5.61792 16.277 5.47576 16.2848 5.4816C16.2868 5.48355 16.2751 5.50108 16.2614 5.52055ZM14.6607 5.87693C14.8476 6.0522 14.9995 6.19825 14.9995 6.20215C14.9976 6.20994 13.909 7.09796 13.9051 7.09407C13.9031 7.09212 13.9421 6.97722 13.9908 6.83896L14.0803 6.58579L14.1582 6.03467L14.2381 5.48355L14.2809 5.52055C14.3023 5.54392 14.4737 5.70361 14.6607 5.87693ZM10.1874 6.03467C10.2868 6.32873 10.3647 6.57411 10.3608 6.578C10.3549 6.5819 8.29845 6.61695 8.29261 6.61305C8.29066 6.61111 9.9966 5.50303 10.0083 5.49913C10.0083 5.49913 10.0881 5.73866 10.1874 6.03467ZM15.0463 5.76787C15.2624 5.85356 15.4455 5.92756 15.4513 5.93146C15.4611 5.94119 15.1125 6.13983 15.0872 6.13983C15.0755 6.13983 14.4211 5.53613 14.4211 5.52639C14.4601 5.53808 14.499 5.55171 14.536 5.56729C14.6003 5.59261 14.8301 5.68219 15.0463 5.76787ZM16.2186 6.01909C16.1388 6.28589 16.0706 6.51179 16.0706 6.51763C16.0687 6.52347 16.0219 6.46505 15.9635 6.3891C15.9031 6.30731 15.8642 6.24499 15.87 6.23526C15.8836 6.21189 16.3627 5.53418 16.3627 5.53418C16.3627 5.53418 16.2984 5.7523 16.2186 6.01909ZM2.98394 5.84188C2.92162 6.00546 2.86904 6.14178 2.86515 6.14567C2.86125 6.14957 2.86125 6.13594 2.86709 6.11646C2.87099 6.09699 2.88267 6.02104 2.89241 5.94704L2.91188 5.81266L2.99952 5.68024C3.0482 5.60624 3.09105 5.54587 3.09105 5.54587C3.09299 5.54392 3.04431 5.67829 2.98394 5.84188ZM14.0764 6.03662L14.0063 6.52932L13.9382 6.59163C13.8311 6.689 13.8291 6.69095 13.835 6.60332C13.8389 6.56242 13.8447 6.38715 13.8486 6.21383L13.8564 5.89835L14.0005 5.72114C14.0784 5.62377 14.1446 5.54392 14.1446 5.54392C14.1446 5.54392 14.1154 5.76593 14.0764 6.03662ZM16.7191 5.75229C16.7775 5.85161 16.8223 5.9334 16.8223 5.9334C16.8223 5.9334 16.7814 5.89056 16.7347 5.83993C16.6587 5.75424 16.647 5.73672 16.6276 5.66077C16.6042 5.56729 16.6022 5.56145 16.61 5.56924C16.61 5.56924 16.6607 5.65492 16.7191 5.75229ZM-0.17088 5.61987C-0.0890887 5.63545 -0.0228765 5.65298 -0.0228765 5.65298C-0.020929 5.65492 0.0355461 5.8224 0.105653 6.02688C0.17576 6.23136 0.238078 6.40468 0.24392 6.41247C0.253657 6.42221 0.308185 6.42805 0.440609 6.42805L0.623667 6.43L0.440609 6.47674C0.30429 6.51179 0.257552 6.51763 0.249762 6.50789C0.24392 6.5001 0.173813 6.36573 0.0900739 6.20994C-0.0696145 5.90809 -0.0540352 5.92756 -0.342253 5.61598C-0.379254 5.57703 -0.379254 5.57703 -0.350043 5.58287C-0.330569 5.58871 -0.250725 5.60429 -0.17088 5.61987ZM2.84957 5.68219L2.83594 5.77372L2.75999 5.83019C2.73662 5.85161 2.70935 5.86914 2.68014 5.88277C2.6743 5.87693 2.85346 5.57703 2.8593 5.58287C2.8593 5.61792 2.85541 5.64908 2.84957 5.68219ZM13.0657 5.58482C13.0657 5.58871 12.9723 5.70556 12.8554 5.84382L12.6451 6.09504L12.39 5.89835C12.2498 5.79124 12.1407 5.69971 12.1466 5.69971C12.1582 5.69582 13.0073 5.58287 13.0463 5.58092C13.056 5.58092 13.0657 5.58092 13.0657 5.58482ZM16.5146 5.69582L16.5594 5.76982L16.3958 6.03272C16.3082 6.17683 16.2303 6.29952 16.2264 6.30341C16.2186 6.3112 16.4036 5.67635 16.4348 5.59261C16.4387 5.57313 16.4445 5.57897 16.5146 5.69582ZM18.0063 5.61403C18.0531 5.61403 18.057 5.61598 18.0414 5.63156C18.0258 5.64713 18.0122 5.64713 17.9245 5.62571C17.835 5.60429 17.8311 5.60234 17.8895 5.60819C17.9245 5.61208 17.9771 5.61403 18.0063 5.61403ZM18.3491 5.64908C18.4192 5.65882 18.4133 5.65882 18.279 5.66077C18.1504 5.66271 18.1349 5.65882 18.1485 5.64519C18.1602 5.63155 18.1777 5.62961 18.2186 5.6335C18.2478 5.6374 18.3062 5.64519 18.3491 5.64908ZM9.60322 5.64908C9.59543 5.65298 9.25853 5.87498 8.85346 6.13594L8.11539 6.61305L7.62075 6.62279C7.34811 6.62669 7.13194 6.62669 7.13779 6.62474C7.15142 6.61695 9.60127 5.64129 9.60906 5.64129C9.61101 5.63934 9.60906 5.64324 9.60322 5.64908ZM13.2118 6.10867C13.2429 6.35794 13.2663 6.56242 13.2644 6.56437C13.2605 6.56826 12.76 6.18657 12.7347 6.16125C12.7249 6.15152 12.7795 6.07751 12.9314 5.89446C13.0463 5.75424 13.1456 5.64519 13.1495 5.64908C13.1514 5.65298 13.1806 5.8594 13.2118 6.10867ZM15.983 5.91783C15.907 6.02688 15.835 6.12815 15.8233 6.14373L15.8038 6.16904L15.7259 6.06388C15.6967 6.02688 15.6714 5.98988 15.648 5.94898C15.648 5.93925 16.1095 5.70945 16.1173 5.71724C16.1173 5.71724 16.0589 5.80877 15.983 5.91783ZM11.9284 5.79319C11.9245 5.80098 11.8135 6.08336 11.6811 6.42026C11.5487 6.75716 11.4377 7.03564 11.4338 7.03759C11.428 7.04343 10.5282 6.62669 10.5282 6.61695C10.5282 6.60916 11.9109 5.78151 11.9245 5.78151C11.9304 5.77956 11.9323 5.78735 11.9284 5.79319ZM12.1621 6.11451C12.2303 6.28199 12.2868 6.42415 12.2829 6.43C12.279 6.43973 11.5623 6.97333 11.5584 6.96748C11.5565 6.96554 11.6597 6.70264 11.7882 6.37936C11.9148 6.05804 12.0239 5.79709 12.0278 5.80293C12.0336 5.80682 12.092 5.94704 12.1621 6.11451ZM13.4844 6.393C13.5837 6.64227 13.6655 6.85259 13.6636 6.86038C13.6597 6.87401 13.4416 6.71432 13.3793 6.6559C13.3637 6.63837 13.3501 6.56047 13.3111 6.26252C13.2858 6.05999 13.2644 5.88472 13.2644 5.87498C13.2663 5.85161 13.2722 5.86525 13.4844 6.393ZM2.77751 6.15541C2.75609 6.29368 2.73662 6.40468 2.73272 6.40468C2.71909 6.40468 2.56719 6.08336 2.57498 6.07362C2.61588 6.03662 2.80672 5.8964 2.81062 5.9003C2.81257 5.90419 2.79893 6.01909 2.77751 6.15541ZM12.5302 6.11257L12.5925 6.15931L12.5555 6.2041L12.5185 6.24694L12.4581 6.16904C12.425 6.1262 12.3647 6.04636 12.3238 5.99183L12.2478 5.89251L12.3588 5.9782C12.4192 6.02688 12.4971 6.08725 12.5302 6.11257ZM12.3199 6.14373C12.3783 6.22357 12.4309 6.29563 12.4348 6.30341C12.4387 6.31315 12.4231 6.33457 12.3978 6.3521L12.3569 6.38326L12.3471 6.35599C12.3413 6.34042 12.3043 6.24889 12.2653 6.15152C12.2244 6.05414 12.1972 5.98014 12.203 5.98599C12.2069 5.99377 12.2595 6.06388 12.3199 6.14373ZM15.7804 6.28978C15.9012 6.45337 16.0024 6.59358 16.0063 6.60137C16.0102 6.60916 15.9908 6.62669 15.9518 6.64616C15.9051 6.66953 15.8252 6.68706 15.6266 6.72016C15.4825 6.74548 15.3617 6.76106 15.3598 6.75911C15.352 6.75132 15.128 6.22552 15.1319 6.22357C15.1456 6.21383 15.5487 5.99378 15.5545 5.99378C15.5604 5.99378 15.6616 6.1262 15.7804 6.28978ZM1.26047 6.14178C1.25074 6.16709 1.20595 6.26057 1.16115 6.34821L1.07936 6.51179H0.898253C0.798935 6.51179 0.699616 6.51374 0.678195 6.51763C0.654826 6.51958 0.724933 6.50205 0.830094 6.47479L1.02289 6.4261L1.14947 6.26252C1.21958 6.17099 1.278 6.09894 1.278 6.09894C1.27411 6.11257 1.26826 6.12815 1.26047 6.14178ZM5.52922 6.80974C5.53701 7.22454 5.53895 7.49524 5.53116 7.50108C5.52532 7.50497 5.33253 7.5595 5.10273 7.61987L4.68404 7.72893L3.77654 7.15833C3.20984 6.8039 2.87683 6.58774 2.89241 6.58579C2.9041 6.58384 3.49611 6.47673 4.20692 6.34821C4.91773 6.21968 5.50195 6.11841 5.50585 6.1223C5.51169 6.1262 5.52143 6.43584 5.52922 6.80974ZM16.3978 6.26057C16.3452 6.41442 16.3413 6.42221 16.277 6.45726C16.2459 6.47284 16.2186 6.48842 16.2186 6.48842C16.2186 6.48842 16.2634 6.40858 16.3238 6.31315C16.3841 6.21578 16.4328 6.13788 16.4348 6.13983C16.425 6.18073 16.4133 6.21968 16.3978 6.26057ZM6.20302 6.42415C6.53019 6.56437 6.79893 6.68316 6.80283 6.68511C6.80672 6.689 6.65872 6.83895 6.47372 7.01812L6.13876 7.34528L5.88559 7.4115C5.74733 7.4485 5.63048 7.47576 5.63048 7.47576C5.62659 7.47187 5.60127 6.35599 5.60127 6.22941C5.60127 6.19631 5.60322 6.16904 5.60711 6.16904C5.60711 6.16904 5.87586 6.28394 6.20302 6.42415ZM17.7259 6.18852C17.7415 6.20799 17.7395 6.20799 17.722 6.19241C17.7142 6.18657 17.7064 6.18073 17.7006 6.17294C17.7006 6.16515 17.7103 6.17099 17.7259 6.18852ZM2.61198 6.37936L2.69962 6.55658L2.49903 6.7669C2.26534 7.01033 2.19523 7.07849 2.20302 7.05317C2.24197 6.93243 2.51461 6.19436 2.51851 6.19825C2.5224 6.2002 2.56524 6.28199 2.61198 6.37936ZM17.7765 6.33068C17.8759 6.40079 17.9577 6.45726 17.9557 6.46116C17.9538 6.4631 17.7999 6.43194 17.6149 6.39105C17.4299 6.35015 17.2799 6.3151 17.2838 6.3112C17.2916 6.30341 17.5584 6.20799 17.5779 6.20604C17.5857 6.20604 17.6753 6.26057 17.7765 6.33068ZM12.982 6.45921L13.2975 6.70264L13.3286 6.78637C13.3442 6.83311 13.3968 6.97138 13.4416 7.09601L13.5234 7.31997L13.4494 7.24012C13.4085 7.19728 13.1982 6.97527 12.982 6.74743C12.7658 6.51958 12.5867 6.32678 12.5867 6.32094C12.5867 6.30926 12.6509 6.21968 12.6607 6.21773C12.6646 6.21578 12.8067 6.32678 12.982 6.45921ZM15.2644 6.76106C15.2683 6.77664 15.2605 6.78248 15.2254 6.78832C15.1845 6.79416 15.1689 6.8078 15.093 6.90127C15.0112 7.00059 14.9956 7.01422 14.834 7.10965C14.7405 7.16417 14.6509 7.2187 14.6354 7.22844C14.612 7.24207 14.6315 7.20118 14.7152 7.0298C14.7756 6.91101 14.8807 6.69874 14.9469 6.55853L15.0696 6.30536L15.1631 6.52347C15.2157 6.64227 15.2605 6.74937 15.2644 6.76106ZM14.7132 6.8409C14.5594 7.15444 14.4815 7.30049 14.4698 7.30049C14.4601 7.30049 14.3296 7.28102 14.1816 7.25765C13.9596 7.22065 13.9148 7.21091 13.9284 7.19923C13.9596 7.16807 14.9236 6.38131 14.9314 6.38131C14.9353 6.38131 14.8379 6.58774 14.7132 6.8409ZM12.6412 6.60721C12.7132 6.72601 12.7814 6.83506 12.7911 6.84869C12.8009 6.86427 12.8028 6.87596 12.8028 6.87596C12.7989 6.87596 12.7094 6.78248 12.6022 6.66564L12.4075 6.45531L12.4503 6.42415C12.4659 6.41247 12.4835 6.40079 12.501 6.39105C12.5049 6.393 12.5691 6.49037 12.6412 6.60721ZM17.8019 6.51763C17.9947 6.55853 18.1543 6.59553 18.1563 6.59942C18.1582 6.60137 18.1037 6.62279 18.0317 6.64616L17.9012 6.689L17.6694 6.57021C17.465 6.4631 17.4241 6.43973 17.4435 6.43973C17.4494 6.43973 17.6091 6.47479 17.8019 6.51763ZM12.647 6.83896C12.8126 7.02007 12.9723 7.18754 12.9956 7.21481L13.0404 7.26349L13.1592 7.79319C13.2235 8.0853 13.278 8.32873 13.278 8.33652C13.278 8.34236 13.0833 8.44947 12.8457 8.57216C12.0336 8.98891 11.9499 9.03175 11.9888 8.99475C12.0083 8.97722 12.242 8.76495 12.5049 8.52737C12.8827 8.18462 12.9839 8.0853 12.9839 8.06388C12.9839 8.0483 12.8145 7.71335 12.6061 7.31997C12.3978 6.92659 12.2283 6.60137 12.2283 6.59748C12.2303 6.58969 12.3257 6.51568 12.3374 6.51568C12.3393 6.51179 12.4796 6.65785 12.647 6.83896ZM16.2887 6.57995C16.2868 6.58774 16.2829 6.59553 16.277 6.60137C16.2712 6.60721 16.2634 6.61111 16.2556 6.61305C16.1621 6.63253 16.1621 6.63253 16.2264 6.58969C16.2478 6.57411 16.2692 6.56242 16.2946 6.55268C16.2946 6.56047 16.2926 6.57021 16.2887 6.57995ZM3.62659 7.16612C4.08034 7.45239 4.45035 7.68608 4.45035 7.68608C4.44256 7.69387 2.57303 7.32581 2.57303 7.31802C2.57693 7.28102 2.78336 6.64032 2.79114 6.64421C2.79504 6.64616 3.17284 6.87985 3.62659 7.16612ZM12.499 7.2927L12.8359 7.9334L12.575 7.76787C12.4328 7.67635 12.1427 7.49134 11.9304 7.35307C11.7162 7.21675 11.5448 7.1038 11.5467 7.09796C11.5506 7.08628 12.1368 6.65395 12.1504 6.65395C12.1582 6.65395 12.314 6.94217 12.499 7.2927ZM18.4815 6.75522C18.5964 6.8039 18.6899 6.84675 18.6879 6.84869C18.686 6.85064 18.5477 6.82338 18.3783 6.78832C18.0745 6.72795 18.0725 6.72795 18.1134 6.70848C18.1777 6.67927 18.2225 6.66564 18.2498 6.66564C18.2614 6.66369 18.3666 6.70458 18.4815 6.75522ZM9.83886 6.68511C9.77264 6.69874 7.56232 7.08822 7.56038 7.08628C7.55843 7.08433 7.63438 7.03565 7.72591 6.97722C7.81744 6.9188 7.95375 6.82922 8.02776 6.78248L8.16408 6.69485L8.63535 6.68706C9.20789 6.67927 9.87002 6.67732 9.83886 6.68511ZM10.9703 7.28686C11.2683 7.61403 11.5078 7.88277 11.5058 7.88667C11.5 7.89251 8.21666 7.87303 8.21081 7.86525C8.20887 7.8633 8.70351 7.59455 9.31111 7.26934C9.9187 6.94412 10.4192 6.68121 10.4231 6.68511C10.427 6.69095 10.6743 6.96164 10.9703 7.28686ZM13.1242 7.0298C13.2566 7.16807 13.3812 7.30049 13.4007 7.32192C13.4357 7.35892 13.4318 7.35892 13.2722 7.28297L13.1066 7.20507L12.9703 6.98501C12.8963 6.86427 12.8223 6.74353 12.8067 6.71821L12.7775 6.66953L12.8301 6.72211C12.8613 6.75327 12.9917 6.89154 13.1242 7.0298ZM7.96154 6.71043C7.94596 6.72406 7.37927 7.08822 7.36174 7.09601C7.35395 7.09796 7.26826 7.01422 7.17089 6.90906L6.99562 6.71627L7.21179 6.71043C7.60322 6.70069 7.97323 6.70069 7.96154 6.71043ZM10.1504 6.72211C10.0589 6.77469 8.05307 7.84188 8.04334 7.84577C8.0297 7.84967 7.43379 7.20507 7.44353 7.19533C7.44937 7.18949 10.1115 6.71432 10.1504 6.71237C10.166 6.71237 10.166 6.71432 10.1504 6.72211ZM13.9304 6.74937C13.9265 6.76495 13.9012 6.83117 13.8778 6.90127L13.833 7.02591V6.9149L13.8311 6.80585L13.8759 6.76495C13.9265 6.71821 13.9421 6.71237 13.9304 6.74937ZM16.02 6.74548C16.0044 6.76106 15.5818 6.97527 15.5954 6.96164C15.6149 6.94217 15.9499 6.74937 15.9732 6.74353C16.0122 6.73379 16.0317 6.73379 16.02 6.74548ZM7.07936 6.94801C7.18063 7.05707 7.26242 7.15249 7.25853 7.15638C7.25463 7.16028 6.92746 7.30828 6.53019 7.4855L5.8077 7.80682L5.94791 7.66856C6.29845 7.32386 6.88657 6.74743 6.89046 6.74743C6.89046 6.74743 6.97615 6.83896 7.07936 6.94801ZM11.0307 6.95191L11.4202 7.13302L11.4825 7.45045C11.5156 7.62571 11.5409 7.77177 11.5409 7.77177C11.539 7.77372 11.3325 7.54976 11.0813 7.27323C10.832 6.9967 10.6295 6.77274 10.6354 6.77274C10.6373 6.7708 10.8165 6.85259 11.0307 6.95191ZM13.6324 6.98112C13.6305 6.99085 13.6246 7.07265 13.6207 7.15833L13.613 7.31607L13.537 7.11159C13.4961 6.99864 13.4513 6.87985 13.4396 6.84869L13.4163 6.79222L13.5253 6.8779C13.6013 6.93438 13.6363 6.96943 13.6324 6.98112ZM15.4844 6.92464C15.3656 6.9967 15.2683 7.05317 15.2644 7.05122C15.2605 7.02006 15.2566 6.98891 15.2566 6.95775L15.2527 6.86622L15.2877 6.86038C15.4494 6.82922 15.6461 6.79806 15.6714 6.79611C15.6889 6.79416 15.6188 6.8448 15.4844 6.92464ZM2.51656 6.89738C2.51266 6.90322 2.46398 6.98891 2.4075 7.09017C2.34908 7.18949 2.30234 7.27323 2.3004 7.27712C2.27703 7.27518 2.25366 7.27128 2.23029 7.26544L2.16213 7.24986L2.3374 7.06875C2.49319 6.90711 2.53214 6.87011 2.51656 6.89738ZM2.54382 7.12523C2.51266 7.22454 2.48151 7.30634 2.47372 7.30634C2.46593 7.30439 2.44645 7.30439 2.43087 7.30244C2.41335 7.30244 2.40166 7.29465 2.40556 7.28686C2.40945 7.26739 2.5964 6.93827 2.6003 6.94217C2.6003 6.94217 2.57693 7.02591 2.54382 7.12523ZM15.1728 7.10575C15.1689 7.11354 15.1125 7.15249 15.0463 7.19339C14.9781 7.23428 14.9099 7.27712 14.8944 7.28686C14.8788 7.2966 14.9099 7.25181 14.9645 7.18754C15.019 7.12328 15.0891 7.04149 15.1183 7.00643L15.1709 6.94412L15.1748 7.01812C15.1767 7.04733 15.1767 7.07654 15.1728 7.10575ZM13.7201 7.11354L13.7045 7.17781L13.7025 7.11159C13.7006 7.04343 13.7103 7.02201 13.7279 7.03954C13.7337 7.04538 13.7317 7.07654 13.7201 7.11354ZM12.0687 7.54782C12.4523 7.79124 12.4932 7.82045 12.4406 7.80098C12.3802 7.77761 11.574 7.44071 11.5682 7.43681C11.5643 7.43292 11.5214 7.23233 11.5195 7.21091C11.5195 7.20312 11.5584 7.22065 11.6052 7.25181C11.6519 7.28102 11.8603 7.41344 12.0687 7.54782ZM7.63048 7.54782L7.93039 7.87498L7.40458 7.90225C6.9372 7.92562 6.81841 7.92756 6.3335 7.91783L5.78822 7.90809L7.32863 7.2187C7.32863 7.2187 7.46495 7.36671 7.63048 7.54782ZM14.7444 7.31023C14.7074 7.35502 14.6587 7.40955 14.6373 7.43292L14.6003 7.47576L14.5633 7.3745L14.6782 7.30439C14.7171 7.27907 14.76 7.25376 14.8028 7.23428C14.8087 7.23039 14.7814 7.26544 14.7444 7.31023ZM14.1933 7.34334C14.4542 7.38423 14.4796 7.39008 14.4912 7.41344C14.501 7.43876 14.4971 7.44266 14.4114 7.47576C14.3218 7.51276 14.3179 7.51276 14.1076 7.51276H13.8953L13.8642 7.47966C13.8525 7.46797 13.8428 7.45434 13.8389 7.44071C13.833 7.42513 13.8311 7.40955 13.833 7.39397C13.833 7.30828 13.8428 7.28491 13.8798 7.2927C13.8934 7.2966 14.0375 7.31997 14.1933 7.34334ZM2.22639 7.34723L2.2595 7.35502L2.20108 7.4485L2.17576 7.39981C2.16602 7.38229 2.15823 7.36281 2.15044 7.34528C2.15434 7.33555 2.18355 7.33749 2.22639 7.34723ZM14.9645 7.35307C14.945 7.37255 14.9255 7.38813 14.9041 7.40371C14.869 7.42902 14.7911 7.48939 14.7327 7.53613C14.6724 7.58287 14.6256 7.61403 14.6295 7.60624C14.6334 7.59455 14.9489 7.35113 14.9625 7.34918L14.9645 7.35307ZM2.45035 7.39397C2.45619 7.39981 2.36271 7.72114 2.35103 7.73282C2.34908 7.73477 2.32571 7.69193 2.29845 7.63934L2.24976 7.54197L2.34713 7.37255L2.39387 7.38034C2.41335 7.38229 2.43282 7.38618 2.45035 7.39397ZM13.4396 7.6374C13.576 7.76398 13.6636 7.85356 13.6597 7.86135C13.6227 7.92172 13.3559 8.25668 13.3501 8.24889C13.3462 8.24499 13.3014 8.05025 13.2507 7.82045C13.2001 7.59066 13.1573 7.39397 13.1534 7.38423C13.1417 7.36281 13.1495 7.36671 13.4396 7.6374ZM13.7434 7.45045C13.7279 7.46602 13.7142 7.44071 13.7279 7.41734C13.7415 7.39397 13.7415 7.39397 13.7454 7.41929C13.7493 7.43097 13.7493 7.44071 13.7434 7.45045ZM3.52143 7.5965C4.03749 7.69387 4.46398 7.77566 4.46787 7.77761C4.47177 7.77956 4.06086 7.88082 3.55453 8.00351C3.04626 8.1262 2.62172 8.22941 2.61003 8.23136C2.59446 8.23526 2.56914 8.19436 2.49514 8.04636L2.40166 7.85551L2.46593 7.64713C2.50293 7.53224 2.53409 7.43097 2.53603 7.42318C2.53798 7.41929 2.54188 7.41539 2.54772 7.41344C2.55161 7.4115 2.55745 7.4115 2.5633 7.41344C2.57498 7.41539 3.00731 7.49913 3.52143 7.5965ZM13.6207 7.60819C13.6305 7.6335 13.6363 7.66077 13.6383 7.68803C13.6344 7.69193 13.3364 7.42123 13.3364 7.41344C13.3812 7.43097 13.426 7.45045 13.4688 7.47187L13.5993 7.53418L13.6207 7.60819ZM2.11734 7.70556C2.09592 7.79514 2.07644 7.86525 2.07644 7.86525C2.07449 7.8633 2.09981 7.52055 2.1076 7.45629C2.10955 7.45239 2.11929 7.47187 2.13292 7.49718L2.15823 7.54392L2.11734 7.70556ZM5.82912 7.65103L5.64022 7.83409L5.63243 7.76593C5.62854 7.72893 5.62464 7.66856 5.62269 7.6335L5.62075 7.56924L5.8077 7.52055C5.90896 7.49329 5.99855 7.47187 6.00439 7.47187C6.01218 7.46797 5.93233 7.54976 5.82912 7.65103ZM12.131 7.76203C12.4192 7.88082 12.647 7.98014 12.6373 7.98209C12.6178 7.98599 11.6597 7.89446 11.6539 7.88667C11.6402 7.87303 11.5837 7.53613 11.5954 7.54003C11.6013 7.54392 11.8428 7.64324 12.131 7.76203ZM13.8447 7.66466C13.9265 7.73477 13.9401 7.75035 13.9577 7.80488L13.9752 7.86719L14.0609 7.89835C14.1407 7.92756 14.1855 7.95677 14.1855 7.98014C14.1855 7.98404 14.1212 8.10867 14.0414 8.25473C13.9168 8.48063 13.8934 8.51763 13.872 8.51374C13.8583 8.51179 13.7804 8.504 13.7006 8.49426L13.5526 8.48063L13.6616 8.16515L13.7746 7.84967L13.7551 7.72893C13.7356 7.59455 13.7356 7.58482 13.7434 7.58482C13.7785 7.60819 13.8116 7.63545 13.8447 7.66466ZM14.1271 7.58871C14.1076 7.6004 14.0881 7.60819 14.0667 7.61403C14.0083 7.6335 14.0044 7.6335 13.981 7.61013L13.9557 7.58482H14.0414C14.0706 7.58287 14.0979 7.58482 14.1271 7.58871ZM5.55064 7.7484V7.9003L5.34811 7.86135C5.23516 7.83798 5.08131 7.80877 5.00536 7.79514L4.86709 7.76787L5.18258 7.68219C5.3559 7.63545 5.50974 7.5965 5.52532 7.5965C5.55064 7.5965 5.55064 7.59845 5.55064 7.7484ZM14.4796 7.61792C14.4698 7.63156 14.4172 7.69387 14.3627 7.75814C14.2692 7.86719 14.2614 7.87498 14.2322 7.8633C14.2167 7.85746 14.1738 7.82046 14.1407 7.78345L14.0784 7.71529L14.2537 7.65687C14.3491 7.62377 14.4445 7.5965 14.462 7.5965C14.4912 7.5965 14.4932 7.59845 14.4796 7.61792ZM2.26339 7.76787L2.30624 7.85161L2.19329 8.02104C2.13292 8.11451 2.08423 8.18073 2.08618 8.1671C2.09007 8.15346 2.11734 8.04636 2.14655 7.92562C2.20497 7.68998 2.21081 7.67245 2.21666 7.67829C2.22055 7.68219 2.24197 7.72308 2.26339 7.76787ZM14.5575 8.02883C14.5497 8.03662 14.3978 7.94898 14.3978 7.9373C14.3978 7.9334 14.4328 7.90614 14.4737 7.87888C14.5166 7.85356 14.5516 7.82435 14.5536 7.81656C14.5594 7.84772 14.5613 7.88082 14.5594 7.91198C14.5633 7.95288 14.5614 7.99183 14.5575 8.02883ZM5.04041 7.88861C5.2371 7.92562 5.39485 7.95677 5.3929 7.95872C5.39095 7.96067 5.30721 7.98599 5.20789 8.01325C5.07157 8.0522 3.50585 8.5449 3.27021 8.62279C3.25074 8.63058 3.23905 8.63058 3.24295 8.62669C3.25074 8.6189 4.66651 7.82435 4.67819 7.82045C4.68209 7.82045 4.84373 7.84967 5.04041 7.88861ZM4.36077 7.90225C3.41042 8.43194 2.87294 8.7299 2.8593 8.73574C2.84373 8.73964 2.81646 8.69485 2.73272 8.52931C2.6743 8.41052 2.62951 8.3151 2.62951 8.3151C2.7152 8.29368 4.35882 7.89446 4.36661 7.89251C4.37245 7.89251 4.36856 7.8964 4.36077 7.90225ZM2.41919 8.42805C2.36466 8.50595 2.26339 8.65785 2.18939 8.76301C2.11734 8.87011 2.05697 8.94801 2.05307 8.94022C2.05113 8.93048 2.04334 8.81559 2.0336 8.68511C2.02191 8.48258 2.02191 8.44168 2.03555 8.42026C2.04528 8.40663 2.11734 8.29173 2.19913 8.1671L2.34713 7.93925L2.43087 8.11452L2.51461 8.28784L2.41919 8.42805ZM11.2916 7.97235L11.4241 7.98014L10.7989 8.30147C10.4445 8.48452 10.1641 8.62279 10.1543 8.6189C10.1388 8.615 8.36271 7.98599 8.28871 7.95872C8.26339 7.95093 11.1242 7.96262 11.2916 7.97235ZM7.78043 7.99183C7.75122 8.00741 7.70254 8.03467 7.67138 8.05025L7.61685 8.07946L7.43769 8.03662L7.25853 7.99183L7.48053 7.9782C7.60322 7.97041 7.7337 7.96456 7.76875 7.96456L7.83301 7.96262L7.78043 7.99183ZM8.53409 8.47479C8.57109 8.51374 8.53798 8.5001 8.15823 8.32484C7.92844 8.21773 7.74149 8.12815 7.74149 8.1223C7.74149 8.11646 7.79991 8.08141 7.87391 8.04051L8.01023 7.96651L8.25171 8.2002C8.38608 8.32678 8.51266 8.45142 8.53409 8.47479ZM6.29845 7.99767C6.56914 7.99767 6.79114 8.00156 6.79114 8.00546C6.79114 8.01325 5.89533 8.44947 5.82328 8.47868C5.81938 8.48063 5.77654 8.36963 5.73175 8.23136L5.64996 7.98209L5.7298 7.98988C5.76875 7.99378 6.02581 7.99767 6.29845 7.99767ZM14.4387 8.06583L14.5185 8.11257L14.4387 8.16515C14.3939 8.19436 14.353 8.21383 14.3471 8.20799C14.3413 8.2041 14.3335 8.15541 14.3316 8.10088C14.3218 7.99183 14.314 7.99378 14.4387 8.06583ZM9.07936 8.32873C9.5448 8.49426 9.9226 8.62863 9.9226 8.62863C9.92065 8.63058 9.66943 8.62669 9.36563 8.62474L8.81062 8.6189L8.50487 8.31899C8.33545 8.15346 8.20692 8.02104 8.21666 8.02493C8.22639 8.02688 8.61588 8.1632 9.07936 8.32873ZM12.4309 8.0522C12.4211 8.05414 12.4114 8.05414 12.4017 8.0522C12.3939 8.0483 12.3997 8.04636 12.4153 8.04636C12.4328 8.04636 12.4387 8.05025 12.4309 8.0522ZM12.7113 8.07946L12.7522 8.08725L12.7171 8.09894C12.6899 8.10867 12.6548 8.10478 12.5633 8.08336L12.4445 8.05609L12.5575 8.06388C12.6081 8.06583 12.6607 8.07167 12.7113 8.07946ZM14.2498 8.20604L14.2576 8.28978L14.166 8.34821C14.1173 8.37936 14.0667 8.41052 14.057 8.41637C14.0472 8.42221 14.0531 8.40663 14.0706 8.37352C14.0862 8.34431 14.129 8.27031 14.1621 8.2041C14.203 8.12815 14.2264 8.09309 14.2322 8.10478C14.242 8.13788 14.2459 8.17294 14.2498 8.20604ZM13.5526 8.21773C13.5292 8.28199 13.5039 8.356 13.4942 8.38326L13.4747 8.43389L13.4338 8.40079C13.4104 8.38326 13.3968 8.36378 13.3987 8.35405C13.4046 8.34042 13.5837 8.10283 13.5896 8.10283C13.5896 8.10283 13.576 8.15541 13.5526 8.21773ZM6.80283 8.22357C6.77751 8.27031 6.65677 8.5001 6.53603 8.73379C6.41335 8.96748 6.30624 9.16807 6.29845 9.17975C6.28676 9.19923 6.27118 9.17586 6.17771 8.9928L6.06865 8.78248L6.10176 8.75716C6.11929 8.74353 6.29455 8.59748 6.4893 8.43584C6.68404 8.27226 6.84762 8.13983 6.84762 8.13983C6.83399 8.16904 6.82036 8.19631 6.80283 8.22357ZM6.65483 8.18462C6.64704 8.18852 6.50293 8.30926 6.33155 8.45142L6.02191 8.70848L5.86612 8.55268L6.1076 8.43779C6.24003 8.37352 6.41335 8.28978 6.49514 8.24889C6.63535 8.17878 6.67819 8.16125 6.65483 8.18462ZM12.723 8.20215C12.7074 8.21578 12.5205 8.38521 12.3101 8.57411C12.0998 8.76495 11.9051 8.93827 11.8817 8.96164L11.835 9.00449L11.8836 8.91296C11.9109 8.86427 11.9596 8.77664 11.9908 8.72016L12.0492 8.6189L12.3121 8.44752C12.6139 8.25083 12.7386 8.17294 12.7483 8.17294C12.7483 8.17294 12.7386 8.18657 12.723 8.20215ZM14.4854 8.27615C14.4757 8.30147 14.4562 8.34626 14.4426 8.37936C14.4348 8.40273 14.4231 8.4261 14.4114 8.44752C14.4056 8.45142 14.3958 8.42415 14.3861 8.38326C14.3725 8.32289 14.3725 8.30926 14.388 8.30147C14.4075 8.28978 14.427 8.27615 14.4465 8.26252C14.501 8.22357 14.5068 8.22552 14.4854 8.27615ZM14.3199 8.46505C14.3296 8.51179 14.3393 8.55268 14.3393 8.55268C14.3393 8.55853 14.0667 8.52932 14.0609 8.52347C14.0589 8.52153 14.1076 8.48452 14.1699 8.44168C14.2342 8.39884 14.2887 8.36768 14.2926 8.37157C14.3062 8.40273 14.314 8.43389 14.3199 8.46505ZM2.75999 8.81559C2.74441 8.84285 2.19913 9.50887 2.19523 9.50497C2.19329 9.50303 2.27703 9.25181 2.38219 8.94801L2.57303 8.39689L2.6704 8.59942C2.72299 8.71043 2.76388 8.8078 2.75999 8.81559ZM13.3695 8.46505C13.389 8.48063 13.4065 8.5001 13.4065 8.50595C13.4065 8.50984 13.3131 8.57021 13.1982 8.63642C13.0833 8.70264 12.9761 8.76495 12.9586 8.77469C12.943 8.78443 12.9664 8.75911 13.0112 8.71627C13.2624 8.48647 13.3189 8.43584 13.3267 8.43389C13.3423 8.44168 13.3578 8.45337 13.3695 8.46505ZM13.8155 8.59163C13.8194 8.59553 13.3286 9.03759 13.3053 9.05122C13.2975 9.05512 13.3267 8.98112 13.3695 8.88569C13.4143 8.78832 13.4669 8.67537 13.4844 8.63253L13.5195 8.55658L13.6655 8.57216C13.7473 8.57995 13.8135 8.58969 13.8155 8.59163ZM13.017 8.57995C13.017 8.59163 12.5302 9.02396 12.5166 9.02396C12.5088 9.02591 12.3822 9.04733 12.2322 9.07654C12.0842 9.10575 11.9596 9.12717 11.9577 9.12523C11.9557 9.12328 12.9995 8.57995 13.0132 8.57605C13.017 8.57605 13.017 8.57995 13.017 8.57995ZM2.26729 9.01812C2.1855 9.24986 2.11344 9.45629 2.10565 9.47771C2.09202 9.50887 2.09007 9.49134 2.07644 9.30634L2.06281 9.09991L2.23418 8.8448C2.32766 8.70458 2.4075 8.58969 2.40945 8.59163C2.4114 8.59358 2.34713 8.78638 2.26729 9.01812ZM14.1095 8.61695C14.1563 8.62084 14.2011 8.62669 14.2147 8.63058C14.2381 8.63837 14.1952 8.66174 13.7084 8.91101L13.4377 9.04928L13.502 8.99085C13.537 8.9597 13.65 8.85843 13.7493 8.7669C13.9284 8.60332 13.9323 8.59942 13.9791 8.60526C14.0044 8.60721 14.0648 8.61305 14.1095 8.61695ZM13.3793 8.65979C13.3715 8.68121 13.3033 8.83117 13.2274 8.9928C13.1534 9.15444 13.0502 9.38034 12.9995 9.49134L12.908 9.69387L12.8418 9.73477C12.8184 9.75035 12.795 9.76398 12.7697 9.77566C12.76 9.77566 12.612 9.09796 12.6178 9.08044C12.6217 9.0707 13.3734 8.62279 13.3929 8.6189C13.389 8.63642 13.3851 8.64811 13.3793 8.65979ZM5.88559 8.70458C5.93428 8.75327 5.95181 8.77859 5.94402 8.79027C5.9187 8.83117 5.64022 9.21286 5.63827 9.20896C5.63243 9.20507 5.8038 8.63448 5.80965 8.63448C5.83691 8.6559 5.86223 8.67927 5.88559 8.70458ZM11.9206 8.66369C11.9206 8.66369 11.8583 8.78053 11.7824 8.91685L11.6441 9.16417L11.5779 9.12523C11.3695 9.00643 11.1086 8.85064 11.1125 8.84869C11.1164 8.8448 11.8914 8.65979 11.9129 8.65785C11.9168 8.65785 11.9206 8.65979 11.9206 8.66369ZM1.97128 8.91685L1.97907 9.07459L1.84665 9.27128C1.77264 9.38034 1.71033 9.46797 1.70838 9.46602C1.70643 9.46408 1.75901 9.28491 1.82717 9.06486C1.96349 8.6189 1.9557 8.62669 1.97128 8.91685ZM10.8398 8.84869C10.869 8.85259 10.9002 8.85843 10.9294 8.86427C10.9353 8.86817 10.7853 9.2927 10.7775 9.2927C10.7736 9.2927 10.7639 9.21675 10.7541 9.12328C10.7464 9.03175 10.7366 8.92659 10.7327 8.89348C10.7249 8.82727 10.7191 8.82922 10.8398 8.84869ZM11.1319 8.96554C11.1709 8.98696 11.2079 9.01033 11.2449 9.03759C11.2507 9.04733 11.1923 9.77956 11.1845 9.78735C11.1826 9.7893 11.0969 9.72698 10.9937 9.64713C10.8905 9.56729 10.8048 9.50108 10.8048 9.50108C10.797 9.49718 11.0093 8.90517 11.019 8.90517C11.056 8.92269 11.0949 8.94217 11.1319 8.96554ZM1.65385 9.34139L1.5448 9.69971L1.48637 9.69582C1.46495 9.69582 1.44548 9.69387 1.42406 9.68803C1.42211 9.68608 1.49611 9.52445 1.58959 9.32971C1.68112 9.13496 1.75901 8.97527 1.76096 8.97722C1.76291 8.98306 1.71422 9.1447 1.65385 9.34139ZM5.82328 9.52639C5.76485 9.82435 5.71422 10.0814 5.70838 10.097C5.69475 10.1496 5.62269 9.9003 5.58764 9.68024L5.55453 9.4816L5.73759 9.22844C5.83886 9.09017 5.9226 8.97722 5.92454 8.97917C5.92649 8.98306 5.8817 9.22844 5.82328 9.52639ZM6.21081 9.95872C6.21276 9.9743 5.71812 10.5468 5.70838 10.541C5.70838 10.541 5.77654 10.1905 5.86223 9.76203L6.01607 8.98306L6.11344 9.46018C6.16602 9.72308 6.21081 9.94704 6.21081 9.95872ZM6.24003 9.47576L6.23224 9.62961L6.18355 9.38813C6.15629 9.2557 6.13097 9.12717 6.12707 9.10575C6.12318 9.07849 6.14071 9.1077 6.1855 9.19339L6.25171 9.32386L6.24003 9.47576ZM11.4396 9.47966C11.352 9.61013 11.2761 9.71529 11.2761 9.71529C11.2722 9.71335 11.3169 9.20507 11.3267 9.13302L11.3325 9.08433L11.6013 9.24012L11.4396 9.47966ZM2.00439 9.45629C2.01218 9.58676 2.01802 9.69387 2.01802 9.69387C2.01607 9.69582 1.93428 9.69971 1.83496 9.70361C1.70838 9.70945 1.65385 9.7075 1.65775 9.69971C1.66554 9.68024 1.98102 9.21675 1.98491 9.2187C1.98491 9.2187 1.9966 9.32776 2.00439 9.45629ZM10.9762 9.7484C11.0579 9.81267 11.1242 9.86719 11.128 9.87304C11.1319 9.88277 10.8476 10.0561 10.8418 10.0483C10.8398 10.0464 10.832 9.97235 10.8243 9.88472C10.8165 9.79709 10.8087 9.69777 10.8028 9.66661C10.797 9.61792 10.7989 9.61013 10.8126 9.61987C10.8223 9.62766 10.8963 9.68608 10.9762 9.7484ZM1.97907 9.83409C1.96544 9.86524 1.89338 10.0425 1.81549 10.2294L1.67527 10.5663L1.56232 10.4281L1.58764 10.1126C1.60517 9.9003 1.61685 9.79319 1.62854 9.78735C1.63633 9.78345 1.72396 9.77761 1.82133 9.77761H2.00244L1.97907 9.83409ZM1.52337 9.89835C1.51948 9.94509 1.50974 10.0639 1.50195 10.1593L1.48832 10.3346L1.167 9.9373L1.33253 9.87693C1.42406 9.84382 1.50585 9.81461 1.51364 9.81461C1.52727 9.81461 1.52727 9.83409 1.52337 9.89835ZM1.93623 10.3677C1.91286 10.5274 1.89533 10.6715 1.89533 10.6871C1.89533 10.7124 1.97128 10.8623 2.07644 11.0395C2.1076 11.0921 2.09981 11.0824 1.96544 10.9207C1.75901 10.6715 1.73954 10.6462 1.74538 10.6247C1.75317 10.5936 1.97128 10.0717 1.97323 10.0756C1.97518 10.0775 1.95765 10.2099 1.93623 10.3677ZM6.69183 10.5118C6.63925 10.5215 6.58472 10.5274 6.53019 10.5274C6.4484 10.5313 6.36466 10.5391 6.34519 10.5429L6.30624 10.5488V10.3209L6.30819 10.0911L6.50682 10.2976C6.62561 10.4222 6.69962 10.5059 6.69183 10.5118ZM6.45619 10.7202C6.58082 10.7747 6.67819 10.8234 6.67819 10.8234C6.67625 10.8253 6.45814 10.7922 6.19523 10.7494L5.71617 10.6695L5.81744 10.5566C5.87196 10.4943 5.98491 10.3677 6.06671 10.2762L6.21471 10.1106L6.22639 10.6169L6.45619 10.7202ZM1.34421 10.2898L1.48053 10.4592L1.46495 10.6754C1.45522 10.7961 1.44548 10.9071 1.44548 10.9227C1.44158 10.948 1.3929 10.7864 1.22347 10.1944C1.21568 10.171 1.20984 10.1457 1.20789 10.1204C1.20789 10.1204 1.27021 10.1963 1.34421 10.2898ZM1.63438 10.6539C1.63438 10.6695 1.53701 10.9013 1.53116 10.8954C1.52727 10.8935 1.53116 10.8234 1.53895 10.7416C1.54674 10.6598 1.55259 10.5838 1.55259 10.5722C1.55259 10.5585 1.56622 10.5683 1.59348 10.5994C1.60906 10.615 1.62269 10.6345 1.63438 10.6539ZM6.84762 10.7065C6.87099 10.7435 6.88852 10.7825 6.9041 10.8234C6.90215 10.8253 6.79699 10.7825 6.67235 10.726C6.54772 10.6695 6.4484 10.6208 6.45229 10.6189C6.45814 10.6111 6.62951 10.5975 6.72688 10.5936L6.78725 10.5916L6.84762 10.7065ZM1.9927 11.098C2.13876 11.281 2.25171 11.429 2.24392 11.4271C1.9557 11.3239 1.52727 11.1603 1.52727 11.1525C1.52727 11.1447 1.56427 11.0493 1.61296 10.9363C1.68112 10.7727 1.70059 10.7357 1.71227 10.7474C1.72201 10.7572 1.84665 10.9149 1.9927 11.098Z"
    fill="#42B263" />
  <path
    d="M15.4981 6.10088C15.4864 6.11646 15.352 6.54489 15.352 6.56632C15.354 6.578 15.3617 6.58774 15.3695 6.59553C15.3832 6.60721 15.4085 6.60332 15.5059 6.56632C15.5701 6.54295 15.6305 6.51374 15.6363 6.50595C15.6461 6.49231 15.6402 6.44752 15.6071 6.29952C15.5838 6.19436 15.5584 6.10283 15.5487 6.09894C15.5292 6.08336 15.5117 6.08336 15.4981 6.10088ZM15.5526 6.43389C15.5545 6.45142 15.5429 6.4631 15.5117 6.47479C15.4961 6.48258 15.4805 6.48452 15.465 6.48452C15.4611 6.48063 15.4942 6.36963 15.5156 6.30926C15.5214 6.29368 15.5506 6.38715 15.5526 6.43389Z"
    fill="#42B263" />
</svg>