<svg width="201" height="201" fill="none" xmlns="http://www.w3.org/2000/svg"><path d="M54.407 39.795c2.986.82 5.836.957 8.415.41 3.393-.546 6.921.547 9.364 3.006l5.43 5.465c2.578 2.596 3.8 6.422 2.986 10.11-.679 3.28-.679 6.97.678 10.794 2.308 6.559 8.008 11.75 14.794 12.98 12.622 2.323 23.616-7.378 23.616-19.674 0-1.503-.136-3.006-.543-4.372-.814-3.553.407-7.378 2.986-9.974l5.293-5.329c2.579-2.596 6.108-3.689 9.637-3.006 3.121.547 6.514.41 10.179-.82 6.651-2.459 11.808-8.47 12.894-15.575 2.171-13.8-9.773-25.55-23.616-22.817-6.786 1.23-12.758 6.831-14.794 13.936-1.086 3.826-.95 7.515 0 10.93 1.085 3.826 0 7.925-2.85 10.657l-4.072 4.1c-2.579 2.595-6.379 3.961-10.043 3.005-1.494-.41-3.122-.683-4.751-.683-1.765 0-3.393.273-4.886.683-3.529.956-7.465-.273-10.044-3.006l-3.664-3.689c-2.85-2.869-3.8-6.968-2.715-10.793.95-3.416 1.086-7.105.136-10.93-1.9-7.105-7.736-12.707-14.93-14.073-13.98-3.143-26.059 8.744-23.751 22.68 1.221 7.651 6.922 13.936 14.25 15.985Zm93.106 121.873c-3.529-1.229-7.057-1.502-10.179-.82-3.529.684-7.057-.546-9.636-3.005l-5.294-5.329c-2.578-2.596-3.8-6.421-2.986-9.974.272-1.366.544-2.869.544-4.372 0-12.297-10.994-21.997-23.617-19.674-6.786 1.229-12.486 6.421-14.793 12.979-1.358 3.826-1.493 7.378-.679 10.794.814 3.689-.271 7.378-2.986 10.11l-5.429 5.466c-2.443 2.459-5.972 3.689-9.365 3.005-2.715-.409-5.565-.409-8.415.41-7.329 2.05-13.165 8.335-14.387 15.849-2.307 13.936 9.908 25.823 23.752 22.954 7.058-1.503 13.03-7.105 14.93-14.073.95-3.825.95-7.651-.136-10.93-1.086-3.826 0-7.925 2.715-10.794l3.664-3.689c2.579-2.596 6.379-3.962 10.043-3.006 1.63.41 3.258.683 4.887.683 1.629 0 3.257-.273 4.75-.683 3.529-.956 7.329.274 10.044 3.006l4.071 4.099c2.715 2.733 3.8 6.831 2.851 10.657-.95 3.279-.95 7.105 0 10.93 1.9 7.105 8.007 12.57 15.065 13.936 13.844 2.733 25.787-9.017 23.616-22.817-1.222-7.241-6.379-13.253-13.03-15.712ZM40.291 138.031c-.542-3.415.543-6.967 2.986-9.427l5.43-5.465c2.578-2.596 6.378-3.825 10.043-3.006 3.257.683 6.922.683 10.722-.683 6.515-2.323 11.672-8.061 12.894-14.893 2.307-12.706-7.33-23.773-19.544-23.773-1.494 0-2.986.137-4.343.546-3.53.82-7.33-.41-9.909-3.005l-5.293-5.329c-2.578-2.596-3.664-6.148-2.986-9.7.543-3.143.408-6.558-.814-10.248-2.443-6.694-8.415-11.886-15.472-12.98-13.709-2.322-25.38 9.701-22.666 23.5C2.696 70.81 8.26 76.823 15.182 78.736c3.8 1.093 7.465.956 10.858 0 3.8-1.093 7.872 0 10.587 2.87l4.072 4.098c2.578 2.596 3.936 6.421 2.986 10.11-.408 1.503-.68 3.143-.68 4.782 0 1.776.272 3.416.68 4.919.95 3.552-.272 7.514-2.986 10.11l-3.665 3.69c-2.85 2.869-6.922 3.825-10.722 2.732-3.393-.956-7.058-1.093-10.858-.137-7.058 1.913-12.622 7.788-13.98 15.03-2.85 14.072 8.958 26.232 22.802 23.909 7.465-1.229 13.844-7.104 15.744-14.482.679-2.733.814-5.602.271-8.335Zm158.798-.956c-1.493-7.105-7.058-13.116-13.98-15.029-3.8-.956-7.601-.956-10.858.137-3.8 1.092-7.872 0-10.722-2.733l-3.665-3.689c-2.578-2.596-3.936-6.421-2.985-10.111.407-1.639.678-3.279.678-4.918 0-1.64-.271-3.279-.678-4.782-.951-3.553.271-7.378 2.985-10.11l4.072-4.1c2.715-2.732 6.786-3.825 10.586-2.869 3.258.957 7.058.957 10.859 0 7.057-1.912 12.486-8.06 13.843-15.165 2.715-13.937-8.958-25.96-22.666-23.774-7.057 1.093-13.029 6.285-15.472 12.98-1.222 3.552-1.493 7.105-.814 10.247.678 3.553-.544 7.105-2.986 9.7l-5.294 5.329c-2.578 2.596-6.379 3.826-9.907 3.006-1.358-.273-2.851-.547-4.344-.547-12.215 0-21.851 11.068-19.544 23.774 1.221 6.831 6.379 12.57 12.894 14.893 3.8 1.366 7.329 1.502 10.722.682 3.665-.819 7.329.274 10.044 3.006l5.429 5.466c2.442 2.459 3.664 6.011 2.986 9.427-.408 2.732-.408 5.602.407 8.471 2.035 7.378 8.279 13.253 15.744 14.482 13.843 2.46 25.651-9.7 22.666-23.773Z" fill="url(#a)"/><defs><linearGradient id="a" x1="39.419" y1="54.107" x2="659.318" y2="151.124" gradientUnits="userSpaceOnUse"><stop offset="0" stop-color="#373ECC"/><stop offset=".012" stop-color="#423DD1"/><stop offset=".048" stop-color="#5C3BDF"/><stop offset=".088" stop-color="#7139EA"/><stop offset=".133" stop-color="#8038F1"/><stop offset=".186" stop-color="#8837F6"/><stop offset=".269" stop-color="#8B37F7"/><stop offset=".363" stop-color="#B147E1"/><stop offset=".53" stop-color="#FD66B5"/><stop offset=".69" stop-color="#FB6E80"/><stop offset=".794" stop-color="#FA7262"/><stop offset="1" stop-color="#FFBB4D"/></linearGradient></defs></svg>