<svg viewBox="0 0 18 5" fill="none" xmlns="http://www.w3.org/2000/svg">
  <path
    d="M12.9255 3.29522C12.9255 2.59841 13.4291 2.05789 14.1651 2.05789C14.843 2.05789 15.3466 2.58539 15.3466 3.29522C15.3466 3.39291 15.3401 3.48407 15.3208 3.57524H13.6679C13.7583 3.8162 13.9714 3.90086 14.2232 3.90086C14.3911 3.90737 14.5525 3.84225 14.6687 3.72503L15.2239 4.05064C14.998 4.36974 14.6493 4.53256 14.2103 4.53256C13.4162 4.53256 12.9255 3.99855 12.9255 3.29522ZM13.6486 3.05426H14.6493C14.5977 2.82633 14.3911 2.67004 14.1586 2.68306C13.8939 2.68306 13.7131 2.8133 13.6486 3.05426ZM17.0059 4.46744L16.5733 3.84877L16.1407 4.46744H15.3401L16.173 3.27568L15.366 2.12301H16.1666L16.5733 2.7026L16.9801 2.12301H17.7806L16.9736 3.27568L17.8065 4.46744H17.0059ZM9.75541 1.71274C9.16788 1.71274 8.81924 1.98625 8.81924 1.98625L8.5158 0.761935C8.5158 0.761935 8.87735 1.31548 9.27118 1.2178C9.7425 1.10057 9.81352 0.364695 9.81352 0.364695C9.81352 0.364695 10.0072 1.25036 10.3881 1.25036C10.7691 1.25036 11.0854 0.761935 11.0854 0.761935L10.8143 1.98625C10.4914 1.81042 10.1299 1.71925 9.75541 1.71274ZM10.2396 1.10057L10.4204 0.918239C10.4204 0.918239 10.556 1.08103 10.5689 1.10057C10.5237 1.13964 10.4721 1.15919 10.414 1.15919C10.3558 1.15919 10.2913 1.13964 10.2396 1.10057ZM9.05812 1.10057C9.07749 1.07452 9.20662 0.918239 9.20662 0.918239L9.3874 1.10057C9.33575 1.13964 9.27764 1.15919 9.21308 1.15919C9.16143 1.15919 9.10332 1.13964 9.05812 1.10057ZM10.3042 0.690309C10.3042 0.612162 10.3623 0.553545 10.4398 0.553545C10.5173 0.553545 10.5754 0.612162 10.5754 0.690309C10.5754 0.768457 10.5173 0.827058 10.4398 0.827058C10.3623 0.827058 10.3042 0.761944 10.3042 0.690309ZM9.05812 0.690309C9.05812 0.612162 9.11624 0.553545 9.19371 0.553545C9.27119 0.553545 9.32929 0.612162 9.32929 0.690309C9.32929 0.768457 9.27119 0.827058 9.19371 0.827058C9.12269 0.827058 9.05812 0.761944 9.05812 0.690309ZM11.0273 0.592625C11.0273 0.514477 11.0854 0.45586 11.1629 0.45586C11.2404 0.45586 11.2985 0.514477 11.2985 0.592625C11.2985 0.670772 11.2404 0.729373 11.1629 0.729373C11.0919 0.735886 11.0273 0.670772 11.0273 0.592625C11.0273 0.599137 11.0273 0.599137 11.0273 0.592625ZM8.30273 0.592625C8.30273 0.514477 8.36084 0.45586 8.43832 0.45586C8.51579 0.45586 8.5739 0.514477 8.5739 0.592625C8.5739 0.670772 8.51579 0.729373 8.43832 0.729373C8.36084 0.735886 8.30273 0.670772 8.30273 0.592625C8.30273 0.599137 8.30273 0.599137 8.30273 0.592625ZM9.66502 0.136764C9.66502 0.058617 9.72312 0 9.8006 0C9.87808 0 9.93619 0.058617 9.93619 0.136764C9.93619 0.214912 9.87808 0.273513 9.8006 0.273513C9.72958 0.273513 9.66502 0.214912 9.66502 0.136764Z"
    fill="#F88E0D" />
  <path
    d="M8.58047 3.29492C8.58047 2.5981 9.08406 2.05758 9.82008 2.05758C10.498 2.05758 11.0016 2.58508 11.0016 3.29492C11.0016 3.3926 10.9951 3.48376 10.9758 3.57493H9.32295C9.41334 3.81589 9.6264 3.90055 9.87819 3.90055C10.0461 3.90706 10.2075 3.84194 10.3237 3.72472L10.8789 4.05033C10.653 4.36943 10.3043 4.53225 9.86528 4.53225C9.07115 4.53225 8.58047 3.99824 8.58047 3.29492ZM9.30358 3.05395H10.3043C10.2527 2.82602 10.0461 2.66973 9.81363 2.68275C9.54892 2.68275 9.36814 2.81299 9.30358 3.05395ZM6.40468 3.97871L7.01158 3.63355C7.06323 3.80938 7.22464 3.9266 7.40541 3.90706C7.57328 3.90706 7.65721 3.85497 7.65721 3.7638C7.65721 3.50331 6.51444 3.64006 6.51444 2.83254C6.51444 2.32458 6.94056 2.06408 7.42479 2.06408C7.7928 2.05106 8.14144 2.24642 8.32867 2.56553L7.73469 2.89114C7.68303 2.76741 7.56037 2.68275 7.42479 2.68275C7.30212 2.68275 7.2311 2.72834 7.2311 2.813C7.2311 3.08 8.37386 2.90417 8.37386 3.7703C8.37386 4.31082 7.90901 4.53875 7.40541 4.53875C6.94056 4.53224 6.58546 4.35642 6.40468 3.97871ZM2.75685 3.8159C2.75685 3.29492 3.15069 3.11908 3.622 3.08001C4.01584 3.04745 4.17079 3.01489 4.17079 2.87162V2.8651C4.17079 2.7088 4.05458 2.61763 3.8738 2.61763C3.68011 2.61763 3.55744 2.7088 3.52516 2.85858L2.84079 2.83254C2.89889 2.40273 3.25399 2.09014 3.88026 2.09014C4.47424 2.09014 4.90682 2.37668 4.90682 2.87162V4.46713H4.20953V4.14151H4.19016C4.06104 4.38247 3.84152 4.50619 3.51225 4.50619C3.07322 4.50619 2.75685 4.28478 2.75685 3.8159ZM3.78341 3.50981C3.57035 3.54237 3.45414 3.63355 3.45414 3.78334C3.45414 3.93963 3.57681 4.02429 3.74467 4.02429C3.98356 4.02429 4.17079 3.86798 4.17079 3.64005V3.41864C4.04812 3.46423 3.91899 3.49678 3.78341 3.50981ZM11.389 4.46713V2.1227H12.0863V2.53948C12.1766 2.22689 12.493 2.07711 12.7835 2.07711C12.7835 2.07711 13.016 2.04455 13.016 2.18131C12.945 2.37016 12.7835 2.74137 12.7835 2.74137C12.493 2.69579 12.0863 2.813 12.0863 3.27538V4.46713H11.389ZM5.37812 4.46713V2.1227H6.07541V4.46713H5.37812ZM1.78195 4.46713L0.742479 2.94976V4.46713H0V1.18492H0.742479V2.61113L1.73676 1.18492H2.58253L1.48496 2.78695L2.62773 4.47363L1.78195 4.46713ZM5.31356 1.49752C5.31356 1.26308 5.50079 1.07422 5.73322 1.07422C5.96565 1.07422 6.15288 1.26308 6.15288 1.49752C6.15288 1.73196 5.96565 1.92082 5.73322 1.92082C5.50079 1.9143 5.31356 1.72545 5.31356 1.49752Z"
    fill="#637282" />
</svg>