<svg viewBox="0 0 18 5" fill="none" xmlns="http://www.w3.org/2000/svg"><path d="M12.925 3.295c0-.697.504-1.237 1.24-1.237.678 0 1.182.527 1.182 1.237 0 .098-.007.19-.026.28h-1.653c.09.241.303.326.555.326a.595.595 0 0 0 .446-.176l.555.326c-.226.319-.575.482-1.014.482-.794 0-1.285-.534-1.285-1.238Zm.724-.24h1a.475.475 0 0 0-.49-.372c-.265 0-.446.13-.51.371Zm3.357 1.412-.433-.618-.432.618h-.8l.832-1.191-.807-1.153h.8l.407.58.407-.58h.8l-.806 1.153.832 1.191h-.8Zm-7.25-2.754c-.588 0-.937.273-.937.273L8.516.762s.361.553.755.456c.471-.117.543-.853.543-.853s.193.885.574.885c.381 0 .697-.488.697-.488l-.27 1.224a2.288 2.288 0 0 0-1.06-.273Zm.484-.612.18-.183s.136.163.149.183a.23.23 0 0 1-.155.058.296.296 0 0 1-.174-.058Zm-1.182 0 .149-.183.18.183a.282.282 0 0 1-.174.058.243.243 0 0 1-.155-.058Zm1.246-.41c0-.079.058-.137.136-.137.077 0 .135.058.135.136a.133.133 0 0 1-.135.137.137.137 0 0 1-.136-.137Zm-1.246 0c0-.079.058-.137.136-.137.077 0 .135.058.135.136a.133.133 0 0 1-.135.137.141.141 0 0 1-.136-.137Zm1.97-.098c0-.079.057-.137.135-.137.077 0 .136.058.136.137a.133.133 0 0 1-.136.136c-.071.007-.136-.058-.136-.136 0 .006 0 .006 0 0Zm-2.725 0c0-.079.058-.137.135-.137.078 0 .136.058.136.137a.133.133 0 0 1-.136.136c-.077.007-.135-.058-.135-.136 0 .006 0 .006 0 0ZM9.665.137c0-.078.058-.137.136-.137.077 0 .135.059.135.137a.133.133 0 0 1-.135.137.137.137 0 0 1-.136-.137Z" fill="#F88E0D"/><path d="M8.58 3.295c0-.697.504-1.237 1.24-1.237.678 0 1.182.527 1.182 1.237 0 .098-.007.189-.026.28H9.323c.09.24.303.326.555.326a.595.595 0 0 0 .446-.176l.555.325c-.226.32-.575.482-1.014.482-.794 0-1.285-.534-1.285-1.237Zm.724-.241h1a.475.475 0 0 0-.49-.371c-.265 0-.446.13-.51.371Zm-2.9.925.608-.345a.371.371 0 0 0 .393.273c.168 0 .252-.052.252-.143 0-.26-1.143-.124-1.143-.931 0-.508.427-.769.91-.769.369-.013.717.182.905.502l-.594.325a.339.339 0 0 0-.31-.208c-.123 0-.194.045-.194.13 0 .267 1.143.091 1.143.957 0 .54-.465.769-.969.769-.464-.007-.82-.183-1-.56Zm-3.647-.163c0-.521.394-.697.865-.736.394-.033.549-.065.549-.208v-.007c0-.156-.116-.247-.297-.247-.194 0-.317.09-.349.24l-.684-.025c.058-.43.413-.743 1.04-.743.593 0 1.026.287 1.026.782v1.595H4.21v-.325h-.02c-.129.24-.348.364-.678.364-.439 0-.755-.221-.755-.69Zm1.026-.306c-.213.032-.329.124-.329.273 0 .157.123.241.29.241.24 0 .427-.156.427-.384v-.221a1.53 1.53 0 0 1-.388.09Zm7.606.957V2.123h.697v.416c.09-.312.407-.462.697-.462 0 0 .233-.032.233.104-.071.19-.232.56-.232.56-.291-.045-.698.072-.698.534v1.192h-.697Zm-6.01 0V2.123h.696v2.344h-.697Zm-3.597 0L.742 2.95v1.517H0V1.185h.742V2.61l.995-1.426h.846L1.485 2.787l1.143 1.687-.846-.007Zm3.532-2.97a.42.42 0 1 1 .839 0 .42.42 0 0 1-.42.424.43.43 0 0 1-.42-.423Z" fill="#637282"/></svg>