<svg width="20" height="20" viewBox="0 0 20 20" fill="none" xmlns="http://www.w3.org/2000/svg">
<g clip-path="url(#clip0_119_392)">
<path fill-rule="evenodd" clip-rule="evenodd" d="M6.25349 2.63889C6.25349 1.18147 5.07745 0 3.62674 0C2.17603 0 1 1.18147 1 2.63889V17.3611C1 18.8185 2.17603 20 3.62674 20C4.14198 20 4.62257 19.851 5.02818 19.5937C5.20383 19.4863 5.36965 19.3563 5.5215 19.2038L5.66622 19.0584L5.73721 18.987L6.9943 17.724L7.30765 17.4092L7.48351 17.2325L7.52519 17.1907L7.6058 17.1097L7.71984 16.9951L7.73395 16.9809C7.81514 16.8997 8.05566 16.661 8.45551 16.2649C9.30824 15.4198 10.6756 15.4102 11.5401 16.2431L11.5808 16.2824C11.9832 16.67 12.2248 16.904 12.3058 16.9843L12.7777 17.4582L12.8728 17.5538L13.4033 18.0868L13.5204 18.2044L13.959 18.645L14.0926 18.7792L14.5152 19.2038C15.541 20.2343 17.2041 20.2343 18.2299 19.2038C19.2557 18.1732 19.2576 16.456 18.2299 15.3329C17.2022 14.2098 16.4123 13.3633 15.6139 12.5597C14.8154 11.7561 14.3134 11.2989 13.472 10.5396C13.3945 10.4697 13.3054 10.3864 13.2046 10.2899C13.1736 10.2602 13.1422 10.2309 13.1103 10.2021C11.253 8.52144 8.39123 8.67161 6.71833 10.5375L6.61603 10.6403L6.45676 10.8003L6.34671 10.9108L6.25439 11.0036L6.25349 2.63889ZM17.9647 0.829538C16.7515 -0.171627 14.9564 0.000233173 13.9552 1.2134L11.7515 3.88382C10.7503 5.09698 10.9222 6.89205 12.1353 7.89322C13.3485 8.89439 15.1436 8.72253 16.1448 7.50936L18.3485 4.83894C19.3497 3.62578 19.1778 1.8307 17.9647 0.829538Z" fill="url(#paint0_linear_119_392)"/>
</g>
<defs>
<linearGradient id="paint0_linear_119_392" x1="17.1194" y1="-0.993789" x2="3.8708" y2="21.7969" gradientUnits="userSpaceOnUse">
<stop stop-color="#F3D7AF"/>
<stop offset="1" stop-color="#B98B59"/>
</linearGradient>
<clipPath id="clip0_119_392">
<rect width="20" height="20" fill="white"/>
</clipPath>
</defs>
</svg>
