<svg width="20" height="20" viewBox="0 0 20 20" fill="none" xmlns="http://www.w3.org/2000/svg">
<g clip-path="url(#clip0_11007_13989)">
<path d="M10 20C15.5228 20 20 15.5228 20 10C20 4.47715 15.5228 0 10 0C4.47715 0 0 4.47715 0 10C0 15.5228 4.47715 20 10 20Z" fill="#5741D9"/>
<path d="M2.69434 11.5311C2.69434 11.2527 2.6992 10.9746 2.69263 10.6962C2.67963 10.1588 2.71855 9.62139 2.80884 9.09148C2.96303 8.20232 3.24314 7.36285 3.70114 6.58648C4.46923 5.28244 5.55226 4.32362 6.91626 3.68088C7.51866 3.39277 8.16003 3.1945 8.81992 3.09239C9.16513 3.03985 9.51177 2.99702 9.86326 3.00016C11.3566 3.0113 12.7472 3.38021 14.0035 4.20398C15.2345 5.01176 16.1585 6.08051 16.7135 7.45308C16.9697 8.09801 17.1399 8.77388 17.2195 9.46324C17.3134 10.2251 17.318 10.99 17.3052 11.7567C17.2972 12.1701 17.2989 12.5847 17.2923 12.997C17.2892 13.1766 17.2829 13.3565 17.2352 13.533C17.049 14.2183 16.2667 14.5301 15.6933 14.15C15.4363 13.9815 15.3101 13.7334 15.265 13.4362C15.2332 13.2374 15.2173 13.0364 15.2173 12.8351V10.3398C15.2173 10.0138 15.1157 9.72422 14.893 9.48323C14.5032 9.06492 13.9053 9.04893 13.4679 9.43555C13.2229 9.65341 13.1115 9.93009 13.0878 10.2482C13.0784 10.3675 13.075 10.4866 13.075 10.606C13.0732 11.5237 13.0767 12.4397 13.0701 13.3574C13.0653 13.8773 12.6704 14.2751 12.1398 14.3116C11.8956 14.3299 11.6533 14.2564 11.4604 14.1056C11.2674 13.9547 11.1377 13.7373 11.0965 13.4959C11.074 13.3571 11.0634 13.2167 11.0648 13.0761C11.0648 12.1536 11.0665 11.2313 11.0648 10.3087C11.069 10.0052 10.9529 9.71245 10.7419 9.49437C10.3044 9.03466 9.64597 9.04893 9.22138 9.52149C9.01294 9.7522 8.92243 10.0209 8.92243 10.3278C8.92243 11.2393 8.92071 12.1521 8.92243 13.0633C8.92243 13.2985 8.89387 13.5293 8.79679 13.7454C8.71918 13.9257 8.5883 14.0779 8.42172 14.1816C8.25514 14.2854 8.06081 14.3357 7.86481 14.3259C7.47505 14.3131 7.14583 14.0689 6.99649 13.6769C6.93863 13.5228 6.9096 13.3595 6.91083 13.1949C6.91236 12.3122 6.91179 11.4295 6.90912 10.5468C6.90912 10.3513 6.90113 10.154 6.84231 9.96464C6.70868 9.53034 6.41914 9.25366 5.97228 9.18056C5.51742 9.10575 5.18021 9.32048 4.92751 9.68625C4.80673 9.86128 4.76675 10.0574 4.76675 10.2667C4.76675 11.1043 4.76732 11.9419 4.76847 12.7794C4.76847 13.0259 4.77332 13.2726 4.71764 13.5158C4.62541 13.9199 4.23737 14.3605 3.6506 14.3173C3.24657 14.2871 2.85852 13.953 2.74574 13.5253C2.70766 13.374 2.68904 13.2184 2.69034 13.0624C2.6952 12.5484 2.6952 12.0399 2.69348 11.5308L2.69434 11.5311Z" fill="white"/>
</g>
<defs>
<clipPath id="clip0_11007_13989">
<rect width="20" height="20" fill="white"/>
</clipPath>
</defs>
</svg>
