<svg width="200" height="200" fill="none" xmlns="http://www.w3.org/2000/svg"><g clip-path="url(#a)"><path fill-rule="evenodd" clip-rule="evenodd" d="m66.424 100.024 59.24 59.248 37.392-37.392c6.688-6.016 16.912-5.752 23.272.608 6.36 6.36 6.632 16.592.608 23.272l-49.344 49.352c-6.632 6.52-17.256 6.52-23.888 0L42.52 123.904v42.32c0 9.344-7.568 16.912-16.912 16.912s-16.912-7.568-16.912-16.912V33.76c0-9.336 7.568-16.912 16.912-16.912S42.52 24.424 42.52 33.76v42.32l71.176-71.192c6.624-6.52 17.264-6.52 23.888 0l49.376 49.344c6.016 6.688 5.752 16.912-.608 23.272-6.36 6.36-16.592 6.632-23.272.608L125.688 40.72l-59.264 59.304Zm59.264-16.936a16.936 16.936 0 1 0 6.472 32.584 16.936 16.936 0 0 0 10.456-15.648 16.95 16.95 0 0 0-4.952-11.976 16.91 16.91 0 0 0-11.968-4.96h-.008Z" fill="#23AF91"/></g><defs><clipPath id="a"><path fill="#fff" d="M0 0h200v200H0z"/></clipPath></defs></svg>