<svg viewBox="0 0 18 18" fill="none" xmlns="http://www.w3.org/2000/svg"><path d="M9 18a8.962 8.962 0 0 1-6.364-2.636 9.073 9.073 0 0 1-1.929-2.86A8.955 8.955 0 0 1 0 9a8.954 8.954 0 0 1 2.636-6.364A9.062 9.062 0 0 1 5.496.707 8.957 8.957 0 0 1 9 0a8.956 8.956 0 0 1 6.364 2.636 9.063 9.063 0 0 1 1.929 2.86A8.955 8.955 0 0 1 18 9a8.962 8.962 0 0 1-2.636 6.364 9.06 9.06 0 0 1-2.86 1.929A8.948 8.948 0 0 1 9 18Zm.414-6.482h3.022l.616 1.73h1.82L11.822 4.8h-1.83l-2.376 6.717H5.78L8.244 4.8H6.399l-3.035 8.447h5.461l.589-1.73Zm2.454-1.688H10.04l.878-2.53.95 2.53Z" fill="#5A44E2"/></svg>