<svg width="200" height="200" fill="none" xmlns="http://www.w3.org/2000/svg"><path fill-rule="evenodd" clip-rule="evenodd" d="M23.306 193.451C22 190.883 22 187.522 22 180.799V19.201c0-6.721 0-10.082 1.305-12.649a11.987 11.987 0 0 1 5.234-5.244C31.101 0 34.455 0 41.162 0h62.675c16.706 0 25.06 0 31.913 1.84 18.598 4.993 33.124 19.55 38.108 38.185 1.836 6.867 1.836 15.237 1.836 31.976 0 10.899-4.925 14.889-9.126 18.291-3.122 2.529-5.844 4.733-5.844 9.21 0 4.412 3.171 6.618 6.848 9.175 5.076 3.529 11.116 7.729 11.116 19.327 0 16.71 0 25.065-1.83 31.921-4.978 18.648-19.511 33.216-38.121 38.21-6.842 1.836-15.18 1.839-31.856 1.844L41.168 200c-6.71.002-10.064.003-12.626-1.305a11.989 11.989 0 0 1-5.236-5.244Zm88.027-127.87c3.761-5.914 7.017-11.034 7.017-17.58 0-13.255-10.746-24-24.001-24S70.348 35.25 70.348 48c0 6.547 3.344 11.666 7.208 17.58 5.285 8.09 11.542 17.669 11.542 34.422 0 16.753-6.257 26.331-11.542 34.421-3.864 5.915-7.208 11.034-7.208 17.58 0 13.255 10.746 24.001 24 24.001 13.256 0 24.002-10.746 24.002-24.001 0-6.546-3.256-11.665-7.017-17.58-5.144-8.09-11.234-17.668-11.234-34.421s6.09-26.331 11.234-34.421Z" fill="#FFDA16"/></svg>