<svg viewBox="0 0 20 21" fill="none" xmlns="http://www.w3.org/2000/svg"><path d="M12.296 3.043c-.01.102-.68 5.164-.694 5.234-.012.07.019.189.19.189h2.902c.212 0 .164.185.063.315-.1.13-5.058 8.173-5.11 8.26-.052.088-.287.102-.253-.126.035-.227.684-5.149.694-5.233.011-.085.013-.252-.189-.252H6.997c-.101 0-.195-.094-.063-.316.131-.222 5.012-8.05 5.11-8.197.098-.146.264.025.252.126Z" fill="#C3F166"/><path d="M7.084 17.559a7.574 7.574 0 0 1-6.852-5.692A7.563 7.563 0 0 1 3.544 3.6a7.574 7.574 0 0 1 6.105-.87 75.84 75.84 0 0 0-.976 1.546 5.84 5.84 0 0 0-6.15 2.829 5.83 5.83 0 0 0 4.892 8.732c-.044.162-.28 1.47-.33 1.722Z" fill="url(#keep_letsexchange_icon)"/><path d="M13.736 4.955a5.05 5.05 0 0 1 5.848 2.918 5.043 5.043 0 0 1-4.159 7.001 5.05 5.05 0 0 1-2.325-.324c.265-.45.657-.963.777-1.216a3.632 3.632 0 0 0 4.547-4.553 3.627 3.627 0 0 0-3.261-2.534 3.632 3.632 0 0 0-1.71.322 30.8 30.8 0 0 1 .283-1.614Z" fill="url(#keep_letsexchange_icon_2)"/><defs><linearGradient id="keep_letsexchange_icon" x1="6.844" y1="2.047" x2="6.819" y2="17.559" gradientUnits="userSpaceOnUse"><stop stop-color="#667180"/><stop offset="1" stop-color="#fff" stop-opacity="0"/></linearGradient><linearGradient id="keep_letsexchange_icon_2" x1="14.245" y1="14.882" x2="14.363" y2="4.803" gradientUnits="userSpaceOnUse"><stop stop-color="#667180"/><stop offset="1" stop-color="#fff" stop-opacity="0"/></linearGradient></defs></svg>