<svg viewBox="0 0 20 21" fill="none" xmlns="http://www.w3.org/2000/svg"><g clip-path="url(#a)"><path d="M3.465 18.098c-.769-1.332-.518-2.79-.492-2.885a.178.178 0 0 1 .15-.146 124.33 124.33 0 0 1 1.11-.112c.071-.006.095.092.076.132-.38.81-.235 1.727.092 2.294.729 1.262 2.248 1.696 3.542.95.48-.278.719-.529.76-.616.041-.087.112-.121.132-.076.02.045.39.823.446.975a.232.232 0 0 1-.075.278c-.045.04-.136.138-.723.476a3.983 3.983 0 0 1-1.965.522c-1.135 0-2.31-.505-3.053-1.792Zm6.762.738a.18.18 0 0 1-.051-.204c.025-.06.425-.952.456-1.016.031-.065.128-.036.152 0 .511.734 1.375 1.067 2.03 1.067 1.454 0 2.587-1.098 2.587-2.592 0-.556-.098-.887-.152-.966-.055-.08-.05-.158 0-.153.049.005.906.073 1.065.102a.233.233 0 0 1 .203.203c.01.06.05.187.05.865 0 1.692-1.191 3.71-3.601 3.71-1.535 0-2.67-.946-2.74-1.017Zm-1.685-3.273c.877.425 1.663.357 2.459-.01-.028.804-1.228 3.056-1.228 3.056s-1.32-2.706-1.23-3.046Zm2.446 1.646a.174.174 0 0 1-.054-.127.178.178 0 0 1 .054-.127c.06-.07.507-.839.507-1.881s-.761-2.592-.761-2.592 1.28 2.4 3.652 2.44c.198.003.206.018.254.101.048.084.254.69.254 1.017 0 .326-.051.457-.051.457s-.528-.762-1.471-.762c-.89 0-1.37.767-1.37 1.626.003.241.037.48.102.712-.654-.174-1.033-.773-1.116-.864Zm-3.754-.817c-.445-.772-1.35-.805-2.095-.376a2.79 2.79 0 0 0-.565.444c-.178-.654.152-1.283.19-1.4a.177.177 0 0 1 .22-.127c.09.018.98.02 1.882-.5.903-.522 1.864-1.957 1.864-1.957s-1.438 2.312-.283 4.39c.096.172.087.187.039.27-.048.084-.47.566-.753.729-.283.163-.422.184-.422.184s.396-.839-.077-1.657Zm-2.25-4.285c.07.972.523 1.618 1.239 2.123-.71.378-3.262.465-3.262.465s1.684-2.496 2.023-2.588Zm8.33 2.103c.807-.547 1.141-1.262 1.22-2.135.683.427 2.034 2.592 2.034 2.592s-3.004-.21-3.253-.457Zm-10.895.16c-.057-.02-.188-.049-.774-.387-1.466-.847-2.616-2.89-1.41-4.98.77-1.333 2.158-1.846 2.254-1.87a.18.18 0 0 1 .201.058c.04.053.612.845.652.904.04.06-.033.129-.076.133-.892.075-1.614.659-1.941 1.227-.729 1.261-.345 2.794.948 3.54.481.279.817.36.913.352.096-.008.161.036.132.076-.029.04-.517.75-.622.873a.232.232 0 0 1-.277.075Zm14.356-.06c-.04-.053-.612-.844-.652-.903-.04-.06.033-.129.076-.132.892-.075 1.612-.657 1.94-1.224.726-1.26.342-2.79-.952-3.537-.481-.277-.817-.358-.913-.35-.095.007-.16-.037-.132-.077.03-.04.516-.748.621-.872a.233.233 0 0 1 .277-.074c.057.02.188.05.774.388 1.466.847 2.618 2.888 1.413 4.975-.768 1.33-2.155 1.84-2.25 1.864a.259.259 0 0 1-.065.009.164.164 0 0 1-.137-.067ZM8.8 13.771c.245-.678.954-2.311.954-2.311s.643 1.42 1.051 2.328a3.088 3.088 0 0 1-1.12.233c-.539 0-.84-.19-.885-.25Zm-2.135-2.338c.71-.127 2.48-.33 2.48-.33l-1.491 2.075c-1.043-.834-1.033-1.638-.989-1.745Zm3.703-.324 2.541.254c-.201 1.32-.902 1.713-1.017 1.729-.465-.552-1.524-1.983-1.524-1.983Zm5.361 1.66c-.03-.087-.472-.859-1.375-1.38-.902-.521-2.625-.637-2.625-.637s2.72.091 3.939-1.943c.102-.17.119-.17.215-.17s.725.126 1.007.29c.283.163.371.272.371.272s-.924.076-1.396.893c-.445.77-.02 1.57.724 2 .21.117.434.207.667.267-.477.48-1.186.508-1.306.535a.238.238 0 0 1-.051.006.175.175 0 0 1-.17-.133Zm-12.149.1c-.096 0-.725-.125-1.007-.288-.283-.163-.371-.273-.371-.273s.925-.077 1.397-.895c.446-.772.022-1.573-.722-2.002a2.787 2.787 0 0 0-.667-.268c.477-.48 1.187-.51 1.307-.536a.176.176 0 0 1 .22.127c.03.087.472.86 1.375 1.38.902.522 2.626.636 2.626.636s-2.72-.089-3.943 1.95c-.1.167-.118.17-.21.17H3.58Zm8.282-4.54c1.042.834 1.032 1.638.988 1.745-.71.127-2.48.33-2.48.33s.91-1.268 1.492-2.075Zm-5.256 1.814c.201-1.32.902-1.713 1.017-1.728.465.551 1.525 1.983 1.525 1.983l-2.542-.255ZM8.709 7.72c1.243-.486 1.934-.075 2.005.016-.245.679-.954 2.312-.954 2.312L8.709 7.72Zm-5.764-.88s3.004.21 3.253.458c-.806.547-1.14 1.262-1.22 2.135-.682-.427-2.033-2.593-2.033-2.593Zm10.345.437c.711-.378 3.262-.464 3.262-.464S14.868 9.308 14.529 9.4c-.07-.972-.523-1.619-1.239-2.124Zm-8.21-.69c-.198-.004-.206-.02-.254-.102-.048-.084-.254-.69-.254-1.017 0-.326.05-.458.05-.458s.53.763 1.475.763c.89 0 1.372-.768 1.372-1.627a2.788 2.788 0 0 0-.102-.711c.656.173 1.036.773 1.119.864a.176.176 0 0 1 0 .254c-.06.07-.509.839-.509 1.88 0 1.043.763 2.593.763 2.593s-1.284-2.4-3.66-2.44Zm5.933-1.948c-.096-.173-.087-.188-.039-.27.049-.084.471-.566.754-.729.283-.163.422-.185.422-.185s-.397.839.075 1.656c.445.77 1.35.802 2.093.373.207-.123.397-.272.566-.444.177.653-.153 1.281-.19 1.399a.176.176 0 0 1-.22.127c-.09-.018-.98-.02-1.883.5-.902.522-1.864 1.956-1.864 1.956s1.438-2.31.286-4.383Zm4.134 1.772c.381-.81.237-1.725-.09-2.291-.727-1.26-2.245-1.692-3.539-.945-.48.278-.719.529-.76.615-.042.087-.112.121-.132.076-.02-.045-.39-.82-.445-.973a.233.233 0 0 1 .075-.278c.046-.039.136-.137.723-.476 1.466-.846 3.81-.823 5.014 1.264.768 1.33.516 2.787.49 2.881a.18.18 0 0 1-.151.146c-.066.008-1.038.107-1.109.113h-.005c-.067 0-.089-.094-.07-.132Zm-10.931.124c-.05-.005-.908-.073-1.068-.101a.233.233 0 0 1-.203-.204c-.01-.059-.05-.187-.05-.864 0-1.693 1.194-3.71 3.608-3.71 1.538 0 2.676.946 2.745 1.016a.179.179 0 0 1 .051.204c-.026.06-.426.952-.457 1.016-.032.064-.128.036-.153 0-.512-.734-1.377-1.067-2.033-1.067-1.457 0-2.593 1.098-2.593 2.592 0 .555.099.887.153.966.053.077.05.153.004.153h-.004ZM9.74 2.898s1.32 2.706 1.23 3.046c-.876-.425-1.662-.357-2.458.01C8.54 5.15 9.74 2.899 9.74 2.899Z" fill="#60CD80"/></g><defs><clipPath id="a"><path fill="#fff" transform="translate(0 .508)" d="M0 0h20v20H0z"/></clipPath></defs></svg>