<svg width="20" height="20" viewBox="0 0 20 20" fill="none" xmlns="http://www.w3.org/2000/svg">
<g clip-path="url(#clip0_119_405)">
<rect width="20" height="20" rx="3.94737" fill="#7352A2"/>
<path d="M3.07772 12.7817C2.93518 13.6803 3.09715 14.6007 3.53788 15.3967L5.2058 14.4731C4.97108 14.0492 4.88482 13.559 4.96073 13.0804C5.03665 12.6019 5.27038 12.1624 5.62477 11.832C5.97916 11.5015 6.43385 11.299 6.91655 11.2567L6.75003 9.35742C5.8437 9.43689 4.98995 9.81708 4.32454 10.4376C3.65913 11.058 3.22026 11.8832 3.07772 12.7817Z" fill="#856CA8"/>
<path d="M9.88806 16.404C10.5535 15.7835 10.9923 14.9584 11.1349 14.0598L9.25186 13.7611C9.17595 14.2397 8.94221 14.6792 8.58783 15.0096C8.23344 15.3401 7.77874 15.5425 7.29604 15.5849C6.81334 15.6272 6.33034 15.5069 5.92386 15.2432L4.88612 16.8426C5.64935 17.3378 6.55623 17.5636 7.46256 17.4841C8.3689 17.4047 9.22265 17.0245 9.88806 16.404Z" fill="#856CA8"/>
<path d="M6.10311 9.75439C5.96057 10.653 6.12254 11.5734 6.56327 12.3693L8.23119 11.4458C7.99647 11.0219 7.91021 10.5317 7.98612 10.0531C8.06204 9.57452 8.29577 9.13507 8.65016 8.80461C9.00455 8.47416 9.45924 8.27167 9.94195 8.22935L9.77542 6.33008C8.86909 6.40954 8.01534 6.78974 7.34993 7.41021C6.68452 8.03068 6.24565 8.85581 6.10311 9.75439Z" fill="#BDAFD3"/>
<path d="M12.9134 13.3767C13.5789 12.7562 14.0177 11.9311 14.1603 11.0325L12.2773 10.7338C12.2013 11.2124 11.9676 11.6518 11.6132 11.9823C11.2588 12.3127 10.8041 12.5152 10.3214 12.5575C9.83873 12.5999 9.35573 12.4796 8.94925 12.2158L7.91151 13.8152C8.67474 14.3104 9.58162 14.5363 10.488 14.4568C11.3943 14.3773 12.248 13.9971 12.9134 13.3767Z" fill="#BDAFD3"/>
<path d="M9.45975 9.47477C9.01903 8.67884 8.85706 7.7584 8.9996 6.85982C9.14214 5.96125 9.581 5.13612 10.2464 4.51565C10.9118 3.89518 11.7656 3.51498 12.6719 3.43552C13.5782 3.35605 14.4851 3.58188 15.2484 4.07709L14.2106 5.67648C13.8041 5.41273 13.3211 5.29246 12.8384 5.33478C12.3557 5.37711 11.901 5.57959 11.5466 5.91005C11.1923 6.2405 10.9585 6.67995 10.8826 7.15852C10.8067 7.63709 10.893 8.12731 11.1277 8.55121L9.45975 9.47477Z" fill="white"/>
<path d="M16.5966 5.52298C17.0373 6.31891 17.1993 7.23935 17.0567 8.13793C16.9142 9.0365 16.4753 9.86163 15.8099 10.4821C15.1445 11.1026 14.2908 11.4828 13.3844 11.5622C12.4781 11.6417 11.5712 11.4159 10.808 10.9207L11.8457 9.32127C12.2522 9.58501 12.7352 9.70529 13.2179 9.66296C13.7006 9.62064 14.1553 9.41816 14.5097 9.0877C14.8641 8.75724 15.0978 8.31779 15.1737 7.83922C15.2497 7.36065 15.1634 6.87044 14.9287 6.44654L16.5966 5.52298Z" fill="white"/>
</g>
<defs>
<clipPath id="clip0_119_405">
<rect width="20" height="20" fill="white"/>
</clipPath>
</defs>
</svg>
