<svg viewBox="0 0 20 20" fill="none" xmlns="http://www.w3.org/2000/svg"><path fill-rule="evenodd" clip-rule="evenodd" d="M.92 11.095a2.357 2.357 0 0 0 1.785-.683l5.06-5.034a1.77 1.77 0 0 1 1.922-.38 1.754 1.754 0 0 1 1.089 1.621v4.761l4.19-4.17a4.72 4.72 0 0 1 3.63-1.362l.024.001C16.699 1.394 11.755-.953 7.067.365 2.378 1.683-.602 6.256.103 11.054l.818.041Z" fill="#007DFF"/><path fill-rule="evenodd" clip-rule="evenodd" d="M18.446 8.184a2.355 2.355 0 0 0-1.815.681l-5.196 5.171c-.33.33-.777.515-1.245.515a1.761 1.761 0 0 1-1.765-1.757V8.032L4.37 12.07A4.724 4.724 0 0 1 .8 13.434l-.025-.001c1.911 4.47 6.861 6.831 11.56 5.514 4.698-1.317 7.682-5.903 6.967-10.708l-.856-.055Z" fill="#77B9FE"/></svg>