<svg width="201" height="201" fill="none" xmlns="http://www.w3.org/2000/svg"><path d="M21.085 124.389C6.045 73.329 39.52 24.331 89.245 17.417c12.129-1.698 24.5-.606 36.143 3.032l.728.243a78.648 78.648 0 0 1 32.261 19.77c-.242.848-.485 1.697-.97 2.546a164.46 164.46 0 0 1-13.462 20.376c-2.669 3.517-4.852 7.277-8.369 10.066-.485-.606-1.091-1.213-1.577-1.94-15.524-18.557-43.176-20.982-61.733-5.337C60.26 76.361 54.56 92.128 57.348 107.652c2.062 11.158 7.884 20.133 16.737 27.289a6.385 6.385 0 0 1-1.455 1.698c-10.066 7.762-20.254 15.403-31.534 21.346-9.217-9.582-16.009-20.982-20.011-33.596Z" fill="#1D3245"/><path d="M135.576 73.45c3.517-2.668 5.7-6.55 8.369-10.067 4.972-6.428 9.581-13.34 13.462-20.375a6.53 6.53 0 0 0 .97-2.547c2.911 1.94 4.852 4.851 6.913 7.398 6.429 8.126 11.401 17.344 14.554 27.289 2.79 9.824 3.882 20.133 3.275 30.321-.849 15.524-6.307 30.442-15.524 43.055-20.376 28.259-56.154 40.752-89.75 31.413-.849-.243-1.576-.364-2.425-.607-2.669-1.091-5.458-2.061-8.126-3.153-9.946-4.245-18.92-10.43-26.319-18.314 11.28-5.943 21.467-13.584 31.534-21.346.485-.485.97-1.091 1.455-1.698l.97.122c9.946 7.762 21.346 9.945 33.475 7.762 31.655-5.701 46.33-42.934 27.167-68.768v-.485Z" fill="#207968"/><path d="M41.097 157.742c7.398 7.883 16.373 14.069 26.318 18.314 2.668 1.213 5.458 2.183 8.126 3.153-12.613 8.611-25.59 16.373-40.75 19.284-11.765 2.305-22.196 0-29.594-10.309-5.094-7.034-5.7-15.16-3.881-23.408 3.153-15.16 10.673-28.137 19.648-40.508a82.943 82.943 0 0 0 20.133 33.474ZM180.088 75.148c-3.154-9.945-8.126-19.162-14.554-27.288-2.184-2.547-4.124-5.458-6.914-7.399-9.096-9.096-20.133-15.767-32.261-19.769l-.728-.242c9.582-6.186 19.284-12.129 29.957-16.131 7.884-2.911 15.888-4.73 24.378-3.154 10.673 2.062 19.163 11.644 20.255 22.56.727 7.883-1.092 15.16-3.881 22.436a138.777 138.777 0 0 1-16.252 28.987ZM75.056 134.941c4.972-4.366 9.945-8.733 14.918-13.22 11.764-10.43 22.801-21.588 33.353-33.232 4.245-4.73 8.49-9.46 12.371-14.554 19.041 25.955 4.366 63.068-27.168 68.768-12.25 2.183-23.65-.121-33.474-7.762Z" fill="#8BC9A3"/></svg>