<svg width="201" height="200" fill="none" xmlns="http://www.w3.org/2000/svg"><path d="M49.976 62.47a7.26 7.26 0 0 0 8.851-1.357C69.25 49.904 84.17 42.836 100.661 42.836c16.561 0 31.41 6.997 41.832 18.277a7.262 7.262 0 0 0 8.853 1.356l25.199-14.564c3.784-2.213 4.783-7.21 1.999-10.638C160.197 14.493 132.142 0 100.661 0 69.178 0 41.123 14.564 22.776 37.267c-2.712 3.427-1.713 8.425 2 10.638l25.2 14.564Z" fill="#0068FF"/><path d="M155.205 83.103c1.784 5.783 2.641 11.994 2.498 18.419-.785 29.842-25.057 54.402-54.897 55.544-32.553 1.214-59.323-24.774-59.323-57.044 0-5.854.857-11.494 2.498-16.848 1-3.213-.356-6.64-3.212-8.282l-25.2-14.564c-3.783-2.142-8.638-.5-10.208 3.498C2.65 75.892.294 89.028.651 102.878c1.499 52.903 44.688 95.882 97.586 97.095 56.254 1.285 102.299-43.978 102.299-99.951a99.779 99.779 0 0 0-6.782-36.196c-1.571-4.07-6.425-5.711-10.209-3.498l-25.2 14.564c-2.784 1.571-4.14 5.07-3.14 8.21Z" fill="#0068FF"/></svg>