<svg width="200" height="200" fill="none" xmlns="http://www.w3.org/2000/svg"><path fill-rule="evenodd" clip-rule="evenodd" d="M164.718 92.962c-1.436-13.475-6.979-25.722-15.354-35.465l24.768-24.767c14.663 16.149 24.122 37.109 25.728 60.232h-35.142Zm-14.293 48.158c8.247-10.099 13.524-22.718 14.499-36.525H200c-1.061 23.473-10.205 44.841-24.716 61.384l-24.859-24.859Zm-45.832 23.804c14.349-1.013 27.415-6.672 37.702-15.482l24.826 24.825c-16.698 15.1-38.511 24.648-62.528 25.733v-35.076Zm-47.096-15.56c9.743 8.375 21.99 13.918 35.463 15.353v35.143c-23.122-1.607-44.082-11.065-60.23-25.728l24.768-24.768ZM34.96 104.595c.972 13.765 6.22 26.349 14.424 36.432l-24.8 24.8C10.149 149.305 1.057 127.996 0 104.595h34.96Zm15.482-47.007c-8.331 9.728-13.845 21.941-15.276 35.374H.14C1.741 69.91 11.147 49.008 25.732 32.879l24.709 24.709Zm54.152-22.629c13.766.971 26.351 6.22 36.434 14.424l24.8-24.8C149.304 10.149 127.995 1.057 104.593 0v34.96ZM92.96.14v35.026C80.063 36.54 68.29 41.677 58.763 49.458L34.021 24.716C49.988 10.71 70.449 1.704 92.96.14Z" fill="#FF8200"/></svg>