<svg width="201" height="200" fill="none" xmlns="http://www.w3.org/2000/svg"><path d="M49.881 93.895c7.675-14.275 22.717-23.177 38.834-23.177H200.15c0 30.852-25.019 55.717-55.718 55.717H32.23l17.651-32.54Z" fill="url(#a)"/><path d="M49.881 47.54c7.675 14.275 22.717 23.178 38.834 23.178H200.15C200.15 39.866 175.131 15 144.432 15H32.23L49.88 47.54Z" fill="url(#b)"/><path d="M45.89 101.109c10.131-18.726 29.778-30.391 50.96-30.391h40.829l-48.964 90.407c-8.289 15.195-24.098 24.558-41.29 24.558H.15l45.74-84.574Z" fill="url(#c)"/><path d="M91.631 156.059c-18.419-26.094-48.503-29.317-59.555-29.47h75.518l-15.963 29.47Z" fill="url(#d)" opacity=".6"/><path d="M88.715 70.718c-16.27 0-31.159 8.902-38.834 23.177l-17.498 32.54h75.211l30.238-55.717H88.715Z" fill="url(#e)"/><defs><linearGradient id="a" x1="42.867" y1="98.638" x2="271.017" y2="98.638" gradientUnits="userSpaceOnUse"><stop stop-color="#FF7028"/><stop offset="1" stop-color="#FFCD4D"/></linearGradient><linearGradient id="b" x1="228.254" y1="42.882" x2="-61.032" y2="42.882" gradientUnits="userSpaceOnUse"><stop stop-color="#FF7028"/><stop offset="1" stop-color="#FFCD4D"/></linearGradient><linearGradient id="c" x1="147.042" y1="128.193" x2="-30.564" y2="128.193" gradientUnits="userSpaceOnUse"><stop stop-color="#FF7028"/><stop offset="1" stop-color="#FFCD4D"/></linearGradient><linearGradient id="d" x1="38.922" y1="141.339" x2="89.037" y2="141.339" gradientUnits="userSpaceOnUse"><stop stop-color="#C44100"/><stop offset="1" stop-color="#C84300" stop-opacity="0"/></linearGradient><linearGradient id="e" x1="297.969" y1="38.726" x2="26.288" y2="118.91" gradientUnits="userSpaceOnUse"><stop stop-color="#FF7028"/><stop offset="1" stop-color="#FFCD4D"/></linearGradient></defs></svg>