<svg viewBox="0 0 18 20" fill="none" xmlns="http://www.w3.org/2000/svg"><path d="M8.678 20 0 15.003V4.997L8.678 0l8.677 4.997v10.006L8.678 20ZM8.65 3.136a.735.735 0 0 0-.412.107L3.47 6.14a1.072 1.072 0 0 0-.426.81v5.236c0 .16 0 .439.253.598.305.173.624.319.957.452l.08.04c.119.053.238.093.371.106a.262.262 0 0 0 .186-.08.536.536 0 0 0 .08-.292V7.628l3.27 1.914a.901.901 0 0 0 .823 0l4.77-2.897c.134-.054.213-.213.16-.346a.31.31 0 0 0-.16-.16l-4.77-2.896a.863.863 0 0 0-.412-.107Zm-.12 4.492a.72.72 0 0 1-.332-.08l-1.674-.957a.21.21 0 0 1-.133-.252.22.22 0 0 1 .133-.133l1.674-.957a.732.732 0 0 1 .665 0l1.674.957a.21.21 0 0 1 .133.252.22.22 0 0 1-.133.133l-1.674.957a.682.682 0 0 1-.332.08Z" fill="#3F32C0"/></svg>