<svg viewBox="0 0 17 18" fill="none" xmlns="http://www.w3.org/2000/svg"><path d="m4.095 13.48-.041.094a3.16 3.16 0 0 0 0 2.45c.164.39.403.742.704 1.038a3.29 3.29 0 0 0 4.594 0l5.977-5.89A3.248 3.248 0 0 0 16.3 8.86c0-.78-.244-1.53-.779-2.12a1.463 1.463 0 0 0-.838-.094c-.253.046-.484.194-.677.367l-5.679 5.743a1.418 1.418 0 0 1-.358.265c.07-.043.138-.087.206-.133l-.017.007a4.8 4.8 0 0 1-4.064.586Z" fill="#2349D6"/><path d="m8.16 12.894.034-.023a1.43 1.43 0 0 1-1.34-.15 1.405 1.405 0 0 1-.196-2.158l1.89-1.878 2.761-2.72.011-.01a.508.508 0 0 1 .025-.02l.415-.409c.211-.04.427-.06.642-.06.486 0 .899.048 1.31.165a3.2 3.2 0 0 1 1.817 1.11 1.464 1.464 0 0 0-.844-.097c-.253.047-.485.195-.677.368l-5.679 5.743a1.416 1.416 0 0 1-.359.264c.07-.042.14-.086.207-.132l-.017.007Z" fill="#1437BF"/><path d="M12.74 1.969a2.96 2.96 0 0 0-.653-.962 3.487 3.487 0 0 0-1.13-.745 3.53 3.53 0 0 0-3.8.745l-4.92 4.848A4.602 4.602 0 0 0 .856 9.06a4.598 4.598 0 0 0 1.275 3.246l.052.05.053.054c.048.047.1.09.152.132a4.8 4.8 0 0 0 5.803.329 1.43 1.43 0 0 1-1.339-.15 1.405 1.405 0 0 1-.196-2.158l1.89-1.877 2.76-2.72.036-.03.743-.733c.42-.413.708-.942.825-1.52a2.925 2.925 0 0 0-.171-1.713v-.001Z" fill="#3573F3"/></svg>