<svg viewBox="0 0 20 12" fill="none" xmlns="http://www.w3.org/2000/svg">
  <path
    d="M16.3343 11.0333H0V0.966797H16.2393L16.2678 1.00477C16.8376 1.73602 19.6866 5.39226 19.8481 5.62018C20.0475 5.90508 20.0475 6.28495 19.8481 6.56985C19.6296 6.85475 16.3628 10.9953 16.3343 11.0333ZM8.16714 2.77117L10.4463 6.00004L7.97721 9.32389H10.6363L11.6809 7.51952L12.7255 9.32389H15.3846L12.9155 5.90508L15.2896 2.77117H12.7255L11.7759 4.29064L10.6363 2.77117H8.16714ZM2.08927 2.6762V9.32389H7.59734V7.51952H4.2735V6.75978H7.12251V5.05037H4.2735V4.38561H7.50237V2.6762H2.08927Z"
    fill="#7E8A9C" />
</svg>