<svg viewBox="0 0 20 21" fill="none" xmlns="http://www.w3.org/2000/svg"><path d="M14.986 10.59a5.057 5.057 0 0 0 5.052-5.061A5.057 5.057 0 0 0 14.986.467a5.057 5.057 0 0 0-5.052 5.062 5.057 5.057 0 0 0 5.052 5.062Z" stroke="#59B4E6" stroke-width=".097" stroke-miterlimit="10"/><path d="M14.986 10.106a4.572 4.572 0 0 0 4.567-4.577A4.572 4.572 0 0 0 14.985.952a4.572 4.572 0 0 0-4.567 4.577 4.572 4.572 0 0 0 4.568 4.577Z" stroke="#59B4E6" stroke-width=".97"/><path d="M11.977 5.766a3.027 3.027 0 0 1 3.015-3.025m3.579 5.605-7.098 11.336m.474-17.572L.04 10.373m14.205-3.646L3.307 17.48" stroke="#59B4E6" stroke-width=".97" stroke-linecap="round"/></svg>