<svg viewBox="0 0 20 20" fill="none" xmlns="http://www.w3.org/2000/svg"><path fill-rule="evenodd" clip-rule="evenodd" d="M13.463.14a.898.898 0 0 1 1.363.748l.09 4.187 4.338.748c.68.118.98.928.537 1.46l-2.887 3.467 2.193 1.762a.898.898 0 0 1-.238 1.536l-3.962 1.539.486 2.448a.898.898 0 0 1-1.17 1.025l-2.826-.961a7.934 7.934 0 0 1-9.413-1.902c3.448.995 6.213-.046 7.525-1.121a.748.748 0 0 0-.949-1.158c-1.089.894-4.064 2.068-7.915.153A7.932 7.932 0 0 1 8.641 3.062L13.463.14ZM7.051 9.22A1.496 1.496 0 1 1 5.5 6.66a1.496 1.496 0 0 1 1.55 2.56Z" fill="#02C076"/></svg>