<svg width="201" height="200" fill="none" xmlns="http://www.w3.org/2000/svg"><path d="M111.768 107.064a29.776 29.776 0 0 0 2.309-.23 19.646 19.646 0 0 0-2.386 9.271c-2.42 2.39-6.281 6.314-6.642 7.391a11.946 11.946 0 0 0 1.576 9.812c2.629 3.68 6.309 2.454 7.535 4.031 1.226 1.578-2.804 3.856-8.061 3.33-5.257-.526-6.483-4.031-7.185-6.309-.701-2.278 1.052-8.761 1.347-9.812.295-1.052-4.151.525-3.448-.876.702-1.402 4.03-3.856 4.906-8.937a19.264 19.264 0 0 1 4.063-8.026c1.975.347 3.984.466 5.986.355Z" fill="#9142E3"/><path d="M7.977 79.388c9.318-6.039 25.933-9.508 46.26-5.829 20.326 3.68 26.109 2.278 37.323 2.278 11.214 0 9.462-2.453 20.502-1.577 11.04.875 11.209-4.206 21.378-7.185 10.24-3.002 18.404-.352 22.078-1.052 3.674-.7 5.259-9.638 10.864-10.516 5.606-.88 22.43-.702 28.387 1.226 5.957 1.927 5.783 7.71 5.258 9.988-.524 2.277-16.559 2.366-16.559 2.366l14.105 5.696s.876 3.329-1.226 4.38c-2.102 1.052-17.536-1.827-26.11-2.979-2.128-.285-5.593 3.897-7.58 6.584a16.602 16.602 0 0 0-6.574-3.956 15.439 15.439 0 0 1 5.315 6.937 8.064 8.064 0 0 1-.097 3.752c-.702 2.979-5.431 5.08-4.557 6.132.875 1.052 8.937.526 9.463 2.98.525 2.453-4.906 6.483-7.009 6.308-2.104-.174-.702-1.642-.176-3.679s-5.607-2.804-7.009-3.855a3.062 3.062 0 0 1-1.226-2.63 23.64 23.64 0 0 1-8.411 7.535 48.94 48.94 0 0 1-12.106 4.158 43.652 43.652 0 0 0-.806-11.78c-.968-4.399-3.016-9.473-6.538-12.454a27.998 27.998 0 0 1 4.958 12.582 51.05 51.05 0 0 1 .277 12.127c-.139.554-1.107 4.428-2.084 8.164-1.052 4.031-5.081 8.237-5.783 12.616-.702 4.38 2.278 10.689 6.833 11.39 4.556.702 10.688 4.907 7.009 5.959-3.679 1.051-11.916.35-15.069-2.629-3.154-2.98-3.68-8.58-4.557-10.339-.877-1.758-2.804-1.226-2.629-1.927.174-.702 2.979-3.33 2.629-5.959-.231-1.736-.538-5.535-.721-7.91.123-4.392 1.313-8.388 4.719-11.392-1.459-1.347-2.839-2.777-4.202-4.221-3.492-3.693-7.057-7.96-8.513-12.923a25.097 25.097 0 0 0 3.983 9.847 39.606 39.606 0 0 0 5.776 7.258c-.525.026-1.301.241-1.636.264-.849.059-1.7.081-2.553.065a25.01 25.01 0 0 1-4.597-.506 24.193 24.193 0 0 1-4.171-1.857c-6.804-3.736-7.008-8.41-12.967-9.462-11.946-2.108-25.583-4.381-35.396-8.58C44.42 80.585 38.457 78.3 24.62 79A62.224 62.224 0 0 0 .265 85.483a38.529 38.529 0 0 1 7.712-6.095Zm35.833-4.013c6.77.667 13.392 2.182 20.113 3.17a122.7 122.7 0 0 0 20.697 1.176c3.44-.077 6.883-.066 10.322-.157 3.343-.245 6.667-.701 9.952-1.366a54.704 54.704 0 0 1 9.963-.01 17.793 17.793 0 0 0 8.986-1.925 83.18 83.18 0 0 1 8.364-4.504 34.847 34.847 0 0 1 9.381-2.214 62.099 62.099 0 0 1 10.516.102c3.02.215 5.796.474 7.985-1.977 2.024-2.264 3.055-5.276 5.28-7.383 2.382-2.254 5.888-2.035 8.956-2.106 6.132-.126 12.265.167 18.356.878 1.054.121 2.098.289 3.144.46-5.073-2.075-10.794-2.373-16.2-2.61a81.714 81.714 0 0 0-9.732.023 9.545 9.545 0 0 0-7.419 4.281c-.875 1.199-1.614 2.491-2.452 3.714a6.388 6.388 0 0 1-3.206 2.906 12.95 12.95 0 0 1-4.309-.044c-1.699-.152-3.397-.314-5.103-.394a37.37 37.37 0 0 0-19.907 4.253c-2.919 1.62-5.559 3.613-8.927 4.177-3.271.546-6.573-.054-9.861-.025-3.459.03-6.663 1.003-10.059 1.46-3.525.335-7.064.49-10.605.467-7.065.359-14.146.206-21.188-.458-6.834-.76-13.577-2.168-20.42-2.834a88.476 88.476 0 0 0-19.61.056 44.807 44.807 0 0 0-15.102 4.298 32.306 32.306 0 0 0-2.691 1.595c10.25-6.03 23.264-6.138 34.776-5.004v-.005Z" fill="#9142E3"/></svg>