<svg viewBox="0 0 16 16" fill="none" xmlns="http://www.w3.org/2000/svg">
  <path fill-rule="evenodd" clip-rule="evenodd"
    d="M16 8C16 9.58224 15.5308 11.1289 14.6518 12.4445C13.7727 13.7601 12.5233 14.7855 11.0615 15.391C9.59974 15.9965 7.99122 16.155 6.43938 15.8463C4.88754 15.5376 3.46208 14.7757 2.34325 13.657C1.22442 12.5382 0.46247 11.1127 0.153756 9.56089C-0.154958 8.00907 0.00342823 6.40054 0.608886 4.93873C1.21434 3.47691 2.23968 2.22747 3.55523 1.34838C4.87079 0.469296 6.41748 5.62784e-05 7.99972 5.06013e-09C9.05032 -3.73602e-05 10.0906 0.206861 11.0613 0.608882C12.0319 1.0109 12.9139 1.60017 13.6568 2.34304C14.3997 3.08592 14.989 3.96784 15.391 4.93847C15.7931 5.90909 16 6.9494 16 8ZM12.7999 4.74844C12.7999 4.9526 12.7394 5.15218 12.626 5.32193C12.5126 5.49169 12.3513 5.624 12.1627 5.70212C11.9741 5.78025 11.7665 5.8007 11.5663 5.76087C11.3661 5.72104 11.1821 5.62272 11.0378 5.47836C10.8934 5.334 10.7951 5.15006 10.7553 4.94983C10.7154 4.74959 10.7359 4.54204 10.814 4.35342C10.8921 4.16479 11.0244 4.00358 11.1942 3.89015C11.3639 3.77673 11.5635 3.71618 11.7677 3.71618C12.0415 3.71618 12.304 3.82494 12.4976 4.01853C12.6912 4.21211 12.7999 4.47467 12.7999 4.74844ZM7.94822 4.74844C8.9745 4.74844 9.80617 4.1939 9.80617 3.50962C9.80617 2.82534 8.97422 2.2708 7.94822 2.2708C6.92222 2.2708 6.08998 2.82534 6.08998 3.50962C6.08998 4.1939 6.92194 4.74844 7.94822 4.74844Z"
    fill="#FBD13E" />
</svg>