<svg viewBox="0 0 20 21" fill="none" xmlns="http://www.w3.org/2000/svg">
  <path
    d="M14.986 10.5909C17.7763 10.5909 20.0383 8.32455 20.0383 5.52885C20.0383 2.73316 17.7763 0.466797 14.986 0.466797C12.1956 0.466797 9.93359 2.73316 9.93359 5.52885C9.93359 8.32455 12.1956 10.5909 14.986 10.5909Z"
    stroke="#59B4E6" stroke-width="0.0969743" stroke-miterlimit="10" />
  <path
    d="M14.9855 10.106C17.508 10.106 19.553 8.05676 19.553 5.52885C19.553 3.00094 17.508 0.95166 14.9855 0.95166C12.4629 0.95166 10.418 3.00094 10.418 5.52885C10.418 8.05676 12.4629 10.106 14.9855 10.106Z"
    stroke="#59B4E6" stroke-width="0.969743" />
  <path d="M11.9766 5.76632C11.9766 4.09836 13.3245 2.75042 14.9925 2.74072" stroke="#59B4E6" stroke-width="0.969743"
    stroke-linecap="round" />
  <path d="M18.5712 8.3457L11.4727 19.682" stroke="#59B4E6" stroke-width="0.969743" stroke-linecap="round" />
  <path d="M11.9475 2.11035L0.0390625 10.3726" stroke="#59B4E6" stroke-width="0.969743" stroke-linecap="round" />
  <path d="M14.2453 6.72656L3.30664 17.481" stroke="#59B4E6" stroke-width="0.969743" stroke-linecap="round" />
</svg>