<svg viewBox="0 0 18 18" fill="none" xmlns="http://www.w3.org/2000/svg"><path d="M10.385 5.538c1.106 0 2.01.865 2.073 1.955l.003.122v1.731h-2.076v-1.73H2.077v8.307h8.308V13.5h2.076v2.423c0 1.106-.864 2.01-1.954 2.074l-.122.003H2.077a2.077 2.077 0 0 1-2.073-1.955L0 15.923V7.615c0-1.106.865-2.01 1.955-2.073l.122-.004h8.308Zm-2.77 6.923a2.077 2.077 0 0 1-2.073-1.954l-.004-.122V8.654h2.077v1.73h8.308V2.078H7.615V4.5H5.538V2.077c0-1.106.865-2.01 1.955-2.073L7.615 0h8.308c1.106 0 2.01.865 2.074 1.955l.003.122v8.308c0 1.106-.865 2.01-1.955 2.073l-.122.003H7.615Z" fill="#622BD7"/></svg>