<svg viewBox="0 0 12 19" fill="none" xmlns="http://www.w3.org/2000/svg"><path d="M1.032 18.612c-.235.213-.232.333-.058.366 1.797.335 6.423-3.14 8.045-6.281.119-.23.147-.262.354-.305.442-.092 1.385-.518 1.62-.67.19-.123.295-.397.178-.52-.384-.487-1.297-.64-1.504-.67-.206-.03-.246-.101-.147-.213.324-.366.442-1.129.354-1.555C8.43 3 4.657.349 4.363.135c-.295-.213-.56-.183-.354.153C5.266 2.33 6.632 6.75 6.632 8.947c0 2.195-2.387 2.408-3.684 2.408-1.297 0-2.682-.213-2.74-.244-.06-.03-.325-.06-.148.061.177.122 1.798.701 1.886.732.088.03.265.091 0 .122-.265.03-1.238.488-1.503.732-.212.195-.069.203.03.183 1.532-.366 4.214-.305 4.685-.244.472.06.413.366.266.549-.148.182-4.156 5.152-4.392 5.366Z" fill="#007DFF"/></svg>