<svg width="20" height="20" viewBox="0 0 20 20" fill="none" xmlns="http://www.w3.org/2000/svg">
<g clip-path="url(#clip0_119_437)">
<rect width="20" height="20" rx="10" fill="#2A64FB"/>
<path fill-rule="evenodd" clip-rule="evenodd" d="M8.77786 5.12769C8.63736 4.86923 8.49326 4.62923 8.45363 4.59231C8.35636 4.50369 8.06816 4.48154 7.94207 4.55538C7.72232 4.68092 7.67188 4.99846 7.82679 5.27538C8.09698 5.75538 8.20506 5.988 8.17984 6.01015C8.17331 6.01551 8.15496 6.02958 8.12891 6.04957C8.08304 6.08475 8.01329 6.13826 7.94207 6.19477C7.70791 6.37569 7.34045 6.76339 7.24319 6.93692C7.18194 7.04031 7.16393 7.04769 7.04865 7.02923C6.84691 6.996 6.30293 7.07723 5.9787 7.19169C5.06366 7.51292 4.35757 8.28462 4.08738 9.252C3.9685 9.67292 3.9721 10.4151 4.09098 10.8323C4.33956 11.7074 4.90155 12.3794 5.69771 12.756C6.05436 12.9258 6.36777 12.9923 6.81809 12.9923H7.18194L8.57612 14.7462C9.34345 15.7098 9.9847 16.5 9.99911 16.5C10.0315 16.5 10.1864 16.3117 11.7679 14.3289L12.8307 12.996L13.0468 12.9923C14.405 12.9812 15.5866 12.0323 15.9325 10.6846C16.0225 10.3375 16.0225 9.67292 15.9325 9.33692C15.5722 7.98923 14.4194 7.05138 13.0937 7.03292L12.7478 7.02923L12.6325 6.85569C12.5137 6.68215 12.103 6.26123 11.876 6.084L11.7535 5.99169L11.9949 5.54492C12.2471 5.07231 12.2867 4.90985 12.1858 4.72892C12.121 4.60338 11.9481 4.5 11.804 4.5C11.5734 4.5 11.4761 4.60338 11.1951 5.12769C11.0402 5.40831 10.9141 5.604 10.8889 5.59662C10.5755 5.47108 9.65687 5.44154 9.25339 5.54123L9.03003 5.59662L8.77786 5.12769ZM6.64514 8.23291C6.33532 8.27721 5.94985 8.4766 5.69047 8.72398C5.40947 8.98983 5.20413 9.38491 5.13928 9.78737C4.92674 11.0391 6.09035 12.1911 7.27558 11.9068C7.74751 11.7923 8.06453 11.5855 8.62652 11.0206C8.86429 10.7806 9.04081 10.6292 9.06242 10.6514C9.07683 10.6698 9.22814 10.8729 9.39386 11.1055L9.69286 11.5264L9.36864 11.844C9.19211 12.0175 8.90391 12.2612 8.73459 12.3794C8.56167 12.5012 8.42838 12.612 8.43919 12.6268C8.45 12.6452 8.78143 13.0698 9.1777 13.572C9.57758 14.0778 9.92342 14.5209 9.95225 14.5578C9.97746 14.5984 10.0063 14.6243 10.0135 14.6132C10.0207 14.6058 10.3809 14.1517 10.8132 13.6052C11.2455 13.0551 11.5842 12.6046 11.5662 12.5972C11.4149 12.5455 10.8961 12.1357 10.5935 11.8292C10.1648 11.3972 9.891 11.0243 9.49112 10.3375C9.15609 9.75783 8.90391 9.40706 8.60851 9.1006C8.09335 8.56152 7.7403 8.34367 7.23955 8.24398C6.94414 8.1886 6.94414 8.1886 6.64514 8.23291ZM9.54876 6.5086C9.22093 6.57137 8.92193 6.73752 8.57608 7.04029L8.30229 7.2766L8.48602 7.37998C8.92553 7.62737 9.27137 7.96706 9.72168 8.58367L9.99187 8.96029L10.2585 8.58737C10.6043 8.10367 11.0402 7.65691 11.3464 7.47598C11.4797 7.39844 11.5986 7.31721 11.6094 7.29875C11.6382 7.25075 11.3608 6.98491 11.087 6.7966C10.6764 6.51598 10.0819 6.40521 9.54876 6.5086ZM10.8385 9.70245C11.4077 8.90491 11.8832 8.49137 12.5064 8.26245C12.7586 8.16644 13.2738 8.17014 13.5728 8.26614C14.8733 8.67598 15.284 10.3855 14.3221 11.3603C13.7565 11.9363 12.9279 12.0803 12.2434 11.7221C11.84 11.508 11.3356 11.0354 10.9429 10.5C10.9172 10.4649 10.8934 10.4325 10.8713 10.4026C10.7181 10.1949 10.6511 10.104 10.6558 10.0172C10.6595 9.94976 10.7066 9.88478 10.7903 9.76925C10.8052 9.74869 10.8213 9.72652 10.8385 9.70245Z" fill="white"/>
</g>
<defs>
<clipPath id="clip0_119_437">
<rect width="20" height="20" fill="white"/>
</clipPath>
</defs>
</svg>
