<svg width="20" height="20" viewBox="0 0 20 20" fill="none" xmlns="http://www.w3.org/2000/svg">
<path d="M1.34143 5.45823C0.804931 7.23868 0.90323 9.1598 1.61841 10.8714C2.10625 12.0389 6.14977 16.6542 8.2375 19L10.9516 16.1852C9.24263 14.3702 5.97364 10.5381 5.74864 10.227C5.52364 9.91584 5.31101 9.37807 5.21651 9.2542C4.87527 8.43754 4.82837 7.5209 5.08435 6.67137C5.34034 5.82184 5.88217 5.09601 6.61106 4.6262C7.33995 4.15639 8.20737 3.97389 9.05517 4.11197C9.90296 4.25004 10.6747 4.69951 11.2296 5.37841C11.7846 6.05732 12.0858 6.92046 12.0784 7.81047C12.071 8.70049 11.7555 9.5581 11.1893 10.227L10 11.6676L12.7187 14.4873L14.1363 12.9101C15.3228 11.5083 15.9842 9.71088 15.9997 7.84558C16.0152 5.98027 15.3839 4.1713 14.2208 2.74843C13.0577 1.32557 11.4404 0.383578 9.66352 0.0941909C7.88669 -0.195196 6.06876 0.187293 4.54113 1.17193C3.01351 2.15656 1.87794 3.67777 1.34143 5.45823Z" fill="#3189C6"/>
</svg>
