<svg viewBox="0 0 20 10" fill="none" xmlns="http://www.w3.org/2000/svg">
  <path
    d="M8.03738 3.27405L11.113 0H7.81687L5.28143 7.81585H3.16484C2.95539 7.81585 2.80106 7.60639 2.8672 7.40797L5.27039 0H2.45932L0.0781804 7.33079C-0.252534 8.34495 0.508108 9.37016 1.56639 9.37016H7.58537L9.71298 2.81105L8.03738 3.27405ZM18.4329 0H11.9729L12.921 3.27405L11.543 2.81105L9.41544 9.37016H12.2265L13.2407 6.25044H16.2832C17.6391 6.25044 18.8408 5.3796 19.2597 4.08981L19.9211 2.03939C20.2518 1.03623 19.5022 0 18.4329 0ZM17.1321 1.97325L16.6029 3.61579C16.3935 4.25516 15.7982 4.69612 15.1147 4.69612H13.7478L14.762 1.5764H16.8344C17.0549 1.56537 17.1982 1.7638 17.1321 1.97325Z"
    fill="#0062DF" />
</svg>