<svg width="20" height="20" viewBox="0 0 20 20" fill="none" xmlns="http://www.w3.org/2000/svg">
<g clip-path="url(#clip0_119_440)">
<path d="M0.607736 15.0714C0.206509 14.1028 0 13.0646 0 12.0161V5.80645H4.20002V12.0161C4.20002 12.513 4.29789 13.0051 4.48805 13.4641C4.67821 13.9232 4.95692 14.3404 5.30829 14.6917C5.65965 15.0431 6.07678 15.3218 6.53585 15.512C6.99493 15.7021 7.48697 15.8 7.98387 15.8C8.48077 15.8 8.97281 15.7021 9.43189 15.5119C9.89096 15.3218 10.3081 15.0431 10.6595 14.6917C11.0108 14.3404 11.2895 13.9232 11.4797 13.4641C11.6698 13.0051 11.7677 12.513 11.7677 12.0161V8.30645H7.66129V4.19355H11.7677V1.6129H10.1613V0H11.7677V1.6129H14.4355V4.19355H11.7677V8.30645H15.9677V5.08065H19.3548V8.30645H15.9677V12.0161C15.9677 13.0646 15.7612 14.1028 15.36 15.0714C14.9588 16.0401 14.3707 16.9202 13.6293 17.6616C12.8879 18.4029 12.0078 18.991 11.0392 19.3923C10.0705 19.7935 9.03233 20 7.98387 20C6.93541 20 5.89722 19.7935 4.92858 19.3923C3.95993 18.991 3.07979 18.403 2.33842 17.6616C1.59705 16.9202 1.00896 16.0401 0.607736 15.0714Z" fill="url(#paint0_linear_119_440)"/>
</g>
<defs>
<linearGradient id="paint0_linear_119_440" x1="18.629" y1="7.25806" x2="3.06452" y2="7.41936" gradientUnits="userSpaceOnUse">
<stop stop-color="#9CFCCE"/>
<stop offset="1" stop-color="#1FA3FF"/>
</linearGradient>
<clipPath id="clip0_119_440">
<rect width="20" height="20" fill="white"/>
</clipPath>
</defs>
</svg>
