<svg width="20" height="20" viewBox="0 0 20 20" fill="none" xmlns="http://www.w3.org/2000/svg">
<path d="M0.487808 7.25977C0.203256 7.78583 0 8.39282 0 8.99982H4.26827L6.01624 7.25977H0.487808Z" fill="#191A34"/>
<path d="M7.80495 5.52148H3.49603C2.19523 5.52148 1.05702 6.24988 0.447266 7.26154H6.01635L7.80495 5.52148Z" fill="#191A34"/>
<path d="M20.0005 2H15.6916C13.7403 2 12.155 3.57818 12.155 5.52056H7.84603L11.3826 2H7.07368C5.12247 2 3.53711 3.57818 3.53711 5.52056V11.631V11.6714C3.53711 15.192 6.42328 18.0246 9.9192 18.0246H16.4233V5.4801L20.0005 2ZM11.8704 11.1453C11.3013 10.5788 11.3013 9.60765 11.8704 9.04113L13.9842 11.1453C13.4151 11.7524 12.4801 11.7524 11.8704 11.1453Z" fill="#191A34"/>
</svg>
