<svg viewBox="0 0 20 19" fill="none" xmlns="http://www.w3.org/2000/svg"><path d="M6.756 7.417c0-.585.474-1.06 1.06-1.06h3.973a1.06 1.06 0 0 1 0 2.12H7.815a1.06 1.06 0 0 1-1.06-1.06ZM1.59 4.238c0-.585.474-1.06 1.06-1.06h14.304a1.06 1.06 0 0 1 0 2.12H2.65a1.06 1.06 0 0 1-1.06-1.06ZM0 1.06C0 .474.474 0 1.06 0h17.88a1.06 1.06 0 0 1 0 2.12H1.06A1.06 1.06 0 0 1 0 1.06Zm6.49 9.271c0-.585.475-1.06 1.06-1.06h3.973a1.06 1.06 0 1 1 0 2.12H7.55a1.06 1.06 0 0 1-1.06-1.06Zm-.53 3.179c0-.585.475-1.06 1.06-1.06h3.974a1.06 1.06 0 0 1 0 2.12H7.021a1.06 1.06 0 0 1-1.06-1.06Zm-.794 3.444c0-.585.474-1.06 1.06-1.06h3.973a1.06 1.06 0 0 1 0 2.12H6.226a1.06 1.06 0 0 1-1.06-1.06Z" fill="#1CE0BD"/></svg>