<svg viewBox="0 0 20 19" fill="none" xmlns="http://www.w3.org/2000/svg">
  <path
    d="M6.75586 7.41702C6.75586 6.83182 7.23026 6.35742 7.81546 6.35742H11.789C12.3742 6.35742 12.8486 6.83182 12.8486 7.41702C12.8486 8.00223 12.3742 8.47663 11.789 8.47663H7.81546C7.23026 8.47663 6.75586 8.00223 6.75586 7.41702Z"
    fill="#1CE0BD" />
  <path
    d="M1.58984 4.23831C1.58984 3.65311 2.06424 3.17871 2.64945 3.17871H16.9541C17.5392 3.17871 18.0137 3.65311 18.0137 4.23831C18.0137 4.82352 17.5392 5.29792 16.9541 5.29792H2.64945C2.06424 5.29792 1.58984 4.82352 1.58984 4.23831Z"
    fill="#1CE0BD" />
  <path
    d="M0 1.0596C0 0.4744 0.4744 0 1.0596 0H18.9404C19.5256 0 20 0.4744 20 1.0596C20 1.64481 19.5256 2.11921 18.9404 2.11921H1.0596C0.4744 2.11921 0 1.64481 0 1.0596Z"
    fill="#1CE0BD" />
  <path
    d="M6.49023 10.3311C6.49023 9.74588 6.96463 9.27148 7.54984 9.27148H11.5233C12.1086 9.27148 12.5829 9.74588 12.5829 10.3311C12.5829 10.9163 12.1086 11.3907 11.5233 11.3907H7.54984C6.96463 11.3907 6.49023 10.9163 6.49023 10.3311Z"
    fill="#1CE0BD" />
  <path
    d="M5.96094 13.5098C5.96094 12.9246 6.43533 12.4502 7.02054 12.4502H10.9941C11.5793 12.4502 12.0537 12.9246 12.0537 13.5098C12.0537 14.095 11.5793 14.5694 10.9941 14.5694H7.02054C6.43533 14.5694 5.96094 14.095 5.96094 13.5098Z"
    fill="#1CE0BD" />
  <path
    d="M5.16602 16.9536C5.16602 16.3685 5.64041 15.894 6.22562 15.894H10.1991C10.7843 15.894 11.2587 16.3685 11.2587 16.9536C11.2587 17.5388 10.7843 18.0132 10.1991 18.0132H6.22562C5.64041 18.0132 5.16602 17.5388 5.16602 16.9536Z"
    fill="#1CE0BD" />
</svg>